SplineFontDB: 3.0
FontName: Neuton-Italic
FullName: Neuton Italic
FamilyName: Neuton
Weight: Book
Copyright: Copyright (c) 2010, 2011, Brian M Zick (http://21326.info/),\nwith Reserved Font Name "Neuton".
Version: 1.31
ItalicAngle: -9
UnderlinePosition: -363
UnderlineWidth: 181
Ascent: 1638
Descent: 410
sfntRevision: 0x00010001
LayerCount: 2
Layer: 0 1 "Back"  1
Layer: 1 1 "Fore"  0
XUID: [1021 288 713564382 3327199]
FSType: 0
OS2Version: 1
OS2_WeightWidthSlopeOnly: 0
OS2_UseTypoMetrics: 1
CreationTime: 1300472649
ModificationTime: 1311027425
PfmFamily: 17
TTFWeight: 400
TTFWidth: 5
LineGap: 0
VLineGap: 0
Panose: 2 0 5 3 0 0 0 0 0 0
OS2TypoAscent: 1927
OS2TypoAOffset: 0
OS2TypoDescent: -418
OS2TypoDOffset: 0
OS2TypoLinegap: 0
OS2WinAscent: 1927
OS2WinAOffset: 0
OS2WinDescent: 418
OS2WinDOffset: 0
HheadAscent: 1927
HheadAOffset: 0
HheadDescent: -418
HheadDOffset: 0
OS2SubXSize: 1101
OS2SubYSize: 1185
OS2SubXOff: 36
OS2SubYOff: 237
OS2SupXSize: 1101
OS2SupYSize: 1185
OS2SupXOff: -127
OS2SupYOff: 813
OS2StrikeYSize: 84
OS2StrikeYPos: 438
OS2Vendor: 'PfEd'
OS2CodePages: 20000093.00000000
OS2UnicodeRanges: a000006f.0000204a.00000000.00000000
Lookup: 258 0 0 "'kern' Horizontal Kerning lookup 0"  {"'kern' Horizontal Kerning lookup 0 subtable"  } ['kern' ('DFLT' <'dflt' > ) ]
Lookup: 258 0 0 "'kern' Horizontal Kerning in Latin lookup 1"  {"'kern' Horizontal Kerning in Latin lookup 1 subtable"  } ['kern' ('latn' <'dflt' > ) ]
MarkAttachClasses: 1
DEI: 91125
TtTable: prep
PUSHW_1
 511
SCANCTRL
PUSHB_1
 1
SCANTYPE
SVTCA[y-axis]
MPPEM
PUSHB_1
 8
LT
IF
PUSHB_2
 1
 1
INSTCTRL
EIF
PUSHB_2
 70
 6
CALL
IF
POP
PUSHB_1
 16
EIF
MPPEM
PUSHB_1
 20
GT
IF
POP
PUSHB_1
 128
EIF
SCVTCI
PUSHB_1
 6
CALL
NOT
IF
SVTCA[y-axis]
PUSHB_1
 5
DUP
RCVT
PUSHB_1
 3
CALL
WCVTP
PUSHB_1
 6
DUP
RCVT
PUSHB_3
 5
 26
 2
CALL
PUSHB_1
 3
CALL
WCVTP
PUSHB_1
 7
DUP
RCVT
PUSHB_3
 6
 33
 2
CALL
PUSHB_1
 3
CALL
WCVTP
PUSHB_1
 8
DUP
RCVT
PUSHB_3
 7
 238
 2
CALL
PUSHB_1
 3
CALL
WCVTP
PUSHB_1
 9
DUP
RCVT
PUSHB_3
 8
 113

StartChar: .notdef
Encoding: 65536 -1 0
Width: 846
Flags: W
LayerCount: 2
Fore
SplineSet
84 -387 m 1,0,-1
 84 1307 l 1,1,-1
 763 1307 l 1,2,-1
 763 -387 l 1,3,-1
 84 -387 l 1,0,-1
169 -303 m 1,4,-1
 678 -303 l 1,5,-1
 678 1223 l 1,6,-1
 169 1223 l 1,7,-1
 169 -303 l 1,4,-1
EndSplineSet
EndChar

StartChar: exclam
Encoding: 33 33 4
Width: 438
GlyphClass: 2
Flags: W
LayerCount: 2
Fore
SplineSet
251 213 m 0,0,1
 296 213 296 213 324.5 181.5 c 128,-1,2
 353 150 353 150 353 106 c 0,3,4
 353 46 353 46 314 6.5 c 128,-1,5
 275 -33 275 -33 216 -33 c 0,6,7
 176 -33 176 -33 143 1 c 128,-1,8
 110 35 110 35 110 73 c 0,9,10
 110 133 110 133 150.5 173 c 128,-1,11
 191 213 191 213 251 213 c 0,0,1
318 357 m 1,12,-1
 232 377 l 1,13,-1
 232 380 l 1,14,15
 287 1067 287 1067 317 1252 c 1,16,-1
 318 1256 l 1,17,18
 325 1273 325 1273 369.5 1284 c 128,-1,19
 414 1295 414 1295 457 1295 c 0,20,21
 481 1295 481 1295 498 1286.5 c 128,-1,22
 515 1278 515 1278 515 1261 c 2,23,-1
 515 1256 l 1,24,25
 484 1053 484 1053 318 364 c 1,26,-1
 318 357 l 1,12,-1
EndSplineSet
EndChar

StartChar: quotedbl
Encoding: 34 34 5
Width: 513
GlyphClass: 2
Flags: W
LayerCount: 2
Fore
SplineSet
468 1305 m 1,0,-1
 650 1289 l 1,1,-1
 553 905 l 1,2,-1
 457 893 l 1,3,-1
 468 1305 l 1,0,-1
260 1305 m 1,4,-1
 442 1289 l 1,5,-1
 344 905 l 1,6,-1
 248 893 l 1,7,-1
 260 1305 l 1,4,-1
EndSplineSet
PairPos2: "'kern' Horizontal Kerning in Latin lookup 1 subtable" zero.osf dx=0 dy=0 dh=-28 dv=0 dx=0 dy=0 dh=0 dv=0
PairPos2: "'kern' Horizontal Kerning in Latin lookup 1 subtable" zero.osf dx=0 dy=0 dh=-28 dv=0 dx=0 dy=0 dh=0 dv=0
PairPos2: "'kern' Horizontal Kerning in Latin lookup 1 subtable" zero.osf dx=0 dy=0 dh=-28 dv=0 dx=0 dy=0 dh=0 dv=0
PairPos2: "'kern' Horizontal Kerning in Latin lookup 1 subtable" zero.osf dx=0 dy=0 dh=-28 dv=0 dx=0 dy=0 dh=0 dv=0
PairPos2: "'kern' Horizontal Kerning in Latin lookup 1 subtable" zero.osf dx=0 dy=0 dh=-28 dv=0 dx=0 dy=0 dh=0 dv=0
PairPos2: "'kern' Horizontal Kerning in Latin lookup 1 subtable" four.osf dx=0 dy=0 dh=-76 dv=0 dx=0 dy=0 dh=0 dv=0
PairPos2: "'kern' Horizontal Kerning in Latin lookup 1 subtable" four.osf dx=0 dy=0 dh=-76 dv=0 dx=0 dy=0 dh=0 dv=0
PairPos2: "'kern' Horizontal Kerning in Latin lookup 1 subtable" four.osf dx=0 dy=0 dh=-76 dv=0 dx=0 dy=0 dh=0 dv=0
PairPos2: "'kern' Horizontal Kerning in Latin lookup 1 subtable" four.osf dx=0 dy=0 dh=-76 dv=0 dx=0 dy=0 dh=0 dv=0
PairPos2: "'kern' Horizontal Kerning in Latin lookup 1 subtable" four.osf dx=0 dy=0 dh=-76 dv=0 dx=0 dy=0 dh=0 dv=0
PairPos2: "'kern' Horizontal Kerning in Latin lookup 1 subtable" ellipsis dx=0 dy=0 dh=-186 dv=0 dx=0 dy=0 dh=0 dv=0
PairPos2: "'kern' Horizontal Kerning in Latin lookup 1 subtable" ellipsis dx=0 dy=0 dh=-186 dv=0 dx=0 dy=0 dh=0 dv=0
PairPos2: "'kern' Horizontal Kerning in Latin lookup 1 subtable" ellipsis dx=0 dy=0 dh=-186 dv=0 dx=0 dy=0 dh=0 dv=0
PairPos2: "'kern' Horizontal Kerning in Latin lookup 1 subtable" ellipsis dx=0 dy=0 dh=-186 dv=0 dx=0 dy=0 dh=0 dv=0
PairPos2: "'kern' Horizontal Kerning in Latin lookup 1 subtable" ellipsis dx=0 dy=0 dh=-186 dv=0 dx=0 dy=0 dh=0 dv=0
PairPos2: "'kern' Horizontal Kerning in Latin lookup 1 subtable" quotedblbase dx=0 dy=0 dh=-187 dv=0 dx=0 dy=0 dh=0 dv=0
PairPos2: "'kern' Horizontal Kerning in Latin lookup 1 subtable" quotedblbase dx=0 dy=0 dh=-187 dv=0 dx=0 dy=0 dh=0 dv=0
PairPos2: "'kern' Horizontal Kerning in Latin lookup 1 subtable" quotedblbase dx=0 dy=0 dh=-187 dv=0 dx=0 dy=0 dh=0 dv=0
PairPos2: "'kern' Horizontal Kerning in Latin lookup 1 subtable" quotedblbase dx=0 dy=0 dh=-187 dv=0 dx=0 dy=0 dh=0 dv=0
PairPos2: "'kern' Horizontal Kerning in Latin lookup 1 subtable" quotedblbase dx=0 dy=0 dh=-187 dv=0 dx=0 dy=0 dh=0 dv=0
PairPos2: "'kern' Horizontal Kerning in Latin lookup 1 subtable" emdash dx=0 dy=0 dh=-94 dv=0 dx=0 dy=0 dh=0 dv=0
PairPos2: "'kern' Horizontal Kerning in Latin lookup 1 subtable" emdash dx=0 dy=0 dh=-94 dv=0 dx=0 dy=0 dh=0 dv=0
PairPos2: "'kern' Horizontal Kerning in Latin lookup 1 subtable" emdash dx=0 dy=0 dh=-94 dv=0 dx=0 dy=0 dh=0 dv=0
PairPos2: "'kern' Horizontal Kerning in Latin lookup 1 subtable" emdash dx=0 dy=0 dh=-94 dv=0 dx=0 dy=0 dh=0 dv=0
PairPos2: "'kern' Horizontal Kerning in Latin lookup 1 subtable" emdash dx=0 dy=0 dh=-94 dv=0 dx=0 dy=0 dh=0 dv=0
PairPos2: "'kern' Horizontal Kerning in Latin lookup 1 subtable" Germandbls dx=0 dy=0 dh=-31 dv=0 dx=0 dy=0 dh=0 dv=0
PairPos2: "'kern' Horizontal Kerning in Latin lookup 1 subtable" Germandbls dx=0 dy=0 dh=-31 dv=0 dx=0 dy=0 dh=0 dv=0
PairPos2: "'kern' Horizontal Kerning in Latin lookup 1 subtable" Germandbls dx=0 dy=0 dh=-31 dv=0 dx=0 dy=0 dh=0 dv=0
PairPos2: "'kern' Horizontal Kerning in Latin lookup 1 subtable" Germandbls dx=0 dy=0 dh=-31 dv=0 dx=0 dy=0 dh=0 dv=0
PairPos2: "'kern' Horizontal Kerning in Latin lookup 1 subtable" Germandbls dx=0 dy=0 dh=-31 dv=0 dx=0 dy=0 dh=0 dv=0
PairPos2: "'kern' Horizontal Kerning in Latin lookup 1 subtable" eth dx=0 dy=0 dh=-47 dv=0 dx=0 dy=0 dh=0 dv=0
PairPos2: "'kern' Horizontal Kerning in Latin lookup 1 subtable" eth dx=0 dy=0 dh=-47 dv=0 dx=0 dy=0 dh=0 dv=0
PairPos2: "'kern' Horizontal Kerning in Latin lookup 1 subtable" eth dx=0 dy=0 dh=-47 dv=0 dx=0 dy=0 dh=0 dv=0
PairPos2: "'kern' Horizontal Kerning in Latin lookup 1 subtable" eth dx=0 dy=0 dh=-47 dv=0 dx=0 dy=0 dh=0 dv=0
PairPos2: "'kern' Horizontal Kerning in Latin lookup 1 subtable" eth dx=0 dy=0 dh=-47 dv=0 dx=0 dy=0 dh=0 dv=0
PairPos2: "'kern' Horizontal Kerning in Latin lookup 1 subtable" AE dx=0 dy=0 dh=-99 dv=0 dx=0 dy=0 dh=0 dv=0
PairPos2: "'kern' Horizontal Kerning in Latin lookup 1 subtable" AE dx=0 dy=0 dh=-99 dv=0 dx=0 dy=0 dh=0 dv=0
PairPos2: "'kern' Horizontal Kerning in Latin lookup 1 subtable" AE dx=0 dy=0 dh=-99 dv=0 dx=0 dy=0 dh=0 dv=0
PairPos2: "'kern' Horizontal Kerning in Latin lookup 1 subtable" AE dx=0 dy=0 dh=-99 dv=0 dx=0 dy=0 dh=0 dv=0
PairPos2: "'kern' Horizontal Kerning in Latin lookup 1 subtable" AE dx=0 dy=0 dh=-99 dv=0 dx=0 dy=0 dh=0 dv=0
PairPos2: "'kern' Horizontal Kerning in Latin lookup 1 subtable" guillemotleft dx=0 dy=0 dh=-40 dv=0 dx=0 dy=0 dh=0 dv=0
PairPos2: "'kern' Horizontal Kerning in Latin lookup 1 subtable" guillemotleft dx=0 dy=0 dh=-40 dv=0 dx=0 dy=0 dh=0 dv=0
PairPos2: "'kern' Horizontal Kerning in Latin lookup 1 subtable" guillemotleft dx=0 dy=0 dh=-40 dv=0 dx=0 dy=0 dh=0 dv=0
PairPos2: "'kern' Horizontal Kerning in Latin lookup 1 subtable" guillemotleft dx=0 dy=0 dh=-40 dv=0 dx=0 dy=0 dh=0 dv=0
PairPos2: "'kern' Horizontal Kerning in Latin lookup 1 subtable" guillemotleft dx=0 dy=0 dh=-40 dv=0 dx=0 dy=0 dh=0 dv=0
PairPos2: "'kern' Horizontal Kerning in Latin lookup 1 subtable" s dx=0 dy=0 dh=-32 dv=0 dx=0 dy=0 dh=0 dv=0
PairPos2: "'kern' Horizontal Kerning in Latin lookup 1 subtable" s dx=0 dy=0 dh=-32 dv=0 dx=0 dy=0 dh=0 dv=0
PairPos2: "'kern' Horizontal Kerning in Latin lookup 1 subtable" s dx=0 dy=0 dh=-32 dv=0 dx=0 dy=0 dh=0 dv=0
PairPos2: "'kern' Horizontal Kerning in Latin lookup 1 subtable" s dx=0 dy=0 dh=-32 dv=0 dx=0 dy=0 dh=0 dv=0
PairPos2: "'kern' Horizontal Kerning in Latin lookup 1 subtable" s dx=0 dy=0 dh=-32 dv=0 dx=0 dy=0 dh=0 dv=0
PairPos2: "'kern' Horizontal Kerning in Latin lookup 1 subtable" o dx=0 dy=0 dh=-55 dv=0 dx=0 dy=0 dh=0 dv=0
PairPos2: "'kern' Horizontal Kerning in Latin lookup 1 subtable" o dx=0 dy=0 dh=-55 dv=0 dx=0 dy=0 dh=0 dv=0
PairPos2: "'kern' Horizontal Kerning in Latin lookup 1 subtable" o dx=0 dy=0 dh=-55 dv=0 dx=0 dy=0 dh=0 dv=0
PairPos2: "'kern' Horizontal Kerning in Latin lookup 1 subtable" o dx=0 dy=0 dh=-55 dv=0 dx=0 dy=0 dh=0 dv=0
PairPos2: "'kern' Horizontal Kerning in Latin lookup 1 subtable" o dx=0 dy=0 dh=-55 dv=0 dx=0 dy=0 dh=0 dv=0
PairPos2: "'kern' Horizontal Kerning in Latin lookup 1 subtable" g dx=0 dy=0 dh=-41 dv=0 dx=0 dy=0 dh=0 dv=0
PairPos2: "'kern' Horizontal Kerning in Latin lookup 1 subtable" g dx=0 dy=0 dh=-41 dv=0 dx=0 dy=0 dh=0 dv=0
PairPos2: "'kern' Horizontal Kerning in Latin lookup 1 subtable" g dx=0 dy=0 dh=-41 dv=0 dx=0 dy=0 dh=0 dv=0
PairPos2: "'kern' Horizontal Kerning in Latin lookup 1 subtable" g dx=0 dy=0 dh=-41 dv=0 dx=0 dy=0 dh=0 dv=0
PairPos2: "'kern' Horizontal Kerning in Latin lookup 1 subtable" g dx=0 dy=0 dh=-41 dv=0 dx=0 dy=0 dh=0 dv=0
PairPos2: "'kern' Horizontal Kerning in Latin lookup 1 subtable" e dx=0 dy=0 dh=-51 dv=0 dx=0 dy=0 dh=0 dv=0
PairPos2: "'kern' Horizontal Kerning in Latin lookup 1 subtable" e dx=0 dy=0 dh=-51 dv=0 dx=0 dy=0 dh=0 dv=0
PairPos2: "'kern' Horizontal Kerning in Latin lookup 1 subtable" e dx=0 dy=0 dh=-51 dv=0 dx=0 dy=0 dh=0 dv=0
PairPos2: "'kern' Horizontal Kerning in Latin lookup 1 subtable" e dx=0 dy=0 dh=-51 dv=0 dx=0 dy=0 dh=0 dv=0
PairPos2: "'kern' Horizontal Kerning in Latin lookup 1 subtable" e dx=0 dy=0 dh=-51 dv=0 dx=0 dy=0 dh=0 dv=0
PairPos2: "'kern' Horizontal Kerning in Latin lookup 1 subtable" d dx=0 dy=0 dh=-69 dv=0 dx=0 dy=0 dh=0 dv=0
PairPos2: "'kern' Horizontal Kerning in Latin lookup 1 subtable" d dx=0 dy=0 dh=-69 dv=0 dx=0 dy=0 dh=0 dv=0
PairPos2: "'kern' Horizontal Kerning in Latin lookup 1 subtable" d dx=0 dy=0 dh=-69 dv=0 dx=0 dy=0 dh=0 dv=0
PairPos2: "'kern' Horizontal Kerning in Latin lookup 1 subtable" d dx=0 dy=0 dh=-69 dv=0 dx=0 dy=0 dh=0 dv=0
PairPos2: "'kern' Horizontal Kerning in Latin lookup 1 subtable" d dx=0 dy=0 dh=-69 dv=0 dx=0 dy=0 dh=0 dv=0
PairPos2: "'kern' Horizontal Kerning in Latin lookup 1 subtable" c dx=0 dy=0 dh=-56 dv=0 dx=0 dy=0 dh=0 dv=0
PairPos2: "'kern' Horizontal Kerning in Latin lookup 1 subtable" c dx=0 dy=0 dh=-56 dv=0 dx=0 dy=0 dh=0 dv=0
PairPos2: "'kern' Horizontal Kerning in Latin lookup 1 subtable" c dx=0 dy=0 dh=-56 dv=0 dx=0 dy=0 dh=0 dv=0
PairPos2: "'kern' Horizontal Kerning in Latin lookup 1 subtable" c dx=0 dy=0 dh=-56 dv=0 dx=0 dy=0 dh=0 dv=0
PairPos2: "'kern' Horizontal Kerning in Latin lookup 1 subtable" c dx=0 dy=0 dh=-56 dv=0 dx=0 dy=0 dh=0 dv=0
PairPos2: "'kern' Horizontal Kerning in Latin lookup 1 subtable" a dx=0 dy=0 dh=-66 dv=0 dx=0 dy=0 dh=0 dv=0
PairPos2: "'kern' Horizontal Kerning in Latin lookup 1 subtable" a dx=0 dy=0 dh=-66 dv=0 dx=0 dy=0 dh=0 dv=0
PairPos2: "'kern' Horizontal Kerning in Latin lookup 1 subtable" a dx=0 dy=0 dh=-66 dv=0 dx=0 dy=0 dh=0 dv=0
PairPos2: "'kern' Horizontal Kerning in Latin lookup 1 subtable" a dx=0 dy=0 dh=-66 dv=0 dx=0 dy=0 dh=0 dv=0
PairPos2: "'kern' Horizontal Kerning in Latin lookup 1 subtable" a dx=0 dy=0 dh=-66 dv=0 dx=0 dy=0 dh=0 dv=0
PairPos2: "'kern' Horizontal Kerning in Latin lookup 1 subtable" A dx=0 dy=0 dh=-74 dv=0 dx=0 dy=0 dh=0 dv=0
PairPos2: "'kern' Horizontal Kerning in Latin lookup 1 subtable" A dx=0 dy=0 dh=-74 dv=0 dx=0 dy=0 dh=0 dv=0
PairPos2: "'kern' Horizontal Kerning in Latin lookup 1 subtable" A dx=0 dy=0 dh=-74 dv=0 dx=0 dy=0 dh=0 dv=0
PairPos2: "'kern' Horizontal Kerning in Latin lookup 1 subtable" A dx=0 dy=0 dh=-74 dv=0 dx=0 dy=0 dh=0 dv=0
PairPos2: "'kern' Horizontal Kerning in Latin lookup 1 subtable" A dx=0 dy=0 dh=-74 dv=0 dx=0 dy=0 dh=0 dv=0
PairPos2: "'kern' Horizontal Kerning in Latin lookup 1 subtable" at dx=0 dy=0 dh=-31 dv=0 dx=0 dy=0 dh=0 dv=0
PairPos2: "'kern' Horizontal Kerning in Latin lookup 1 subtable" at dx=0 dy=0 dh=-31 dv=0 dx=0 dy=0 dh=0 dv=0
PairPos2: "'kern' Horizontal Kerning in Latin lookup 1 subtable" at dx=0 dy=0 dh=-31 dv=0 dx=0 dy=0 dh=0 dv=0
PairPos2: "'kern' Horizontal Kerning in Latin lookup 1 subtable" at dx=0 dy=0 dh=-31 dv=0 dx=0 dy=0 dh=0 dv=0
PairPos2: "'kern' Horizontal Kerning in Latin lookup 1 subtable" at dx=0 dy=0 dh=-31 dv=0 dx=0 dy=0 dh=0 dv=0
PairPos2: "'kern' Horizontal Kerning in Latin lookup 1 subtable" four dx=0 dy=0 dh=-22 dv=0 dx=0 dy=0 dh=0 dv=0
PairPos2: "'kern' Horizontal Kerning in Latin lookup 1 subtable" four dx=0 dy=0 dh=-22 dv=0 dx=0 dy=0 dh=0 dv=0
PairPos2: "'kern' Horizontal Kerning in Latin lookup 1 subtable" four dx=0 dy=0 dh=-22 dv=0 dx=0 dy=0 dh=0 dv=0
PairPos2: "'kern' Horizontal Kerning in Latin lookup 1 subtable" four dx=0 dy=0 dh=-22 dv=0 dx=0 dy=0 dh=0 dv=0
PairPos2: "'kern' Horizontal Kerning in Latin lookup 1 subtable" four dx=0 dy=0 dh=-22 dv=0 dx=0 dy=0 dh=0 dv=0
PairPos2: "'kern' Horizontal Kerning in Latin lookup 1 subtable" slash dx=0 dy=0 dh=-30 dv=0 dx=0 dy=0 dh=0 dv=0
PairPos2: "'kern' Horizontal Kerning in Latin lookup 1 subtable" slash dx=0 dy=0 dh=-30 dv=0 dx=0 dy=0 dh=0 dv=0
PairPos2: "'kern' Horizontal Kerning in Latin lookup 1 subtable" slash dx=0 dy=0 dh=-30 dv=0 dx=0 dy=0 dh=0 dv=0
PairPos2: "'kern' Horizontal Kerning in Latin lookup 1 subtable" slash dx=0 dy=0 dh=-30 dv=0 dx=0 dy=0 dh=0 dv=0
PairPos2: "'kern' Horizontal Kerning in Latin lookup 1 subtable" slash dx=0 dy=0 dh=-30 dv=0 dx=0 dy=0 dh=0 dv=0
PairPos2: "'kern' Horizontal Kerning in Latin lookup 1 subtable" comma dx=0 dy=0 dh=-187 dv=0 dx=0 dy=0 dh=0 dv=0
PairPos2: "'kern' Horizontal Kerning in Latin lookup 1 subtable" comma dx=0 dy=0 dh=-187 dv=0 dx=0 dy=0 dh=0 dv=0
PairPos2: "'kern' Horizontal Kerning in Latin lookup 1 subtable" comma dx=0 dy=0 dh=-187 dv=0 dx=0 dy=0 dh=0 dv=0
PairPos2: "'kern' Horizontal Kerning in Latin lookup 1 subtable" comma dx=0 dy=0 dh=-187 dv=0 dx=0 dy=0 dh=0 dv=0
PairPos2: "'kern' Horizontal Kerning in Latin lookup 1 subtable" comma dx=0 dy=0 dh=-187 dv=0 dx=0 dy=0 dh=0 dv=0
EndChar

StartChar: numbersign
Encoding: 35 35 6
Width: 961
GlyphClass: 2
Flags: W
LayerCount: 2
Fore
SplineSet
372 364 m 1,0,-1
 348 179 l 1,1,-1
 242 170 l 1,2,-1
 268 364 l 1,3,-1
 99 364 l 1,4,-1
 125 465 l 1,5,-1
 287 465 l 1,6,-1
 318 677 l 1,7,-1
 156 677 l 1,8,-1
 179 778 l 1,9,-1
 335 778 l 1,10,-1
 365 953 l 1,11,-1
 467 963 l 1,12,-1
 438 778 l 1,13,-1
 643 778 l 1,14,-1
 671 953 l 1,15,-1
 774 961 l 1,16,-1
 745 778 l 1,17,-1
 914 778 l 1,18,-1
 890 677 l 1,19,-1
 728 677 l 1,20,-1
 697 465 l 1,21,-1
 858 465 l 1,22,-1
 834 364 l 1,23,-1
 678 364 l 1,24,-1
 656 179 l 1,25,-1
 550 170 l 1,26,-1
 576 364 l 1,27,-1
 372 364 l 1,0,-1
390 465 m 1,28,-1
 593 465 l 1,29,-1
 625 677 l 1,30,-1
 420 677 l 1,31,-1
 390 465 l 1,28,-1
EndSplineSet
EndChar

StartChar: dollar
Encoding: 36 36 7
Width: 868
GlyphClass: 2
Flags: W
LayerCount: 2
Fore
SplineSet
553 506 m 1,0,-1
 486 85 l 1,1,2
 563 102 563 102 620 153.5 c 128,-1,3
 677 205 677 205 691 289 c 0,4,5
 693 304 693 304 694 317 c 1,6,7
 694 374 694 374 657.5 418 c 128,-1,8
 621 462 621 462 553 506 c 1,0,-1
512 790 m 1,9,-1
 575 1188 l 1,10,11
 508 1176 508 1176 461 1130 c 128,-1,12
 414 1084 414 1084 401 1002 c 0,13,14
 399 985 399 985 399 969 c 0,15,16
 399 869 399 869 512 790 c 1,9,-1
864 892 m 1,17,-1
 766 903 l 1,18,-1
 770 1096 l 1,19,20
 762 1121 762 1121 730 1148 c 128,-1,21
 698 1175 698 1175 657 1186 c 1,22,-1
 586 743 l 1,23,24
 598 736 598 736 628 719 c 128,-1,25
 658 702 658 702 672.5 693.5 c 128,-1,26
 687 685 687 685 713 668.5 c 128,-1,27
 739 652 739 652 753.5 640.5 c 128,-1,28
 768 629 768 629 790 611.5 c 128,-1,29
 812 594 812 594 824 579 c 128,-1,30
 836 564 836 564 850.5 543.5 c 128,-1,31
 865 523 865 523 872.5 502.5 c 128,-1,32
 880 482 880 482 885.5 457.5 c 128,-1,33
 891 433 891 433 891 407 c 0,34,35
 891 386 891 386 887 356 c 0,36,37
 865 216 865 216 753 116.5 c 128,-1,38
 641 17 641 17 491 -13 c 1,39,-1
 467 -165 l 1,40,-1
 333 -181 l 1,41,-1
 357 -24 l 1,42,43
 260 -19 260 -19 181.5 22.5 c 128,-1,44
 103 64 103 64 65 123 c 1,45,-1
 120 392 l 1,46,-1
 221 377 l 1,47,-1
 229 188 l 1,48,49
 249 146 249 146 293 115 c 128,-1,50
 337 84 337 84 396 79 c 1,51,-1
 471 555 l 1,52,53
 421 584 421 584 393.5 602 c 128,-1,54
 366 620 366 620 326 652 c 128,-1,55
 286 684 286 684 264.5 712.5 c 128,-1,56
 243 741 243 741 227 783 c 128,-1,57
 211 825 211 825 211 871 c 0,58,59
 211 893 211 893 215 921 c 0,60,61
 226 990 226 990 259.5 1051 c 128,-1,62
 293 1112 293 1112 341.5 1154.5 c 128,-1,63
 390 1197 390 1197 447.5 1226 c 128,-1,64
 505 1255 505 1255 568 1268 c 1,65,-1
 590 1403 l 1,66,-1
 718 1419 l 1,67,-1
 695 1276 l 1,68,69
 836 1266 836 1266 931 1176 c 1,70,-1
 864 892 l 1,17,-1
EndSplineSet
EndChar

StartChar: percent
Encoding: 37 37 8
Width: 1173
GlyphClass: 2
Flags: W
LayerCount: 2
Fore
SplineSet
888 48 m 0,0,1
 947 48 947 48 986.5 106.5 c 128,-1,2
 1026 165 1026 165 1026 243 c 0,3,4
 1026 317 1026 317 1007.5 349.5 c 128,-1,5
 989 382 989 382 939 382 c 0,6,7
 879 382 879 382 840 326 c 128,-1,8
 801 270 801 270 801 197 c 0,9,10
 801 115 801 115 819.5 81.5 c 128,-1,11
 838 48 838 48 888 48 c 0,0,1
997 4 m 1,12,13
 932 -35 932 -35 874 -35 c 0,14,15
 777 -35 777 -35 724.5 22 c 128,-1,16
 672 79 672 79 672 185 c 0,17,18
 672 248 672 248 716 314 c 128,-1,19
 760 380 760 380 826 422 c 0,20,21
 892 463 892 463 952 463 c 0,22,23
 1149 463 1149 463 1149 237 c 0,24,25
 1149 173 1149 173 1105.5 109 c 128,-1,26
 1062 45 1062 45 997 4 c 1,12,13
391 559 m 0,27,28
 450 559 450 559 490 617.5 c 128,-1,29
 530 676 530 676 530 754 c 0,30,31
 530 828 530 828 511.5 860.5 c 128,-1,32
 493 893 493 893 443 893 c 0,33,34
 383 893 383 893 344 838 c 128,-1,35
 305 783 305 783 305 711 c 0,36,37
 305 628 305 628 323 593.5 c 128,-1,38
 341 559 341 559 391 559 c 0,27,28
500 515 m 1,39,40
 435 476 435 476 378 476 c 0,41,42
 283 476 283 476 229.5 534.5 c 128,-1,43
 176 593 176 593 176 700 c 0,44,45
 176 763 176 763 220 827.5 c 128,-1,46
 264 892 264 892 330 934 c 1,47,48
 395 974 395 974 456 974 c 0,49,50
 653 974 653 974 653 748 c 0,51,52
 653 684 653 684 609 620 c 128,-1,53
 565 556 565 556 500 515 c 1,39,40
1015 978 m 1,54,-1
 1126 969 l 1,55,-1
 310 -38 l 1,56,-1
 191 -28 l 1,57,-1
 1015 978 l 1,54,-1
EndSplineSet
EndChar

StartChar: ampersand
Encoding: 38 38 9
Width: 1335
GlyphClass: 2
Flags: W
LayerCount: 2
Fore
SplineSet
1246 725 m 1,0,-1
 978 354 l 1,1,2
 1064 240 1064 240 1160 151 c 0,3,4
 1224 92 1224 92 1262 79 c 1,5,-1
 1294 69 l 1,6,-1
 1269 0 l 1,7,8
 1207 -20 1207 -20 1145 -20 c 0,9,10
 1074 -20 1074 -20 1001.5 39 c 128,-1,11
 929 98 929 98 837 218 c 1,12,13
 804 179 804 179 778 153.5 c 128,-1,14
 752 128 752 128 711 96 c 0,15,16
 665 59 665 59 620.5 36 c 128,-1,17
 576 13 576 13 516 -3 c 0,18,19
 454 -20 454 -20 390 -20 c 0,20,21
 230 -20 230 -20 151 69 c 0,22,23
 78 150 78 150 78 268 c 0,24,25
 78 390 78 390 162 496 c 0,26,27
 195 537 195 537 244.5 579.5 c 128,-1,28
 294 622 294 622 342 652 c 128,-1,29
 390 682 390 682 432 703 c 1,30,31
 329 802 329 802 329 950 c 0,32,33
 329 1024 329 1024 383 1099.5 c 128,-1,34
 437 1175 437 1175 523 1225 c 0,35,36
 609 1274 609 1274 691 1274 c 0,37,38
 829 1274 829 1274 901.5 1217 c 128,-1,39
 974 1160 974 1160 974 1036 c 0,40,41
 974 942 974 942 873 851 c 1,42,43
 784 773 784 773 683 718 c 1,44,-1
 682 706 l 1,45,-1
 918 423 l 1,46,-1
 1135 721 l 1,47,-1
 973 763 l 1,48,-1
 994 839 l 1,49,-1
 1444 839 l 1,50,-1
 1423 763 l 1,51,-1
 1246 725 l 1,0,-1
485 630 m 1,52,-1
 468 632 l 1,53,54
 389 582 389 582 332.5 509.5 c 128,-1,55
 276 437 276 437 276 364 c 0,56,57
 276 258 276 258 316 187 c 0,58,59
 361 106 361 106 470 106 c 0,60,61
 520 106 520 106 575 127 c 128,-1,62
 630 148 630 148 672 181 c 0,63,64
 750 242 750 242 778 283 c 1,65,-1
 485 630 l 1,52,-1
625 774 m 1,66,67
 799 880 799 880 799 1016 c 0,68,69
 799 1103 799 1103 766 1146 c 128,-1,70
 733 1189 733 1189 658 1189 c 0,71,72
 594 1189 594 1189 544.5 1132.5 c 128,-1,73
 495 1076 495 1076 495 1009 c 0,74,75
 494 897 494 897 625 774 c 1,66,67
EndSplineSet
EndChar

StartChar: quotesingle
Encoding: 39 39 10
Width: 305
GlyphClass: 2
Flags: W
LayerCount: 2
Fore
SplineSet
260 1305 m 1,0,-1
 442 1289 l 1,1,-1
 344 905 l 1,2,-1
 248 893 l 1,3,-1
 260 1305 l 1,0,-1
EndSplineSet
EndChar

StartChar: parenleft
Encoding: 40 40 11
Width: 483
GlyphClass: 2
Flags: W
LayerCount: 2
Fore
SplineSet
332 -376 m 1,0,1
 329 -373 329 -373 320.5 -364 c 128,-1,2
 312 -355 312 -355 310 -352 c 128,-1,3
 308 -349 308 -349 301 -341.5 c 128,-1,4
 294 -334 294 -334 290.5 -329.5 c 128,-1,5
 287 -325 287 -325 280.5 -316.5 c 128,-1,6
 274 -308 274 -308 268 -299 c 128,-1,7
 262 -290 262 -290 254 -278 c 128,-1,8
 246 -266 246 -266 237 -251 c 0,9,10
 199 -190 199 -190 177 -127.5 c 128,-1,11
 155 -65 155 -65 135 36 c 0,12,13
 115 138 115 138 115 251 c 0,14,15
 115 506 115 506 196 720 c 0,16,17
 262 894 262 894 374 1039 c 0,18,19
 412 1089 412 1089 462.5 1140.5 c 128,-1,20
 513 1192 513 1192 543 1218 c 1,21,22
 575 1244 575 1244 595 1257 c 1,23,-1
 634 1191 l 1,24,25
 589 1141 589 1141 552 1091 c 128,-1,26
 515 1041 515 1041 468 955 c 1,27,28
 413 857 413 857 377 754 c 128,-1,29
 341 651 341 651 314 509 c 1,30,31
 287 361 287 361 287 202 c 0,32,33
 287 -49 287 -49 409 -318 c 1,34,-1
 332 -376 l 1,0,1
EndSplineSet
PairPos2: "'kern' Horizontal Kerning in Latin lookup 1 subtable" zero.osf dx=0 dy=0 dh=-31 dv=0 dx=0 dy=0 dh=0 dv=0
PairPos2: "'kern' Horizontal Kerning in Latin lookup 1 subtable" zero.osf dx=0 dy=0 dh=-31 dv=0 dx=0 dy=0 dh=0 dv=0
PairPos2: "'kern' Horizontal Kerning in Latin lookup 1 subtable" zero.osf dx=0 dy=0 dh=-31 dv=0 dx=0 dy=0 dh=0 dv=0
PairPos2: "'kern' Horizontal Kerning in Latin lookup 1 subtable" zero.osf dx=0 dy=0 dh=-31 dv=0 dx=0 dy=0 dh=0 dv=0
PairPos2: "'kern' Horizontal Kerning in Latin lookup 1 subtable" zero.osf dx=0 dy=0 dh=-31 dv=0 dx=0 dy=0 dh=0 dv=0
PairPos2: "'kern' Horizontal Kerning in Latin lookup 1 subtable" six.osf dx=0 dy=0 dh=-26 dv=0 dx=0 dy=0 dh=0 dv=0
PairPos2: "'kern' Horizontal Kerning in Latin lookup 1 subtable" six.osf dx=0 dy=0 dh=-26 dv=0 dx=0 dy=0 dh=0 dv=0
PairPos2: "'kern' Horizontal Kerning in Latin lookup 1 subtable" six.osf dx=0 dy=0 dh=-26 dv=0 dx=0 dy=0 dh=0 dv=0
PairPos2: "'kern' Horizontal Kerning in Latin lookup 1 subtable" six.osf dx=0 dy=0 dh=-26 dv=0 dx=0 dy=0 dh=0 dv=0
PairPos2: "'kern' Horizontal Kerning in Latin lookup 1 subtable" six.osf dx=0 dy=0 dh=-26 dv=0 dx=0 dy=0 dh=0 dv=0
PairPos2: "'kern' Horizontal Kerning in Latin lookup 1 subtable" four.osf dx=0 dy=0 dh=-23 dv=0 dx=0 dy=0 dh=0 dv=0
PairPos2: "'kern' Horizontal Kerning in Latin lookup 1 subtable" four.osf dx=0 dy=0 dh=-23 dv=0 dx=0 dy=0 dh=0 dv=0
PairPos2: "'kern' Horizontal Kerning in Latin lookup 1 subtable" four.osf dx=0 dy=0 dh=-23 dv=0 dx=0 dy=0 dh=0 dv=0
PairPos2: "'kern' Horizontal Kerning in Latin lookup 1 subtable" four.osf dx=0 dy=0 dh=-23 dv=0 dx=0 dy=0 dh=0 dv=0
PairPos2: "'kern' Horizontal Kerning in Latin lookup 1 subtable" four.osf dx=0 dy=0 dh=-23 dv=0 dx=0 dy=0 dh=0 dv=0
PairPos2: "'kern' Horizontal Kerning in Latin lookup 1 subtable" five.osf dx=0 dy=0 dh=40 dv=0 dx=0 dy=0 dh=0 dv=0
PairPos2: "'kern' Horizontal Kerning in Latin lookup 1 subtable" five.osf dx=0 dy=0 dh=40 dv=0 dx=0 dy=0 dh=0 dv=0
PairPos2: "'kern' Horizontal Kerning in Latin lookup 1 subtable" five.osf dx=0 dy=0 dh=40 dv=0 dx=0 dy=0 dh=0 dv=0
PairPos2: "'kern' Horizontal Kerning in Latin lookup 1 subtable" five.osf dx=0 dy=0 dh=40 dv=0 dx=0 dy=0 dh=0 dv=0
PairPos2: "'kern' Horizontal Kerning in Latin lookup 1 subtable" five.osf dx=0 dy=0 dh=40 dv=0 dx=0 dy=0 dh=0 dv=0
PairPos2: "'kern' Horizontal Kerning in Latin lookup 1 subtable" dotlessj dx=0 dy=0 dh=66 dv=0 dx=0 dy=0 dh=0 dv=0
PairPos2: "'kern' Horizontal Kerning in Latin lookup 1 subtable" dotlessj dx=0 dy=0 dh=66 dv=0 dx=0 dy=0 dh=0 dv=0
PairPos2: "'kern' Horizontal Kerning in Latin lookup 1 subtable" dotlessj dx=0 dy=0 dh=66 dv=0 dx=0 dy=0 dh=0 dv=0
PairPos2: "'kern' Horizontal Kerning in Latin lookup 1 subtable" dotlessj dx=0 dy=0 dh=66 dv=0 dx=0 dy=0 dh=0 dv=0
PairPos2: "'kern' Horizontal Kerning in Latin lookup 1 subtable" dotlessj dx=0 dy=0 dh=66 dv=0 dx=0 dy=0 dh=0 dv=0
PairPos2: "'kern' Horizontal Kerning in Latin lookup 1 subtable" thorn dx=0 dy=0 dh=36 dv=0 dx=0 dy=0 dh=0 dv=0
PairPos2: "'kern' Horizontal Kerning in Latin lookup 1 subtable" thorn dx=0 dy=0 dh=36 dv=0 dx=0 dy=0 dh=0 dv=0
PairPos2: "'kern' Horizontal Kerning in Latin lookup 1 subtable" thorn dx=0 dy=0 dh=36 dv=0 dx=0 dy=0 dh=0 dv=0
PairPos2: "'kern' Horizontal Kerning in Latin lookup 1 subtable" thorn dx=0 dy=0 dh=36 dv=0 dx=0 dy=0 dh=0 dv=0
PairPos2: "'kern' Horizontal Kerning in Latin lookup 1 subtable" thorn dx=0 dy=0 dh=36 dv=0 dx=0 dy=0 dh=0 dv=0
PairPos2: "'kern' Horizontal Kerning in Latin lookup 1 subtable" eth dx=0 dy=0 dh=-31 dv=0 dx=0 dy=0 dh=0 dv=0
PairPos2: "'kern' Horizontal Kerning in Latin lookup 1 subtable" eth dx=0 dy=0 dh=-31 dv=0 dx=0 dy=0 dh=0 dv=0
PairPos2: "'kern' Horizontal Kerning in Latin lookup 1 subtable" eth dx=0 dy=0 dh=-31 dv=0 dx=0 dy=0 dh=0 dv=0
PairPos2: "'kern' Horizontal Kerning in Latin lookup 1 subtable" eth dx=0 dy=0 dh=-31 dv=0 dx=0 dy=0 dh=0 dv=0
PairPos2: "'kern' Horizontal Kerning in Latin lookup 1 subtable" eth dx=0 dy=0 dh=-31 dv=0 dx=0 dy=0 dh=0 dv=0
PairPos2: "'kern' Horizontal Kerning in Latin lookup 1 subtable" z dx=0 dy=0 dh=-17 dv=0 dx=0 dy=0 dh=0 dv=0
PairPos2: "'kern' Horizontal Kerning in Latin lookup 1 subtable" z dx=0 dy=0 dh=-17 dv=0 dx=0 dy=0 dh=0 dv=0
PairPos2: "'kern' Horizontal Kerning in Latin lookup 1 subtable" z dx=0 dy=0 dh=-17 dv=0 dx=0 dy=0 dh=0 dv=0
PairPos2: "'kern' Horizontal Kerning in Latin lookup 1 subtable" z dx=0 dy=0 dh=-17 dv=0 dx=0 dy=0 dh=0 dv=0
PairPos2: "'kern' Horizontal Kerning in Latin lookup 1 subtable" z dx=0 dy=0 dh=-17 dv=0 dx=0 dy=0 dh=0 dv=0
PairPos2: "'kern' Horizontal Kerning in Latin lookup 1 subtable" y dx=0 dy=0 dh=33 dv=0 dx=0 dy=0 dh=0 dv=0
PairPos2: "'kern' Horizontal Kerning in Latin lookup 1 subtable" y dx=0 dy=0 dh=33 dv=0 dx=0 dy=0 dh=0 dv=0
PairPos2: "'kern' Horizontal Kerning in Latin lookup 1 subtable" y dx=0 dy=0 dh=33 dv=0 dx=0 dy=0 dh=0 dv=0
PairPos2: "'kern' Horizontal Kerning in Latin lookup 1 subtable" y dx=0 dy=0 dh=33 dv=0 dx=0 dy=0 dh=0 dv=0
PairPos2: "'kern' Horizontal Kerning in Latin lookup 1 subtable" y dx=0 dy=0 dh=33 dv=0 dx=0 dy=0 dh=0 dv=0
PairPos2: "'kern' Horizontal Kerning in Latin lookup 1 subtable" w dx=0 dy=0 dh=-21 dv=0 dx=0 dy=0 dh=0 dv=0
PairPos2: "'kern' Horizontal Kerning in Latin lookup 1 subtable" w dx=0 dy=0 dh=-21 dv=0 dx=0 dy=0 dh=0 dv=0
PairPos2: "'kern' Horizontal Kerning in Latin lookup 1 subtable" w dx=0 dy=0 dh=-21 dv=0 dx=0 dy=0 dh=0 dv=0
PairPos2: "'kern' Horizontal Kerning in Latin lookup 1 subtable" w dx=0 dy=0 dh=-21 dv=0 dx=0 dy=0 dh=0 dv=0
PairPos2: "'kern' Horizontal Kerning in Latin lookup 1 subtable" w dx=0 dy=0 dh=-21 dv=0 dx=0 dy=0 dh=0 dv=0
PairPos2: "'kern' Horizontal Kerning in Latin lookup 1 subtable" v dx=0 dy=0 dh=-22 dv=0 dx=0 dy=0 dh=0 dv=0
PairPos2: "'kern' Horizontal Kerning in Latin lookup 1 subtable" v dx=0 dy=0 dh=-22 dv=0 dx=0 dy=0 dh=0 dv=0
PairPos2: "'kern' Horizontal Kerning in Latin lookup 1 subtable" v dx=0 dy=0 dh=-22 dv=0 dx=0 dy=0 dh=0 dv=0
PairPos2: "'kern' Horizontal Kerning in Latin lookup 1 subtable" v dx=0 dy=0 dh=-22 dv=0 dx=0 dy=0 dh=0 dv=0
PairPos2: "'kern' Horizontal Kerning in Latin lookup 1 subtable" v dx=0 dy=0 dh=-22 dv=0 dx=0 dy=0 dh=0 dv=0
PairPos2: "'kern' Horizontal Kerning in Latin lookup 1 subtable" u dx=0 dy=0 dh=-26 dv=0 dx=0 dy=0 dh=0 dv=0
PairPos2: "'kern' Horizontal Kerning in Latin lookup 1 subtable" u dx=0 dy=0 dh=-26 dv=0 dx=0 dy=0 dh=0 dv=0
PairPos2: "'kern' Horizontal Kerning in Latin lookup 1 subtable" u dx=0 dy=0 dh=-26 dv=0 dx=0 dy=0 dh=0 dv=0
PairPos2: "'kern' Horizontal Kerning in Latin lookup 1 subtable" u dx=0 dy=0 dh=-26 dv=0 dx=0 dy=0 dh=0 dv=0
PairPos2: "'kern' Horizontal Kerning in Latin lookup 1 subtable" u dx=0 dy=0 dh=-26 dv=0 dx=0 dy=0 dh=0 dv=0
PairPos2: "'kern' Horizontal Kerning in Latin lookup 1 subtable" t dx=0 dy=0 dh=-26 dv=0 dx=0 dy=0 dh=0 dv=0
PairPos2: "'kern' Horizontal Kerning in Latin lookup 1 subtable" t dx=0 dy=0 dh=-26 dv=0 dx=0 dy=0 dh=0 dv=0
PairPos2: "'kern' Horizontal Kerning in Latin lookup 1 subtable" t dx=0 dy=0 dh=-26 dv=0 dx=0 dy=0 dh=0 dv=0
PairPos2: "'kern' Horizontal Kerning in Latin lookup 1 subtable" t dx=0 dy=0 dh=-26 dv=0 dx=0 dy=0 dh=0 dv=0
PairPos2: "'kern' Horizontal Kerning in Latin lookup 1 subtable" t dx=0 dy=0 dh=-26 dv=0 dx=0 dy=0 dh=0 dv=0
PairPos2: "'kern' Horizontal Kerning in Latin lookup 1 subtable" s dx=0 dy=0 dh=-27 dv=0 dx=0 dy=0 dh=0 dv=0
PairPos2: "'kern' Horizontal Kerning in Latin lookup 1 subtable" s dx=0 dy=0 dh=-27 dv=0 dx=0 dy=0 dh=0 dv=0
PairPos2: "'kern' Horizontal Kerning in Latin lookup 1 subtable" s dx=0 dy=0 dh=-27 dv=0 dx=0 dy=0 dh=0 dv=0
PairPos2: "'kern' Horizontal Kerning in Latin lookup 1 subtable" s dx=0 dy=0 dh=-27 dv=0 dx=0 dy=0 dh=0 dv=0
PairPos2: "'kern' Horizontal Kerning in Latin lookup 1 subtable" s dx=0 dy=0 dh=-27 dv=0 dx=0 dy=0 dh=0 dv=0
PairPos2: "'kern' Horizontal Kerning in Latin lookup 1 subtable" p dx=0 dy=0 dh=-22 dv=0 dx=0 dy=0 dh=0 dv=0
PairPos2: "'kern' Horizontal Kerning in Latin lookup 1 subtable" p dx=0 dy=0 dh=-22 dv=0 dx=0 dy=0 dh=0 dv=0
PairPos2: "'kern' Horizontal Kerning in Latin lookup 1 subtable" p dx=0 dy=0 dh=-22 dv=0 dx=0 dy=0 dh=0 dv=0
PairPos2: "'kern' Horizontal Kerning in Latin lookup 1 subtable" p dx=0 dy=0 dh=-22 dv=0 dx=0 dy=0 dh=0 dv=0
PairPos2: "'kern' Horizontal Kerning in Latin lookup 1 subtable" p dx=0 dy=0 dh=-22 dv=0 dx=0 dy=0 dh=0 dv=0
PairPos2: "'kern' Horizontal Kerning in Latin lookup 1 subtable" o dx=0 dy=0 dh=-35 dv=0 dx=0 dy=0 dh=0 dv=0
PairPos2: "'kern' Horizontal Kerning in Latin lookup 1 subtable" o dx=0 dy=0 dh=-35 dv=0 dx=0 dy=0 dh=0 dv=0
PairPos2: "'kern' Horizontal Kerning in Latin lookup 1 subtable" o dx=0 dy=0 dh=-35 dv=0 dx=0 dy=0 dh=0 dv=0
PairPos2: "'kern' Horizontal Kerning in Latin lookup 1 subtable" o dx=0 dy=0 dh=-35 dv=0 dx=0 dy=0 dh=0 dv=0
PairPos2: "'kern' Horizontal Kerning in Latin lookup 1 subtable" o dx=0 dy=0 dh=-35 dv=0 dx=0 dy=0 dh=0 dv=0
PairPos2: "'kern' Horizontal Kerning in Latin lookup 1 subtable" g dx=0 dy=0 dh=-35 dv=0 dx=0 dy=0 dh=0 dv=0
PairPos2: "'kern' Horizontal Kerning in Latin lookup 1 subtable" g dx=0 dy=0 dh=-35 dv=0 dx=0 dy=0 dh=0 dv=0
PairPos2: "'kern' Horizontal Kerning in Latin lookup 1 subtable" g dx=0 dy=0 dh=-35 dv=0 dx=0 dy=0 dh=0 dv=0
PairPos2: "'kern' Horizontal Kerning in Latin lookup 1 subtable" g dx=0 dy=0 dh=-35 dv=0 dx=0 dy=0 dh=0 dv=0
PairPos2: "'kern' Horizontal Kerning in Latin lookup 1 subtable" g dx=0 dy=0 dh=-35 dv=0 dx=0 dy=0 dh=0 dv=0
PairPos2: "'kern' Horizontal Kerning in Latin lookup 1 subtable" e dx=0 dy=0 dh=-34 dv=0 dx=0 dy=0 dh=0 dv=0
PairPos2: "'kern' Horizontal Kerning in Latin lookup 1 subtable" e dx=0 dy=0 dh=-34 dv=0 dx=0 dy=0 dh=0 dv=0
PairPos2: "'kern' Horizontal Kerning in Latin lookup 1 subtable" e dx=0 dy=0 dh=-34 dv=0 dx=0 dy=0 dh=0 dv=0
PairPos2: "'kern' Horizontal Kerning in Latin lookup 1 subtable" e dx=0 dy=0 dh=-34 dv=0 dx=0 dy=0 dh=0 dv=0
PairPos2: "'kern' Horizontal Kerning in Latin lookup 1 subtable" e dx=0 dy=0 dh=-34 dv=0 dx=0 dy=0 dh=0 dv=0
PairPos2: "'kern' Horizontal Kerning in Latin lookup 1 subtable" d dx=0 dy=0 dh=-30 dv=0 dx=0 dy=0 dh=0 dv=0
PairPos2: "'kern' Horizontal Kerning in Latin lookup 1 subtable" d dx=0 dy=0 dh=-30 dv=0 dx=0 dy=0 dh=0 dv=0
PairPos2: "'kern' Horizontal Kerning in Latin lookup 1 subtable" d dx=0 dy=0 dh=-30 dv=0 dx=0 dy=0 dh=0 dv=0
PairPos2: "'kern' Horizontal Kerning in Latin lookup 1 subtable" d dx=0 dy=0 dh=-30 dv=0 dx=0 dy=0 dh=0 dv=0
PairPos2: "'kern' Horizontal Kerning in Latin lookup 1 subtable" d dx=0 dy=0 dh=-30 dv=0 dx=0 dy=0 dh=0 dv=0
PairPos2: "'kern' Horizontal Kerning in Latin lookup 1 subtable" c dx=0 dy=0 dh=-34 dv=0 dx=0 dy=0 dh=0 dv=0
PairPos2: "'kern' Horizontal Kerning in Latin lookup 1 subtable" c dx=0 dy=0 dh=-34 dv=0 dx=0 dy=0 dh=0 dv=0
PairPos2: "'kern' Horizontal Kerning in Latin lookup 1 subtable" c dx=0 dy=0 dh=-34 dv=0 dx=0 dy=0 dh=0 dv=0
PairPos2: "'kern' Horizontal Kerning in Latin lookup 1 subtable" c dx=0 dy=0 dh=-34 dv=0 dx=0 dy=0 dh=0 dv=0
PairPos2: "'kern' Horizontal Kerning in Latin lookup 1 subtable" c dx=0 dy=0 dh=-34 dv=0 dx=0 dy=0 dh=0 dv=0
PairPos2: "'kern' Horizontal Kerning in Latin lookup 1 subtable" b dx=0 dy=0 dh=30 dv=0 dx=0 dy=0 dh=0 dv=0
PairPos2: "'kern' Horizontal Kerning in Latin lookup 1 subtable" b dx=0 dy=0 dh=30 dv=0 dx=0 dy=0 dh=0 dv=0
PairPos2: "'kern' Horizontal Kerning in Latin lookup 1 subtable" b dx=0 dy=0 dh=30 dv=0 dx=0 dy=0 dh=0 dv=0
PairPos2: "'kern' Horizontal Kerning in Latin lookup 1 subtable" b dx=0 dy=0 dh=30 dv=0 dx=0 dy=0 dh=0 dv=0
PairPos2: "'kern' Horizontal Kerning in Latin lookup 1 subtable" b dx=0 dy=0 dh=30 dv=0 dx=0 dy=0 dh=0 dv=0
PairPos2: "'kern' Horizontal Kerning in Latin lookup 1 subtable" a dx=0 dy=0 dh=-34 dv=0 dx=0 dy=0 dh=0 dv=0
PairPos2: "'kern' Horizontal Kerning in Latin lookup 1 subtable" a dx=0 dy=0 dh=-34 dv=0 dx=0 dy=0 dh=0 dv=0
PairPos2: "'kern' Horizontal Kerning in Latin lookup 1 subtable" a dx=0 dy=0 dh=-34 dv=0 dx=0 dy=0 dh=0 dv=0
PairPos2: "'kern' Horizontal Kerning in Latin lookup 1 subtable" a dx=0 dy=0 dh=-34 dv=0 dx=0 dy=0 dh=0 dv=0
PairPos2: "'kern' Horizontal Kerning in Latin lookup 1 subtable" a dx=0 dy=0 dh=-34 dv=0 dx=0 dy=0 dh=0 dv=0
PairPos2: "'kern' Horizontal Kerning in Latin lookup 1 subtable" Y dx=0 dy=0 dh=49 dv=0 dx=0 dy=0 dh=0 dv=0
PairPos2: "'kern' Horizontal Kerning in Latin lookup 1 subtable" Y dx=0 dy=0 dh=49 dv=0 dx=0 dy=0 dh=0 dv=0
PairPos2: "'kern' Horizontal Kerning in Latin lookup 1 subtable" Y dx=0 dy=0 dh=49 dv=0 dx=0 dy=0 dh=0 dv=0
PairPos2: "'kern' Horizontal Kerning in Latin lookup 1 subtable" Y dx=0 dy=0 dh=49 dv=0 dx=0 dy=0 dh=0 dv=0
PairPos2: "'kern' Horizontal Kerning in Latin lookup 1 subtable" Y dx=0 dy=0 dh=49 dv=0 dx=0 dy=0 dh=0 dv=0
PairPos2: "'kern' Horizontal Kerning in Latin lookup 1 subtable" W dx=0 dy=0 dh=40 dv=0 dx=0 dy=0 dh=0 dv=0
PairPos2: "'kern' Horizontal Kerning in Latin lookup 1 subtable" W dx=0 dy=0 dh=40 dv=0 dx=0 dy=0 dh=0 dv=0
PairPos2: "'kern' Horizontal Kerning in Latin lookup 1 subtable" W dx=0 dy=0 dh=40 dv=0 dx=0 dy=0 dh=0 dv=0
PairPos2: "'kern' Horizontal Kerning in Latin lookup 1 subtable" W dx=0 dy=0 dh=40 dv=0 dx=0 dy=0 dh=0 dv=0
PairPos2: "'kern' Horizontal Kerning in Latin lookup 1 subtable" W dx=0 dy=0 dh=40 dv=0 dx=0 dy=0 dh=0 dv=0
PairPos2: "'kern' Horizontal Kerning in Latin lookup 1 subtable" V dx=0 dy=0 dh=49 dv=0 dx=0 dy=0 dh=0 dv=0
PairPos2: "'kern' Horizontal Kerning in Latin lookup 1 subtable" V dx=0 dy=0 dh=49 dv=0 dx=0 dy=0 dh=0 dv=0
PairPos2: "'kern' Horizontal Kerning in Latin lookup 1 subtable" V dx=0 dy=0 dh=49 dv=0 dx=0 dy=0 dh=0 dv=0
PairPos2: "'kern' Horizontal Kerning in Latin lookup 1 subtable" V dx=0 dy=0 dh=49 dv=0 dx=0 dy=0 dh=0 dv=0
PairPos2: "'kern' Horizontal Kerning in Latin lookup 1 subtable" V dx=0 dy=0 dh=49 dv=0 dx=0 dy=0 dh=0 dv=0
PairPos2: "'kern' Horizontal Kerning in Latin lookup 1 subtable" Q dx=0 dy=0 dh=-26 dv=0 dx=0 dy=0 dh=0 dv=0
PairPos2: "'kern' Horizontal Kerning in Latin lookup 1 subtable" Q dx=0 dy=0 dh=-26 dv=0 dx=0 dy=0 dh=0 dv=0
PairPos2: "'kern' Horizontal Kerning in Latin lookup 1 subtable" Q dx=0 dy=0 dh=-26 dv=0 dx=0 dy=0 dh=0 dv=0
PairPos2: "'kern' Horizontal Kerning in Latin lookup 1 subtable" Q dx=0 dy=0 dh=-26 dv=0 dx=0 dy=0 dh=0 dv=0
PairPos2: "'kern' Horizontal Kerning in Latin lookup 1 subtable" Q dx=0 dy=0 dh=-26 dv=0 dx=0 dy=0 dh=0 dv=0
PairPos2: "'kern' Horizontal Kerning in Latin lookup 1 subtable" O dx=0 dy=0 dh=-24 dv=0 dx=0 dy=0 dh=0 dv=0
PairPos2: "'kern' Horizontal Kerning in Latin lookup 1 subtable" O dx=0 dy=0 dh=-24 dv=0 dx=0 dy=0 dh=0 dv=0
PairPos2: "'kern' Horizontal Kerning in Latin lookup 1 subtable" O dx=0 dy=0 dh=-24 dv=0 dx=0 dy=0 dh=0 dv=0
PairPos2: "'kern' Horizontal Kerning in Latin lookup 1 subtable" O dx=0 dy=0 dh=-24 dv=0 dx=0 dy=0 dh=0 dv=0
PairPos2: "'kern' Horizontal Kerning in Latin lookup 1 subtable" O dx=0 dy=0 dh=-24 dv=0 dx=0 dy=0 dh=0 dv=0
PairPos2: "'kern' Horizontal Kerning in Latin lookup 1 subtable" G dx=0 dy=0 dh=-26 dv=0 dx=0 dy=0 dh=0 dv=0
PairPos2: "'kern' Horizontal Kerning in Latin lookup 1 subtable" G dx=0 dy=0 dh=-26 dv=0 dx=0 dy=0 dh=0 dv=0
PairPos2: "'kern' Horizontal Kerning in Latin lookup 1 subtable" G dx=0 dy=0 dh=-26 dv=0 dx=0 dy=0 dh=0 dv=0
PairPos2: "'kern' Horizontal Kerning in Latin lookup 1 subtable" G dx=0 dy=0 dh=-26 dv=0 dx=0 dy=0 dh=0 dv=0
PairPos2: "'kern' Horizontal Kerning in Latin lookup 1 subtable" G dx=0 dy=0 dh=-26 dv=0 dx=0 dy=0 dh=0 dv=0
PairPos2: "'kern' Horizontal Kerning in Latin lookup 1 subtable" C dx=0 dy=0 dh=-26 dv=0 dx=0 dy=0 dh=0 dv=0
PairPos2: "'kern' Horizontal Kerning in Latin lookup 1 subtable" C dx=0 dy=0 dh=-26 dv=0 dx=0 dy=0 dh=0 dv=0
PairPos2: "'kern' Horizontal Kerning in Latin lookup 1 subtable" C dx=0 dy=0 dh=-26 dv=0 dx=0 dy=0 dh=0 dv=0
PairPos2: "'kern' Horizontal Kerning in Latin lookup 1 subtable" C dx=0 dy=0 dh=-26 dv=0 dx=0 dy=0 dh=0 dv=0
PairPos2: "'kern' Horizontal Kerning in Latin lookup 1 subtable" C dx=0 dy=0 dh=-26 dv=0 dx=0 dy=0 dh=0 dv=0
PairPos2: "'kern' Horizontal Kerning in Latin lookup 1 subtable" six dx=0 dy=0 dh=-31 dv=0 dx=0 dy=0 dh=0 dv=0
PairPos2: "'kern' Horizontal Kerning in Latin lookup 1 subtable" six dx=0 dy=0 dh=-31 dv=0 dx=0 dy=0 dh=0 dv=0
PairPos2: "'kern' Horizontal Kerning in Latin lookup 1 subtable" six dx=0 dy=0 dh=-31 dv=0 dx=0 dy=0 dh=0 dv=0
PairPos2: "'kern' Horizontal Kerning in Latin lookup 1 subtable" six dx=0 dy=0 dh=-31 dv=0 dx=0 dy=0 dh=0 dv=0
PairPos2: "'kern' Horizontal Kerning in Latin lookup 1 subtable" six dx=0 dy=0 dh=-31 dv=0 dx=0 dy=0 dh=0 dv=0
PairPos2: "'kern' Horizontal Kerning in Latin lookup 1 subtable" four dx=0 dy=0 dh=-30 dv=0 dx=0 dy=0 dh=0 dv=0
PairPos2: "'kern' Horizontal Kerning in Latin lookup 1 subtable" four dx=0 dy=0 dh=-30 dv=0 dx=0 dy=0 dh=0 dv=0
PairPos2: "'kern' Horizontal Kerning in Latin lookup 1 subtable" four dx=0 dy=0 dh=-30 dv=0 dx=0 dy=0 dh=0 dv=0
PairPos2: "'kern' Horizontal Kerning in Latin lookup 1 subtable" four dx=0 dy=0 dh=-30 dv=0 dx=0 dy=0 dh=0 dv=0
PairPos2: "'kern' Horizontal Kerning in Latin lookup 1 subtable" four dx=0 dy=0 dh=-30 dv=0 dx=0 dy=0 dh=0 dv=0
PairPos2: "'kern' Horizontal Kerning in Latin lookup 1 subtable" zero dx=0 dy=0 dh=-22 dv=0 dx=0 dy=0 dh=0 dv=0
PairPos2: "'kern' Horizontal Kerning in Latin lookup 1 subtable" zero dx=0 dy=0 dh=-22 dv=0 dx=0 dy=0 dh=0 dv=0
PairPos2: "'kern' Horizontal Kerning in Latin lookup 1 subtable" zero dx=0 dy=0 dh=-22 dv=0 dx=0 dy=0 dh=0 dv=0
PairPos2: "'kern' Horizontal Kerning in Latin lookup 1 subtable" zero dx=0 dy=0 dh=-22 dv=0 dx=0 dy=0 dh=0 dv=0
PairPos2: "'kern' Horizontal Kerning in Latin lookup 1 subtable" zero dx=0 dy=0 dh=-22 dv=0 dx=0 dy=0 dh=0 dv=0
EndChar

StartChar: parenright
Encoding: 41 41 12
Width: 485
GlyphClass: 2
Flags: W
LayerCount: 2
Fore
SplineSet
-24 -318 m 1,0,1
 53 -216 53 -216 102 -134 c 0,2,3
 332 251 332 251 344 687 c 0,4,5
 345 703 345 703 345 735 c 0,6,7
 345 999 345 999 229 1191 c 1,8,-1
 289 1257 l 1,9,-1
 296 1250 l 2,10,11
 335 1212 335 1212 367 1171 c 0,12,13
 411 1115 411 1115 450 1029 c 1,14,15
 489 940 489 940 508 806 c 1,16,17
 517 732 517 732 517 658 c 0,18,19
 517 536 517 536 494 412.5 c 128,-1,20
 471 289 471 289 433 190 c 0,21,22
 399 101 399 101 348.5 10.5 c 128,-1,23
 298 -80 298 -80 250 -144 c 0,24,25
 209 -199 209 -199 159 -254 c 128,-1,26
 109 -309 109 -309 81 -335 c 0,27,28
 75 -341 75 -341 36 -376 c 1,29,-1
 -24 -318 l 1,0,1
EndSplineSet
EndChar

StartChar: asterisk
Encoding: 42 42 13
Width: 850
GlyphClass: 2
Flags: W
LayerCount: 2
Fore
SplineSet
804 693 m 1,0,-1
 684 624 l 1,1,-1
 536 872 l 1,2,-1
 587 923 l 1,3,-1
 804 693 l 1,0,-1
376 594 m 1,4,-1
 274 687 l 1,5,-1
 464 905 l 1,6,-1
 529 872 l 1,7,-1
 376 594 l 1,4,-1
156 966 m 1,8,-1
 209 1093 l 1,9,-1
 476 979 l 1,10,-1
 464 908 l 1,11,-1
 156 966 l 1,8,-1
441 1295 m 1,12,-1
 577 1282 l 1,13,-1
 551 994 l 1,14,-1
 481 983 l 1,15,-1
 441 1295 l 1,12,-1
840 1125 m 1,16,-1
 869 991 l 1,17,-1
 586 926 l 1,18,-1
 553 991 l 1,19,-1
 840 1125 l 1,16,-1
EndSplineSet
EndChar

StartChar: plus
Encoding: 43 43 14
Width: 689
GlyphClass: 2
Flags: W
LayerCount: 2
Fore
SplineSet
466 410 m 1,0,-1
 429 174 l 1,1,-1
 320 185 l 1,2,-1
 356 410 l 1,3,-1
 135 410 l 1,4,-1
 161 511 l 1,5,-1
 371 511 l 1,6,-1
 408 743 l 1,7,-1
 514 731 l 1,8,-1
 481 511 l 1,9,-1
 701 511 l 1,10,-1
 674 410 l 1,11,-1
 466 410 l 1,0,-1
EndSplineSet
EndChar

StartChar: comma
Encoding: 44 44 15
Width: 447
GlyphClass: 2
Flags: W
LayerCount: 2
Fore
SplineSet
25 -245 m 1,0,1
 118 -221 118 -221 176.5 -167.5 c 128,-1,2
 235 -114 235 -114 235 -61 c 0,3,4
 235 -16 235 -16 209 10 c 128,-1,5
 183 36 183 36 134 36 c 0,6,7
 129 36 129 36 104 30 c 1,8,9
 97 61 97 61 98 84 c 1,10,11
 98 138 98 138 145 178 c 128,-1,12
 192 218 192 218 240 218 c 0,13,14
 298 218 298 218 340 183 c 1,15,16
 389 140 389 140 389 31 c 0,17,18
 389 -38 389 -38 343 -111 c 0,19,20
 287 -202 287 -202 178 -261 c 1,21,22
 113 -295 113 -295 36 -314 c 1,23,-1
 25 -245 l 1,0,1
EndSplineSet
EndChar

StartChar: hyphen
Encoding: 45 45 16
Width: 604
GlyphClass: 2
Flags: W
LayerCount: 2
Fore
SplineSet
176 500 m 1,0,-1
 585 518 l 1,1,-1
 573 417 l 1,2,-1
 165 399 l 1,3,-1
 176 500 l 1,0,-1
EndSplineSet
EndChar

StartChar: period
Encoding: 46 46 17
Width: 404
GlyphClass: 2
Flags: W
LayerCount: 2
Fore
SplineSet
240 213 m 0,0,1
 285 213 285 213 313.5 181.5 c 128,-1,2
 342 150 342 150 342 106 c 0,3,4
 342 46 342 46 303 6.5 c 128,-1,5
 264 -33 264 -33 205 -33 c 0,6,7
 165 -33 165 -33 132 1 c 128,-1,8
 99 35 99 35 99 73 c 0,9,10
 99 133 99 133 139.5 173 c 128,-1,11
 180 213 180 213 240 213 c 0,0,1
EndSplineSet
PairPos2: "'kern' Horizontal Kerning in Latin lookup 1 subtable" nine.osf dx=0 dy=0 dh=-36 dv=0 dx=0 dy=0 dh=0 dv=0
PairPos2: "'kern' Horizontal Kerning in Latin lookup 1 subtable" nine.osf dx=0 dy=0 dh=-36 dv=0 dx=0 dy=0 dh=0 dv=0
PairPos2: "'kern' Horizontal Kerning in Latin lookup 1 subtable" nine.osf dx=0 dy=0 dh=-36 dv=0 dx=0 dy=0 dh=0 dv=0
PairPos2: "'kern' Horizontal Kerning in Latin lookup 1 subtable" nine.osf dx=0 dy=0 dh=-36 dv=0 dx=0 dy=0 dh=0 dv=0
PairPos2: "'kern' Horizontal Kerning in Latin lookup 1 subtable" nine.osf dx=0 dy=0 dh=-36 dv=0 dx=0 dy=0 dh=0 dv=0
PairPos2: "'kern' Horizontal Kerning in Latin lookup 1 subtable" quotedblright dx=0 dy=0 dh=-194 dv=0 dx=0 dy=0 dh=0 dv=0
PairPos2: "'kern' Horizontal Kerning in Latin lookup 1 subtable" quotedblright dx=0 dy=0 dh=-194 dv=0 dx=0 dy=0 dh=0 dv=0
PairPos2: "'kern' Horizontal Kerning in Latin lookup 1 subtable" quotedblright dx=0 dy=0 dh=-194 dv=0 dx=0 dy=0 dh=0 dv=0
PairPos2: "'kern' Horizontal Kerning in Latin lookup 1 subtable" quotedblright dx=0 dy=0 dh=-194 dv=0 dx=0 dy=0 dh=0 dv=0
PairPos2: "'kern' Horizontal Kerning in Latin lookup 1 subtable" quotedblright dx=0 dy=0 dh=-194 dv=0 dx=0 dy=0 dh=0 dv=0
PairPos2: "'kern' Horizontal Kerning in Latin lookup 1 subtable" quotedblleft dx=0 dy=0 dh=-216 dv=0 dx=0 dy=0 dh=0 dv=0
PairPos2: "'kern' Horizontal Kerning in Latin lookup 1 subtable" quotedblleft dx=0 dy=0 dh=-216 dv=0 dx=0 dy=0 dh=0 dv=0
PairPos2: "'kern' Horizontal Kerning in Latin lookup 1 subtable" quotedblleft dx=0 dy=0 dh=-216 dv=0 dx=0 dy=0 dh=0 dv=0
PairPos2: "'kern' Horizontal Kerning in Latin lookup 1 subtable" quotedblleft dx=0 dy=0 dh=-216 dv=0 dx=0 dy=0 dh=0 dv=0
PairPos2: "'kern' Horizontal Kerning in Latin lookup 1 subtable" quotedblleft dx=0 dy=0 dh=-216 dv=0 dx=0 dy=0 dh=0 dv=0
PairPos2: "'kern' Horizontal Kerning in Latin lookup 1 subtable" quotereversed dx=0 dy=0 dh=-242 dv=0 dx=0 dy=0 dh=0 dv=0
PairPos2: "'kern' Horizontal Kerning in Latin lookup 1 subtable" quotereversed dx=0 dy=0 dh=-242 dv=0 dx=0 dy=0 dh=0 dv=0
PairPos2: "'kern' Horizontal Kerning in Latin lookup 1 subtable" quotereversed dx=0 dy=0 dh=-242 dv=0 dx=0 dy=0 dh=0 dv=0
PairPos2: "'kern' Horizontal Kerning in Latin lookup 1 subtable" quotereversed dx=0 dy=0 dh=-242 dv=0 dx=0 dy=0 dh=0 dv=0
PairPos2: "'kern' Horizontal Kerning in Latin lookup 1 subtable" quotereversed dx=0 dy=0 dh=-242 dv=0 dx=0 dy=0 dh=0 dv=0
PairPos2: "'kern' Horizontal Kerning in Latin lookup 1 subtable" eth dx=0 dy=0 dh=-13 dv=0 dx=0 dy=0 dh=0 dv=0
PairPos2: "'kern' Horizontal Kerning in Latin lookup 1 subtable" eth dx=0 dy=0 dh=-13 dv=0 dx=0 dy=0 dh=0 dv=0
PairPos2: "'kern' Horizontal Kerning in Latin lookup 1 subtable" eth dx=0 dy=0 dh=-13 dv=0 dx=0 dy=0 dh=0 dv=0
PairPos2: "'kern' Horizontal Kerning in Latin lookup 1 subtable" eth dx=0 dy=0 dh=-13 dv=0 dx=0 dy=0 dh=0 dv=0
PairPos2: "'kern' Horizontal Kerning in Latin lookup 1 subtable" eth dx=0 dy=0 dh=-13 dv=0 dx=0 dy=0 dh=0 dv=0
PairPos2: "'kern' Horizontal Kerning in Latin lookup 1 subtable" AE dx=0 dy=0 dh=21 dv=0 dx=0 dy=0 dh=0 dv=0
PairPos2: "'kern' Horizontal Kerning in Latin lookup 1 subtable" AE dx=0 dy=0 dh=21 dv=0 dx=0 dy=0 dh=0 dv=0
PairPos2: "'kern' Horizontal Kerning in Latin lookup 1 subtable" AE dx=0 dy=0 dh=21 dv=0 dx=0 dy=0 dh=0 dv=0
PairPos2: "'kern' Horizontal Kerning in Latin lookup 1 subtable" AE dx=0 dy=0 dh=21 dv=0 dx=0 dy=0 dh=0 dv=0
PairPos2: "'kern' Horizontal Kerning in Latin lookup 1 subtable" AE dx=0 dy=0 dh=21 dv=0 dx=0 dy=0 dh=0 dv=0
PairPos2: "'kern' Horizontal Kerning in Latin lookup 1 subtable" y dx=0 dy=0 dh=-48 dv=0 dx=0 dy=0 dh=0 dv=0
PairPos2: "'kern' Horizontal Kerning in Latin lookup 1 subtable" y dx=0 dy=0 dh=-48 dv=0 dx=0 dy=0 dh=0 dv=0
PairPos2: "'kern' Horizontal Kerning in Latin lookup 1 subtable" y dx=0 dy=0 dh=-48 dv=0 dx=0 dy=0 dh=0 dv=0
PairPos2: "'kern' Horizontal Kerning in Latin lookup 1 subtable" y dx=0 dy=0 dh=-48 dv=0 dx=0 dy=0 dh=0 dv=0
PairPos2: "'kern' Horizontal Kerning in Latin lookup 1 subtable" y dx=0 dy=0 dh=-48 dv=0 dx=0 dy=0 dh=0 dv=0
PairPos2: "'kern' Horizontal Kerning in Latin lookup 1 subtable" w dx=0 dy=0 dh=-40 dv=0 dx=0 dy=0 dh=0 dv=0
PairPos2: "'kern' Horizontal Kerning in Latin lookup 1 subtable" w dx=0 dy=0 dh=-40 dv=0 dx=0 dy=0 dh=0 dv=0
PairPos2: "'kern' Horizontal Kerning in Latin lookup 1 subtable" w dx=0 dy=0 dh=-40 dv=0 dx=0 dy=0 dh=0 dv=0
PairPos2: "'kern' Horizontal Kerning in Latin lookup 1 subtable" w dx=0 dy=0 dh=-40 dv=0 dx=0 dy=0 dh=0 dv=0
PairPos2: "'kern' Horizontal Kerning in Latin lookup 1 subtable" w dx=0 dy=0 dh=-40 dv=0 dx=0 dy=0 dh=0 dv=0
PairPos2: "'kern' Horizontal Kerning in Latin lookup 1 subtable" v dx=0 dy=0 dh=-45 dv=0 dx=0 dy=0 dh=0 dv=0
PairPos2: "'kern' Horizontal Kerning in Latin lookup 1 subtable" v dx=0 dy=0 dh=-45 dv=0 dx=0 dy=0 dh=0 dv=0
PairPos2: "'kern' Horizontal Kerning in Latin lookup 1 subtable" v dx=0 dy=0 dh=-45 dv=0 dx=0 dy=0 dh=0 dv=0
PairPos2: "'kern' Horizontal Kerning in Latin lookup 1 subtable" v dx=0 dy=0 dh=-45 dv=0 dx=0 dy=0 dh=0 dv=0
PairPos2: "'kern' Horizontal Kerning in Latin lookup 1 subtable" v dx=0 dy=0 dh=-45 dv=0 dx=0 dy=0 dh=0 dv=0
PairPos2: "'kern' Horizontal Kerning in Latin lookup 1 subtable" u dx=0 dy=0 dh=-14 dv=0 dx=0 dy=0 dh=0 dv=0
PairPos2: "'kern' Horizontal Kerning in Latin lookup 1 subtable" u dx=0 dy=0 dh=-14 dv=0 dx=0 dy=0 dh=0 dv=0
PairPos2: "'kern' Horizontal Kerning in Latin lookup 1 subtable" u dx=0 dy=0 dh=-14 dv=0 dx=0 dy=0 dh=0 dv=0
PairPos2: "'kern' Horizontal Kerning in Latin lookup 1 subtable" u dx=0 dy=0 dh=-14 dv=0 dx=0 dy=0 dh=0 dv=0
PairPos2: "'kern' Horizontal Kerning in Latin lookup 1 subtable" u dx=0 dy=0 dh=-14 dv=0 dx=0 dy=0 dh=0 dv=0
PairPos2: "'kern' Horizontal Kerning in Latin lookup 1 subtable" t dx=0 dy=0 dh=-16 dv=0 dx=0 dy=0 dh=0 dv=0
PairPos2: "'kern' Horizontal Kerning in Latin lookup 1 subtable" t dx=0 dy=0 dh=-16 dv=0 dx=0 dy=0 dh=0 dv=0
PairPos2: "'kern' Horizontal Kerning in Latin lookup 1 subtable" t dx=0 dy=0 dh=-16 dv=0 dx=0 dy=0 dh=0 dv=0
PairPos2: "'kern' Horizontal Kerning in Latin lookup 1 subtable" t dx=0 dy=0 dh=-16 dv=0 dx=0 dy=0 dh=0 dv=0
PairPos2: "'kern' Horizontal Kerning in Latin lookup 1 subtable" t dx=0 dy=0 dh=-16 dv=0 dx=0 dy=0 dh=0 dv=0
PairPos2: "'kern' Horizontal Kerning in Latin lookup 1 subtable" Y dx=0 dy=0 dh=-42 dv=0 dx=0 dy=0 dh=0 dv=0
PairPos2: "'kern' Horizontal Kerning in Latin lookup 1 subtable" Y dx=0 dy=0 dh=-42 dv=0 dx=0 dy=0 dh=0 dv=0
PairPos2: "'kern' Horizontal Kerning in Latin lookup 1 subtable" Y dx=0 dy=0 dh=-42 dv=0 dx=0 dy=0 dh=0 dv=0
PairPos2: "'kern' Horizontal Kerning in Latin lookup 1 subtable" Y dx=0 dy=0 dh=-42 dv=0 dx=0 dy=0 dh=0 dv=0
PairPos2: "'kern' Horizontal Kerning in Latin lookup 1 subtable" Y dx=0 dy=0 dh=-42 dv=0 dx=0 dy=0 dh=0 dv=0
PairPos2: "'kern' Horizontal Kerning in Latin lookup 1 subtable" W dx=0 dy=0 dh=-61 dv=0 dx=0 dy=0 dh=0 dv=0
PairPos2: "'kern' Horizontal Kerning in Latin lookup 1 subtable" W dx=0 dy=0 dh=-61 dv=0 dx=0 dy=0 dh=0 dv=0
PairPos2: "'kern' Horizontal Kerning in Latin lookup 1 subtable" W dx=0 dy=0 dh=-61 dv=0 dx=0 dy=0 dh=0 dv=0
PairPos2: "'kern' Horizontal Kerning in Latin lookup 1 subtable" W dx=0 dy=0 dh=-61 dv=0 dx=0 dy=0 dh=0 dv=0
PairPos2: "'kern' Horizontal Kerning in Latin lookup 1 subtable" W dx=0 dy=0 dh=-61 dv=0 dx=0 dy=0 dh=0 dv=0
PairPos2: "'kern' Horizontal Kerning in Latin lookup 1 subtable" V dx=0 dy=0 dh=-79 dv=0 dx=0 dy=0 dh=0 dv=0
PairPos2: "'kern' Horizontal Kerning in Latin lookup 1 subtable" V dx=0 dy=0 dh=-79 dv=0 dx=0 dy=0 dh=0 dv=0
PairPos2: "'kern' Horizontal Kerning in Latin lookup 1 subtable" V dx=0 dy=0 dh=-79 dv=0 dx=0 dy=0 dh=0 dv=0
PairPos2: "'kern' Horizontal Kerning in Latin lookup 1 subtable" V dx=0 dy=0 dh=-79 dv=0 dx=0 dy=0 dh=0 dv=0
PairPos2: "'kern' Horizontal Kerning in Latin lookup 1 subtable" V dx=0 dy=0 dh=-79 dv=0 dx=0 dy=0 dh=0 dv=0
PairPos2: "'kern' Horizontal Kerning in Latin lookup 1 subtable" U dx=0 dy=0 dh=-41 dv=0 dx=0 dy=0 dh=0 dv=0
PairPos2: "'kern' Horizontal Kerning in Latin lookup 1 subtable" U dx=0 dy=0 dh=-41 dv=0 dx=0 dy=0 dh=0 dv=0
PairPos2: "'kern' Horizontal Kerning in Latin lookup 1 subtable" U dx=0 dy=0 dh=-41 dv=0 dx=0 dy=0 dh=0 dv=0
PairPos2: "'kern' Horizontal Kerning in Latin lookup 1 subtable" U dx=0 dy=0 dh=-41 dv=0 dx=0 dy=0 dh=0 dv=0
PairPos2: "'kern' Horizontal Kerning in Latin lookup 1 subtable" U dx=0 dy=0 dh=-41 dv=0 dx=0 dy=0 dh=0 dv=0
PairPos2: "'kern' Horizontal Kerning in Latin lookup 1 subtable" T dx=0 dy=0 dh=-44 dv=0 dx=0 dy=0 dh=0 dv=0
PairPos2: "'kern' Horizontal Kerning in Latin lookup 1 subtable" T dx=0 dy=0 dh=-44 dv=0 dx=0 dy=0 dh=0 dv=0
PairPos2: "'kern' Horizontal Kerning in Latin lookup 1 subtable" T dx=0 dy=0 dh=-44 dv=0 dx=0 dy=0 dh=0 dv=0
PairPos2: "'kern' Horizontal Kerning in Latin lookup 1 subtable" T dx=0 dy=0 dh=-44 dv=0 dx=0 dy=0 dh=0 dv=0
PairPos2: "'kern' Horizontal Kerning in Latin lookup 1 subtable" T dx=0 dy=0 dh=-44 dv=0 dx=0 dy=0 dh=0 dv=0
PairPos2: "'kern' Horizontal Kerning in Latin lookup 1 subtable" Q dx=0 dy=0 dh=-23 dv=0 dx=0 dy=0 dh=0 dv=0
PairPos2: "'kern' Horizontal Kerning in Latin lookup 1 subtable" Q dx=0 dy=0 dh=-23 dv=0 dx=0 dy=0 dh=0 dv=0
PairPos2: "'kern' Horizontal Kerning in Latin lookup 1 subtable" Q dx=0 dy=0 dh=-23 dv=0 dx=0 dy=0 dh=0 dv=0
PairPos2: "'kern' Horizontal Kerning in Latin lookup 1 subtable" Q dx=0 dy=0 dh=-23 dv=0 dx=0 dy=0 dh=0 dv=0
PairPos2: "'kern' Horizontal Kerning in Latin lookup 1 subtable" Q dx=0 dy=0 dh=-23 dv=0 dx=0 dy=0 dh=0 dv=0
PairPos2: "'kern' Horizontal Kerning in Latin lookup 1 subtable" O dx=0 dy=0 dh=-24 dv=0 dx=0 dy=0 dh=0 dv=0
PairPos2: "'kern' Horizontal Kerning in Latin lookup 1 subtable" O dx=0 dy=0 dh=-24 dv=0 dx=0 dy=0 dh=0 dv=0
PairPos2: "'kern' Horizontal Kerning in Latin lookup 1 subtable" O dx=0 dy=0 dh=-24 dv=0 dx=0 dy=0 dh=0 dv=0
PairPos2: "'kern' Horizontal Kerning in Latin lookup 1 subtable" O dx=0 dy=0 dh=-24 dv=0 dx=0 dy=0 dh=0 dv=0
PairPos2: "'kern' Horizontal Kerning in Latin lookup 1 subtable" O dx=0 dy=0 dh=-24 dv=0 dx=0 dy=0 dh=0 dv=0
PairPos2: "'kern' Horizontal Kerning in Latin lookup 1 subtable" G dx=0 dy=0 dh=-17 dv=0 dx=0 dy=0 dh=0 dv=0
PairPos2: "'kern' Horizontal Kerning in Latin lookup 1 subtable" G dx=0 dy=0 dh=-17 dv=0 dx=0 dy=0 dh=0 dv=0
PairPos2: "'kern' Horizontal Kerning in Latin lookup 1 subtable" G dx=0 dy=0 dh=-17 dv=0 dx=0 dy=0 dh=0 dv=0
PairPos2: "'kern' Horizontal Kerning in Latin lookup 1 subtable" G dx=0 dy=0 dh=-17 dv=0 dx=0 dy=0 dh=0 dv=0
PairPos2: "'kern' Horizontal Kerning in Latin lookup 1 subtable" G dx=0 dy=0 dh=-17 dv=0 dx=0 dy=0 dh=0 dv=0
PairPos2: "'kern' Horizontal Kerning in Latin lookup 1 subtable" C dx=0 dy=0 dh=-19 dv=0 dx=0 dy=0 dh=0 dv=0
PairPos2: "'kern' Horizontal Kerning in Latin lookup 1 subtable" C dx=0 dy=0 dh=-19 dv=0 dx=0 dy=0 dh=0 dv=0
PairPos2: "'kern' Horizontal Kerning in Latin lookup 1 subtable" C dx=0 dy=0 dh=-19 dv=0 dx=0 dy=0 dh=0 dv=0
PairPos2: "'kern' Horizontal Kerning in Latin lookup 1 subtable" C dx=0 dy=0 dh=-19 dv=0 dx=0 dy=0 dh=0 dv=0
PairPos2: "'kern' Horizontal Kerning in Latin lookup 1 subtable" C dx=0 dy=0 dh=-19 dv=0 dx=0 dy=0 dh=0 dv=0
PairPos2: "'kern' Horizontal Kerning in Latin lookup 1 subtable" seven dx=0 dy=0 dh=-50 dv=0 dx=0 dy=0 dh=0 dv=0
PairPos2: "'kern' Horizontal Kerning in Latin lookup 1 subtable" seven dx=0 dy=0 dh=-50 dv=0 dx=0 dy=0 dh=0 dv=0
PairPos2: "'kern' Horizontal Kerning in Latin lookup 1 subtable" seven dx=0 dy=0 dh=-50 dv=0 dx=0 dy=0 dh=0 dv=0
PairPos2: "'kern' Horizontal Kerning in Latin lookup 1 subtable" seven dx=0 dy=0 dh=-50 dv=0 dx=0 dy=0 dh=0 dv=0
PairPos2: "'kern' Horizontal Kerning in Latin lookup 1 subtable" seven dx=0 dy=0 dh=-50 dv=0 dx=0 dy=0 dh=0 dv=0
PairPos2: "'kern' Horizontal Kerning in Latin lookup 1 subtable" quotedbl dx=0 dy=0 dh=-239 dv=0 dx=0 dy=0 dh=0 dv=0
PairPos2: "'kern' Horizontal Kerning in Latin lookup 1 subtable" quotedbl dx=0 dy=0 dh=-239 dv=0 dx=0 dy=0 dh=0 dv=0
PairPos2: "'kern' Horizontal Kerning in Latin lookup 1 subtable" quotedbl dx=0 dy=0 dh=-239 dv=0 dx=0 dy=0 dh=0 dv=0
PairPos2: "'kern' Horizontal Kerning in Latin lookup 1 subtable" quotedbl dx=0 dy=0 dh=-239 dv=0 dx=0 dy=0 dh=0 dv=0
PairPos2: "'kern' Horizontal Kerning in Latin lookup 1 subtable" quotedbl dx=0 dy=0 dh=-239 dv=0 dx=0 dy=0 dh=0 dv=0
EndChar

StartChar: slash
Encoding: 47 47 18
Width: 516
GlyphClass: 2
Flags: W
LayerCount: 2
Fore
SplineSet
494 1237 m 1,0,-1
 626 1246 l 1,1,-1
 160 -356 l 1,2,-1
 31 -364 l 1,3,-1
 494 1237 l 1,0,-1
EndSplineSet
PairPos2: "'kern' Horizontal Kerning in Latin lookup 1 subtable" four.osf dx=0 dy=0 dh=-25 dv=0 dx=0 dy=0 dh=0 dv=0
PairPos2: "'kern' Horizontal Kerning in Latin lookup 1 subtable" four.osf dx=0 dy=0 dh=-25 dv=0 dx=0 dy=0 dh=0 dv=0
PairPos2: "'kern' Horizontal Kerning in Latin lookup 1 subtable" four.osf dx=0 dy=0 dh=-25 dv=0 dx=0 dy=0 dh=0 dv=0
PairPos2: "'kern' Horizontal Kerning in Latin lookup 1 subtable" four.osf dx=0 dy=0 dh=-25 dv=0 dx=0 dy=0 dh=0 dv=0
PairPos2: "'kern' Horizontal Kerning in Latin lookup 1 subtable" four.osf dx=0 dy=0 dh=-25 dv=0 dx=0 dy=0 dh=0 dv=0
PairPos2: "'kern' Horizontal Kerning in Latin lookup 1 subtable" o dx=0 dy=0 dh=-17 dv=0 dx=0 dy=0 dh=0 dv=0
PairPos2: "'kern' Horizontal Kerning in Latin lookup 1 subtable" o dx=0 dy=0 dh=-17 dv=0 dx=0 dy=0 dh=0 dv=0
PairPos2: "'kern' Horizontal Kerning in Latin lookup 1 subtable" o dx=0 dy=0 dh=-17 dv=0 dx=0 dy=0 dh=0 dv=0
PairPos2: "'kern' Horizontal Kerning in Latin lookup 1 subtable" o dx=0 dy=0 dh=-17 dv=0 dx=0 dy=0 dh=0 dv=0
PairPos2: "'kern' Horizontal Kerning in Latin lookup 1 subtable" o dx=0 dy=0 dh=-17 dv=0 dx=0 dy=0 dh=0 dv=0
PairPos2: "'kern' Horizontal Kerning in Latin lookup 1 subtable" g dx=0 dy=0 dh=-22 dv=0 dx=0 dy=0 dh=0 dv=0
PairPos2: "'kern' Horizontal Kerning in Latin lookup 1 subtable" g dx=0 dy=0 dh=-22 dv=0 dx=0 dy=0 dh=0 dv=0
PairPos2: "'kern' Horizontal Kerning in Latin lookup 1 subtable" g dx=0 dy=0 dh=-22 dv=0 dx=0 dy=0 dh=0 dv=0
PairPos2: "'kern' Horizontal Kerning in Latin lookup 1 subtable" g dx=0 dy=0 dh=-22 dv=0 dx=0 dy=0 dh=0 dv=0
PairPos2: "'kern' Horizontal Kerning in Latin lookup 1 subtable" g dx=0 dy=0 dh=-22 dv=0 dx=0 dy=0 dh=0 dv=0
PairPos2: "'kern' Horizontal Kerning in Latin lookup 1 subtable" e dx=0 dy=0 dh=-17 dv=0 dx=0 dy=0 dh=0 dv=0
PairPos2: "'kern' Horizontal Kerning in Latin lookup 1 subtable" e dx=0 dy=0 dh=-17 dv=0 dx=0 dy=0 dh=0 dv=0
PairPos2: "'kern' Horizontal Kerning in Latin lookup 1 subtable" e dx=0 dy=0 dh=-17 dv=0 dx=0 dy=0 dh=0 dv=0
PairPos2: "'kern' Horizontal Kerning in Latin lookup 1 subtable" e dx=0 dy=0 dh=-17 dv=0 dx=0 dy=0 dh=0 dv=0
PairPos2: "'kern' Horizontal Kerning in Latin lookup 1 subtable" e dx=0 dy=0 dh=-17 dv=0 dx=0 dy=0 dh=0 dv=0
PairPos2: "'kern' Horizontal Kerning in Latin lookup 1 subtable" c dx=0 dy=0 dh=-17 dv=0 dx=0 dy=0 dh=0 dv=0
PairPos2: "'kern' Horizontal Kerning in Latin lookup 1 subtable" c dx=0 dy=0 dh=-17 dv=0 dx=0 dy=0 dh=0 dv=0
PairPos2: "'kern' Horizontal Kerning in Latin lookup 1 subtable" c dx=0 dy=0 dh=-17 dv=0 dx=0 dy=0 dh=0 dv=0
PairPos2: "'kern' Horizontal Kerning in Latin lookup 1 subtable" c dx=0 dy=0 dh=-17 dv=0 dx=0 dy=0 dh=0 dv=0
PairPos2: "'kern' Horizontal Kerning in Latin lookup 1 subtable" c dx=0 dy=0 dh=-17 dv=0 dx=0 dy=0 dh=0 dv=0
PairPos2: "'kern' Horizontal Kerning in Latin lookup 1 subtable" a dx=0 dy=0 dh=-19 dv=0 dx=0 dy=0 dh=0 dv=0
PairPos2: "'kern' Horizontal Kerning in Latin lookup 1 subtable" a dx=0 dy=0 dh=-19 dv=0 dx=0 dy=0 dh=0 dv=0
PairPos2: "'kern' Horizontal Kerning in Latin lookup 1 subtable" a dx=0 dy=0 dh=-19 dv=0 dx=0 dy=0 dh=0 dv=0
PairPos2: "'kern' Horizontal Kerning in Latin lookup 1 subtable" a dx=0 dy=0 dh=-19 dv=0 dx=0 dy=0 dh=0 dv=0
PairPos2: "'kern' Horizontal Kerning in Latin lookup 1 subtable" a dx=0 dy=0 dh=-19 dv=0 dx=0 dy=0 dh=0 dv=0
PairPos2: "'kern' Horizontal Kerning in Latin lookup 1 subtable" slash dx=0 dy=0 dh=-26 dv=0 dx=0 dy=0 dh=0 dv=0
PairPos2: "'kern' Horizontal Kerning in Latin lookup 1 subtable" slash dx=0 dy=0 dh=-26 dv=0 dx=0 dy=0 dh=0 dv=0
PairPos2: "'kern' Horizontal Kerning in Latin lookup 1 subtable" slash dx=0 dy=0 dh=-26 dv=0 dx=0 dy=0 dh=0 dv=0
PairPos2: "'kern' Horizontal Kerning in Latin lookup 1 subtable" slash dx=0 dy=0 dh=-26 dv=0 dx=0 dy=0 dh=0 dv=0
PairPos2: "'kern' Horizontal Kerning in Latin lookup 1 subtable" slash dx=0 dy=0 dh=-26 dv=0 dx=0 dy=0 dh=0 dv=0
EndChar

StartChar: zero
Encoding: 48 48 19
Width: 1012
GlyphClass: 2
Flags: W
LayerCount: 2
Fore
SplineSet
341 412 m 0,0,1
 341 73 341 73 534 73 c 0,2,3
 676 73 676 73 756 207 c 0,4,5
 798 276 798 276 827 410 c 1,6,7
 853 550 853 550 854 735 c 0,8,9
 854 899 854 899 808 988 c 128,-1,10
 762 1077 762 1077 673 1077 c 0,11,12
 601 1077 601 1077 546 1044 c 1,13,14
 443 979 443 979 395 832 c 0,15,16
 355 709 355 709 344 543 c 0,17,18
 341 500 341 500 341 412 c 0,0,1
1016 700 m 0,19,20
 1016 532 1016 532 971 393 c 128,-1,21
 926 254 926 254 850 157 c 0,22,23
 780 68 780 68 690.5 21 c 128,-1,24
 601 -26 601 -26 519 -26 c 0,25,26
 450 -26 450 -26 384 5 c 128,-1,27
 318 36 318 36 276 91 c 1,28,29
 226 153 226 153 203 240 c 1,30,31
 175 330 175 330 175 448 c 0,32,33
 175 602 175 602 219.5 740 c 128,-1,34
 264 878 264 878 337 974 c 0,35,36
 411 1071 411 1071 501 1123 c 128,-1,37
 591 1175 591 1175 683 1175 c 0,38,39
 757 1175 757 1175 821 1141 c 1,40,41
 945 1068 945 1068 993 898 c 1,42,43
 1016 807 1016 807 1016 700 c 0,19,20
EndSplineSet
PairPos2: "'kern' Horizontal Kerning in Latin lookup 1 subtable" degree dx=0 dy=0 dh=-29 dv=0 dx=0 dy=0 dh=0 dv=0
PairPos2: "'kern' Horizontal Kerning in Latin lookup 1 subtable" degree dx=0 dy=0 dh=-29 dv=0 dx=0 dy=0 dh=0 dv=0
PairPos2: "'kern' Horizontal Kerning in Latin lookup 1 subtable" degree dx=0 dy=0 dh=-29 dv=0 dx=0 dy=0 dh=0 dv=0
PairPos2: "'kern' Horizontal Kerning in Latin lookup 1 subtable" degree dx=0 dy=0 dh=-29 dv=0 dx=0 dy=0 dh=0 dv=0
PairPos2: "'kern' Horizontal Kerning in Latin lookup 1 subtable" degree dx=0 dy=0 dh=-29 dv=0 dx=0 dy=0 dh=0 dv=0
PairPos2: "'kern' Horizontal Kerning in Latin lookup 1 subtable" Y dx=0 dy=0 dh=-37 dv=0 dx=0 dy=0 dh=0 dv=0
PairPos2: "'kern' Horizontal Kerning in Latin lookup 1 subtable" Y dx=0 dy=0 dh=-37 dv=0 dx=0 dy=0 dh=0 dv=0
PairPos2: "'kern' Horizontal Kerning in Latin lookup 1 subtable" Y dx=0 dy=0 dh=-37 dv=0 dx=0 dy=0 dh=0 dv=0
PairPos2: "'kern' Horizontal Kerning in Latin lookup 1 subtable" Y dx=0 dy=0 dh=-37 dv=0 dx=0 dy=0 dh=0 dv=0
PairPos2: "'kern' Horizontal Kerning in Latin lookup 1 subtable" Y dx=0 dy=0 dh=-37 dv=0 dx=0 dy=0 dh=0 dv=0
PairPos2: "'kern' Horizontal Kerning in Latin lookup 1 subtable" W dx=0 dy=0 dh=-29 dv=0 dx=0 dy=0 dh=0 dv=0
PairPos2: "'kern' Horizontal Kerning in Latin lookup 1 subtable" W dx=0 dy=0 dh=-29 dv=0 dx=0 dy=0 dh=0 dv=0
PairPos2: "'kern' Horizontal Kerning in Latin lookup 1 subtable" W dx=0 dy=0 dh=-29 dv=0 dx=0 dy=0 dh=0 dv=0
PairPos2: "'kern' Horizontal Kerning in Latin lookup 1 subtable" W dx=0 dy=0 dh=-29 dv=0 dx=0 dy=0 dh=0 dv=0
PairPos2: "'kern' Horizontal Kerning in Latin lookup 1 subtable" W dx=0 dy=0 dh=-29 dv=0 dx=0 dy=0 dh=0 dv=0
PairPos2: "'kern' Horizontal Kerning in Latin lookup 1 subtable" V dx=0 dy=0 dh=-33 dv=0 dx=0 dy=0 dh=0 dv=0
PairPos2: "'kern' Horizontal Kerning in Latin lookup 1 subtable" V dx=0 dy=0 dh=-33 dv=0 dx=0 dy=0 dh=0 dv=0
PairPos2: "'kern' Horizontal Kerning in Latin lookup 1 subtable" V dx=0 dy=0 dh=-33 dv=0 dx=0 dy=0 dh=0 dv=0
PairPos2: "'kern' Horizontal Kerning in Latin lookup 1 subtable" V dx=0 dy=0 dh=-33 dv=0 dx=0 dy=0 dh=0 dv=0
PairPos2: "'kern' Horizontal Kerning in Latin lookup 1 subtable" V dx=0 dy=0 dh=-33 dv=0 dx=0 dy=0 dh=0 dv=0
PairPos2: "'kern' Horizontal Kerning in Latin lookup 1 subtable" U dx=0 dy=0 dh=-20 dv=0 dx=0 dy=0 dh=0 dv=0
PairPos2: "'kern' Horizontal Kerning in Latin lookup 1 subtable" U dx=0 dy=0 dh=-20 dv=0 dx=0 dy=0 dh=0 dv=0
PairPos2: "'kern' Horizontal Kerning in Latin lookup 1 subtable" U dx=0 dy=0 dh=-20 dv=0 dx=0 dy=0 dh=0 dv=0
PairPos2: "'kern' Horizontal Kerning in Latin lookup 1 subtable" U dx=0 dy=0 dh=-20 dv=0 dx=0 dy=0 dh=0 dv=0
PairPos2: "'kern' Horizontal Kerning in Latin lookup 1 subtable" U dx=0 dy=0 dh=-20 dv=0 dx=0 dy=0 dh=0 dv=0
PairPos2: "'kern' Horizontal Kerning in Latin lookup 1 subtable" J dx=0 dy=0 dh=-22 dv=0 dx=0 dy=0 dh=0 dv=0
PairPos2: "'kern' Horizontal Kerning in Latin lookup 1 subtable" J dx=0 dy=0 dh=-22 dv=0 dx=0 dy=0 dh=0 dv=0
PairPos2: "'kern' Horizontal Kerning in Latin lookup 1 subtable" J dx=0 dy=0 dh=-22 dv=0 dx=0 dy=0 dh=0 dv=0
PairPos2: "'kern' Horizontal Kerning in Latin lookup 1 subtable" J dx=0 dy=0 dh=-22 dv=0 dx=0 dy=0 dh=0 dv=0
PairPos2: "'kern' Horizontal Kerning in Latin lookup 1 subtable" J dx=0 dy=0 dh=-22 dv=0 dx=0 dy=0 dh=0 dv=0
PairPos2: "'kern' Horizontal Kerning in Latin lookup 1 subtable" slash dx=0 dy=0 dh=-17 dv=0 dx=0 dy=0 dh=0 dv=0
PairPos2: "'kern' Horizontal Kerning in Latin lookup 1 subtable" slash dx=0 dy=0 dh=-17 dv=0 dx=0 dy=0 dh=0 dv=0
PairPos2: "'kern' Horizontal Kerning in Latin lookup 1 subtable" slash dx=0 dy=0 dh=-17 dv=0 dx=0 dy=0 dh=0 dv=0
PairPos2: "'kern' Horizontal Kerning in Latin lookup 1 subtable" slash dx=0 dy=0 dh=-17 dv=0 dx=0 dy=0 dh=0 dv=0
PairPos2: "'kern' Horizontal Kerning in Latin lookup 1 subtable" slash dx=0 dy=0 dh=-17 dv=0 dx=0 dy=0 dh=0 dv=0
PairPos2: "'kern' Horizontal Kerning in Latin lookup 1 subtable" parenright dx=0 dy=0 dh=-26 dv=0 dx=0 dy=0 dh=0 dv=0
PairPos2: "'kern' Horizontal Kerning in Latin lookup 1 subtable" parenright dx=0 dy=0 dh=-26 dv=0 dx=0 dy=0 dh=0 dv=0
PairPos2: "'kern' Horizontal Kerning in Latin lookup 1 subtable" parenright dx=0 dy=0 dh=-26 dv=0 dx=0 dy=0 dh=0 dv=0
PairPos2: "'kern' Horizontal Kerning in Latin lookup 1 subtable" parenright dx=0 dy=0 dh=-26 dv=0 dx=0 dy=0 dh=0 dv=0
PairPos2: "'kern' Horizontal Kerning in Latin lookup 1 subtable" parenright dx=0 dy=0 dh=-26 dv=0 dx=0 dy=0 dh=0 dv=0
PairPos2: "'kern' Horizontal Kerning in Latin lookup 1 subtable" quotedbl dx=0 dy=0 dh=-17 dv=0 dx=0 dy=0 dh=0 dv=0
PairPos2: "'kern' Horizontal Kerning in Latin lookup 1 subtable" quotedbl dx=0 dy=0 dh=-17 dv=0 dx=0 dy=0 dh=0 dv=0
PairPos2: "'kern' Horizontal Kerning in Latin lookup 1 subtable" quotedbl dx=0 dy=0 dh=-17 dv=0 dx=0 dy=0 dh=0 dv=0
PairPos2: "'kern' Horizontal Kerning in Latin lookup 1 subtable" quotedbl dx=0 dy=0 dh=-17 dv=0 dx=0 dy=0 dh=0 dv=0
PairPos2: "'kern' Horizontal Kerning in Latin lookup 1 subtable" quotedbl dx=0 dy=0 dh=-17 dv=0 dx=0 dy=0 dh=0 dv=0
EndChar

StartChar: one
Encoding: 49 49 20
Width: 786
GlyphClass: 2
Flags: W
LayerCount: 2
Fore
SplineSet
538 111 m 1,0,-1
 799 81 l 1,1,-1
 779 0 l 1,2,-1
 68 0 l 1,3,-1
 86 73 l 1,4,-1
 369 117 l 1,5,-1
 495 1007 l 1,6,-1
 230 1007 l 1,7,-1
 246 1084 l 1,8,-1
 658 1158 l 1,9,-1
 685 1158 l 1,10,-1
 538 111 l 1,0,-1
EndSplineSet
PairPos2: "'kern' Horizontal Kerning in Latin lookup 1 subtable" minus dx=0 dy=0 dh=-24 dv=0 dx=0 dy=0 dh=0 dv=0
PairPos2: "'kern' Horizontal Kerning in Latin lookup 1 subtable" minus dx=0 dy=0 dh=-24 dv=0 dx=0 dy=0 dh=0 dv=0
PairPos2: "'kern' Horizontal Kerning in Latin lookup 1 subtable" minus dx=0 dy=0 dh=-24 dv=0 dx=0 dy=0 dh=0 dv=0
PairPos2: "'kern' Horizontal Kerning in Latin lookup 1 subtable" minus dx=0 dy=0 dh=-24 dv=0 dx=0 dy=0 dh=0 dv=0
PairPos2: "'kern' Horizontal Kerning in Latin lookup 1 subtable" minus dx=0 dy=0 dh=-24 dv=0 dx=0 dy=0 dh=0 dv=0
PairPos2: "'kern' Horizontal Kerning in Latin lookup 1 subtable" emdash dx=0 dy=0 dh=-22 dv=0 dx=0 dy=0 dh=0 dv=0
PairPos2: "'kern' Horizontal Kerning in Latin lookup 1 subtable" emdash dx=0 dy=0 dh=-22 dv=0 dx=0 dy=0 dh=0 dv=0
PairPos2: "'kern' Horizontal Kerning in Latin lookup 1 subtable" emdash dx=0 dy=0 dh=-22 dv=0 dx=0 dy=0 dh=0 dv=0
PairPos2: "'kern' Horizontal Kerning in Latin lookup 1 subtable" emdash dx=0 dy=0 dh=-22 dv=0 dx=0 dy=0 dh=0 dv=0
PairPos2: "'kern' Horizontal Kerning in Latin lookup 1 subtable" emdash dx=0 dy=0 dh=-22 dv=0 dx=0 dy=0 dh=0 dv=0
PairPos2: "'kern' Horizontal Kerning in Latin lookup 1 subtable" periodcentered dx=0 dy=0 dh=-28 dv=0 dx=0 dy=0 dh=0 dv=0
PairPos2: "'kern' Horizontal Kerning in Latin lookup 1 subtable" periodcentered dx=0 dy=0 dh=-28 dv=0 dx=0 dy=0 dh=0 dv=0
PairPos2: "'kern' Horizontal Kerning in Latin lookup 1 subtable" periodcentered dx=0 dy=0 dh=-28 dv=0 dx=0 dy=0 dh=0 dv=0
PairPos2: "'kern' Horizontal Kerning in Latin lookup 1 subtable" periodcentered dx=0 dy=0 dh=-28 dv=0 dx=0 dy=0 dh=0 dv=0
PairPos2: "'kern' Horizontal Kerning in Latin lookup 1 subtable" periodcentered dx=0 dy=0 dh=-28 dv=0 dx=0 dy=0 dh=0 dv=0
PairPos2: "'kern' Horizontal Kerning in Latin lookup 1 subtable" degree dx=0 dy=0 dh=-37 dv=0 dx=0 dy=0 dh=0 dv=0
PairPos2: "'kern' Horizontal Kerning in Latin lookup 1 subtable" degree dx=0 dy=0 dh=-37 dv=0 dx=0 dy=0 dh=0 dv=0
PairPos2: "'kern' Horizontal Kerning in Latin lookup 1 subtable" degree dx=0 dy=0 dh=-37 dv=0 dx=0 dy=0 dh=0 dv=0
PairPos2: "'kern' Horizontal Kerning in Latin lookup 1 subtable" degree dx=0 dy=0 dh=-37 dv=0 dx=0 dy=0 dh=0 dv=0
PairPos2: "'kern' Horizontal Kerning in Latin lookup 1 subtable" degree dx=0 dy=0 dh=-37 dv=0 dx=0 dy=0 dh=0 dv=0
PairPos2: "'kern' Horizontal Kerning in Latin lookup 1 subtable" y dx=0 dy=0 dh=-21 dv=0 dx=0 dy=0 dh=0 dv=0
PairPos2: "'kern' Horizontal Kerning in Latin lookup 1 subtable" y dx=0 dy=0 dh=-21 dv=0 dx=0 dy=0 dh=0 dv=0
PairPos2: "'kern' Horizontal Kerning in Latin lookup 1 subtable" y dx=0 dy=0 dh=-21 dv=0 dx=0 dy=0 dh=0 dv=0
PairPos2: "'kern' Horizontal Kerning in Latin lookup 1 subtable" y dx=0 dy=0 dh=-21 dv=0 dx=0 dy=0 dh=0 dv=0
PairPos2: "'kern' Horizontal Kerning in Latin lookup 1 subtable" y dx=0 dy=0 dh=-21 dv=0 dx=0 dy=0 dh=0 dv=0
PairPos2: "'kern' Horizontal Kerning in Latin lookup 1 subtable" x dx=0 dy=0 dh=45 dv=0 dx=0 dy=0 dh=0 dv=0
PairPos2: "'kern' Horizontal Kerning in Latin lookup 1 subtable" x dx=0 dy=0 dh=45 dv=0 dx=0 dy=0 dh=0 dv=0
PairPos2: "'kern' Horizontal Kerning in Latin lookup 1 subtable" x dx=0 dy=0 dh=45 dv=0 dx=0 dy=0 dh=0 dv=0
PairPos2: "'kern' Horizontal Kerning in Latin lookup 1 subtable" x dx=0 dy=0 dh=45 dv=0 dx=0 dy=0 dh=0 dv=0
PairPos2: "'kern' Horizontal Kerning in Latin lookup 1 subtable" x dx=0 dy=0 dh=45 dv=0 dx=0 dy=0 dh=0 dv=0
PairPos2: "'kern' Horizontal Kerning in Latin lookup 1 subtable" v dx=0 dy=0 dh=-17 dv=0 dx=0 dy=0 dh=0 dv=0
PairPos2: "'kern' Horizontal Kerning in Latin lookup 1 subtable" v dx=0 dy=0 dh=-17 dv=0 dx=0 dy=0 dh=0 dv=0
PairPos2: "'kern' Horizontal Kerning in Latin lookup 1 subtable" v dx=0 dy=0 dh=-17 dv=0 dx=0 dy=0 dh=0 dv=0
PairPos2: "'kern' Horizontal Kerning in Latin lookup 1 subtable" v dx=0 dy=0 dh=-17 dv=0 dx=0 dy=0 dh=0 dv=0
PairPos2: "'kern' Horizontal Kerning in Latin lookup 1 subtable" v dx=0 dy=0 dh=-17 dv=0 dx=0 dy=0 dh=0 dv=0
PairPos2: "'kern' Horizontal Kerning in Latin lookup 1 subtable" h dx=0 dy=0 dh=31 dv=0 dx=0 dy=0 dh=0 dv=0
PairPos2: "'kern' Horizontal Kerning in Latin lookup 1 subtable" h dx=0 dy=0 dh=31 dv=0 dx=0 dy=0 dh=0 dv=0
PairPos2: "'kern' Horizontal Kerning in Latin lookup 1 subtable" h dx=0 dy=0 dh=31 dv=0 dx=0 dy=0 dh=0 dv=0
PairPos2: "'kern' Horizontal Kerning in Latin lookup 1 subtable" h dx=0 dy=0 dh=31 dv=0 dx=0 dy=0 dh=0 dv=0
PairPos2: "'kern' Horizontal Kerning in Latin lookup 1 subtable" h dx=0 dy=0 dh=31 dv=0 dx=0 dy=0 dh=0 dv=0
PairPos2: "'kern' Horizontal Kerning in Latin lookup 1 subtable" backslash dx=0 dy=0 dh=-29 dv=0 dx=0 dy=0 dh=0 dv=0
PairPos2: "'kern' Horizontal Kerning in Latin lookup 1 subtable" backslash dx=0 dy=0 dh=-29 dv=0 dx=0 dy=0 dh=0 dv=0
PairPos2: "'kern' Horizontal Kerning in Latin lookup 1 subtable" backslash dx=0 dy=0 dh=-29 dv=0 dx=0 dy=0 dh=0 dv=0
PairPos2: "'kern' Horizontal Kerning in Latin lookup 1 subtable" backslash dx=0 dy=0 dh=-29 dv=0 dx=0 dy=0 dh=0 dv=0
PairPos2: "'kern' Horizontal Kerning in Latin lookup 1 subtable" backslash dx=0 dy=0 dh=-29 dv=0 dx=0 dy=0 dh=0 dv=0
PairPos2: "'kern' Horizontal Kerning in Latin lookup 1 subtable" Y dx=0 dy=0 dh=-31 dv=0 dx=0 dy=0 dh=0 dv=0
PairPos2: "'kern' Horizontal Kerning in Latin lookup 1 subtable" Y dx=0 dy=0 dh=-31 dv=0 dx=0 dy=0 dh=0 dv=0
PairPos2: "'kern' Horizontal Kerning in Latin lookup 1 subtable" Y dx=0 dy=0 dh=-31 dv=0 dx=0 dy=0 dh=0 dv=0
PairPos2: "'kern' Horizontal Kerning in Latin lookup 1 subtable" Y dx=0 dy=0 dh=-31 dv=0 dx=0 dy=0 dh=0 dv=0
PairPos2: "'kern' Horizontal Kerning in Latin lookup 1 subtable" Y dx=0 dy=0 dh=-31 dv=0 dx=0 dy=0 dh=0 dv=0
PairPos2: "'kern' Horizontal Kerning in Latin lookup 1 subtable" X dx=0 dy=0 dh=52 dv=0 dx=0 dy=0 dh=0 dv=0
PairPos2: "'kern' Horizontal Kerning in Latin lookup 1 subtable" X dx=0 dy=0 dh=52 dv=0 dx=0 dy=0 dh=0 dv=0
PairPos2: "'kern' Horizontal Kerning in Latin lookup 1 subtable" X dx=0 dy=0 dh=52 dv=0 dx=0 dy=0 dh=0 dv=0
PairPos2: "'kern' Horizontal Kerning in Latin lookup 1 subtable" X dx=0 dy=0 dh=52 dv=0 dx=0 dy=0 dh=0 dv=0
PairPos2: "'kern' Horizontal Kerning in Latin lookup 1 subtable" X dx=0 dy=0 dh=52 dv=0 dx=0 dy=0 dh=0 dv=0
PairPos2: "'kern' Horizontal Kerning in Latin lookup 1 subtable" W dx=0 dy=0 dh=-36 dv=0 dx=0 dy=0 dh=0 dv=0
PairPos2: "'kern' Horizontal Kerning in Latin lookup 1 subtable" W dx=0 dy=0 dh=-36 dv=0 dx=0 dy=0 dh=0 dv=0
PairPos2: "'kern' Horizontal Kerning in Latin lookup 1 subtable" W dx=0 dy=0 dh=-36 dv=0 dx=0 dy=0 dh=0 dv=0
PairPos2: "'kern' Horizontal Kerning in Latin lookup 1 subtable" W dx=0 dy=0 dh=-36 dv=0 dx=0 dy=0 dh=0 dv=0
PairPos2: "'kern' Horizontal Kerning in Latin lookup 1 subtable" W dx=0 dy=0 dh=-36 dv=0 dx=0 dy=0 dh=0 dv=0
PairPos2: "'kern' Horizontal Kerning in Latin lookup 1 subtable" V dx=0 dy=0 dh=-38 dv=0 dx=0 dy=0 dh=0 dv=0
PairPos2: "'kern' Horizontal Kerning in Latin lookup 1 subtable" V dx=0 dy=0 dh=-38 dv=0 dx=0 dy=0 dh=0 dv=0
PairPos2: "'kern' Horizontal Kerning in Latin lookup 1 subtable" V dx=0 dy=0 dh=-38 dv=0 dx=0 dy=0 dh=0 dv=0
PairPos2: "'kern' Horizontal Kerning in Latin lookup 1 subtable" V dx=0 dy=0 dh=-38 dv=0 dx=0 dy=0 dh=0 dv=0
PairPos2: "'kern' Horizontal Kerning in Latin lookup 1 subtable" V dx=0 dy=0 dh=-38 dv=0 dx=0 dy=0 dh=0 dv=0
PairPos2: "'kern' Horizontal Kerning in Latin lookup 1 subtable" U dx=0 dy=0 dh=-34 dv=0 dx=0 dy=0 dh=0 dv=0
PairPos2: "'kern' Horizontal Kerning in Latin lookup 1 subtable" U dx=0 dy=0 dh=-34 dv=0 dx=0 dy=0 dh=0 dv=0
PairPos2: "'kern' Horizontal Kerning in Latin lookup 1 subtable" U dx=0 dy=0 dh=-34 dv=0 dx=0 dy=0 dh=0 dv=0
PairPos2: "'kern' Horizontal Kerning in Latin lookup 1 subtable" U dx=0 dy=0 dh=-34 dv=0 dx=0 dy=0 dh=0 dv=0
PairPos2: "'kern' Horizontal Kerning in Latin lookup 1 subtable" U dx=0 dy=0 dh=-34 dv=0 dx=0 dy=0 dh=0 dv=0
PairPos2: "'kern' Horizontal Kerning in Latin lookup 1 subtable" T dx=0 dy=0 dh=-25 dv=0 dx=0 dy=0 dh=0 dv=0
PairPos2: "'kern' Horizontal Kerning in Latin lookup 1 subtable" T dx=0 dy=0 dh=-25 dv=0 dx=0 dy=0 dh=0 dv=0
PairPos2: "'kern' Horizontal Kerning in Latin lookup 1 subtable" T dx=0 dy=0 dh=-25 dv=0 dx=0 dy=0 dh=0 dv=0
PairPos2: "'kern' Horizontal Kerning in Latin lookup 1 subtable" T dx=0 dy=0 dh=-25 dv=0 dx=0 dy=0 dh=0 dv=0
PairPos2: "'kern' Horizontal Kerning in Latin lookup 1 subtable" T dx=0 dy=0 dh=-25 dv=0 dx=0 dy=0 dh=0 dv=0
PairPos2: "'kern' Horizontal Kerning in Latin lookup 1 subtable" Q dx=0 dy=0 dh=-22 dv=0 dx=0 dy=0 dh=0 dv=0
PairPos2: "'kern' Horizontal Kerning in Latin lookup 1 subtable" Q dx=0 dy=0 dh=-22 dv=0 dx=0 dy=0 dh=0 dv=0
PairPos2: "'kern' Horizontal Kerning in Latin lookup 1 subtable" Q dx=0 dy=0 dh=-22 dv=0 dx=0 dy=0 dh=0 dv=0
PairPos2: "'kern' Horizontal Kerning in Latin lookup 1 subtable" Q dx=0 dy=0 dh=-22 dv=0 dx=0 dy=0 dh=0 dv=0
PairPos2: "'kern' Horizontal Kerning in Latin lookup 1 subtable" Q dx=0 dy=0 dh=-22 dv=0 dx=0 dy=0 dh=0 dv=0
PairPos2: "'kern' Horizontal Kerning in Latin lookup 1 subtable" O dx=0 dy=0 dh=-22 dv=0 dx=0 dy=0 dh=0 dv=0
PairPos2: "'kern' Horizontal Kerning in Latin lookup 1 subtable" O dx=0 dy=0 dh=-22 dv=0 dx=0 dy=0 dh=0 dv=0
PairPos2: "'kern' Horizontal Kerning in Latin lookup 1 subtable" O dx=0 dy=0 dh=-22 dv=0 dx=0 dy=0 dh=0 dv=0
PairPos2: "'kern' Horizontal Kerning in Latin lookup 1 subtable" O dx=0 dy=0 dh=-22 dv=0 dx=0 dy=0 dh=0 dv=0
PairPos2: "'kern' Horizontal Kerning in Latin lookup 1 subtable" O dx=0 dy=0 dh=-22 dv=0 dx=0 dy=0 dh=0 dv=0
PairPos2: "'kern' Horizontal Kerning in Latin lookup 1 subtable" M dx=0 dy=0 dh=25 dv=0 dx=0 dy=0 dh=0 dv=0
PairPos2: "'kern' Horizontal Kerning in Latin lookup 1 subtable" M dx=0 dy=0 dh=25 dv=0 dx=0 dy=0 dh=0 dv=0
PairPos2: "'kern' Horizontal Kerning in Latin lookup 1 subtable" M dx=0 dy=0 dh=25 dv=0 dx=0 dy=0 dh=0 dv=0
PairPos2: "'kern' Horizontal Kerning in Latin lookup 1 subtable" M dx=0 dy=0 dh=25 dv=0 dx=0 dy=0 dh=0 dv=0
PairPos2: "'kern' Horizontal Kerning in Latin lookup 1 subtable" M dx=0 dy=0 dh=25 dv=0 dx=0 dy=0 dh=0 dv=0
PairPos2: "'kern' Horizontal Kerning in Latin lookup 1 subtable" G dx=0 dy=0 dh=-18 dv=0 dx=0 dy=0 dh=0 dv=0
PairPos2: "'kern' Horizontal Kerning in Latin lookup 1 subtable" G dx=0 dy=0 dh=-18 dv=0 dx=0 dy=0 dh=0 dv=0
PairPos2: "'kern' Horizontal Kerning in Latin lookup 1 subtable" G dx=0 dy=0 dh=-18 dv=0 dx=0 dy=0 dh=0 dv=0
PairPos2: "'kern' Horizontal Kerning in Latin lookup 1 subtable" G dx=0 dy=0 dh=-18 dv=0 dx=0 dy=0 dh=0 dv=0
PairPos2: "'kern' Horizontal Kerning in Latin lookup 1 subtable" G dx=0 dy=0 dh=-18 dv=0 dx=0 dy=0 dh=0 dv=0
PairPos2: "'kern' Horizontal Kerning in Latin lookup 1 subtable" C dx=0 dy=0 dh=-21 dv=0 dx=0 dy=0 dh=0 dv=0
PairPos2: "'kern' Horizontal Kerning in Latin lookup 1 subtable" C dx=0 dy=0 dh=-21 dv=0 dx=0 dy=0 dh=0 dv=0
PairPos2: "'kern' Horizontal Kerning in Latin lookup 1 subtable" C dx=0 dy=0 dh=-21 dv=0 dx=0 dy=0 dh=0 dv=0
PairPos2: "'kern' Horizontal Kerning in Latin lookup 1 subtable" C dx=0 dy=0 dh=-21 dv=0 dx=0 dy=0 dh=0 dv=0
PairPos2: "'kern' Horizontal Kerning in Latin lookup 1 subtable" C dx=0 dy=0 dh=-21 dv=0 dx=0 dy=0 dh=0 dv=0
PairPos2: "'kern' Horizontal Kerning in Latin lookup 1 subtable" A dx=0 dy=0 dh=92 dv=0 dx=0 dy=0 dh=0 dv=0
PairPos2: "'kern' Horizontal Kerning in Latin lookup 1 subtable" A dx=0 dy=0 dh=92 dv=0 dx=0 dy=0 dh=0 dv=0
PairPos2: "'kern' Horizontal Kerning in Latin lookup 1 subtable" A dx=0 dy=0 dh=92 dv=0 dx=0 dy=0 dh=0 dv=0
PairPos2: "'kern' Horizontal Kerning in Latin lookup 1 subtable" A dx=0 dy=0 dh=92 dv=0 dx=0 dy=0 dh=0 dv=0
PairPos2: "'kern' Horizontal Kerning in Latin lookup 1 subtable" A dx=0 dy=0 dh=92 dv=0 dx=0 dy=0 dh=0 dv=0
PairPos2: "'kern' Horizontal Kerning in Latin lookup 1 subtable" equal dx=0 dy=0 dh=-21 dv=0 dx=0 dy=0 dh=0 dv=0
PairPos2: "'kern' Horizontal Kerning in Latin lookup 1 subtable" equal dx=0 dy=0 dh=-21 dv=0 dx=0 dy=0 dh=0 dv=0
PairPos2: "'kern' Horizontal Kerning in Latin lookup 1 subtable" equal dx=0 dy=0 dh=-21 dv=0 dx=0 dy=0 dh=0 dv=0
PairPos2: "'kern' Horizontal Kerning in Latin lookup 1 subtable" equal dx=0 dy=0 dh=-21 dv=0 dx=0 dy=0 dh=0 dv=0
PairPos2: "'kern' Horizontal Kerning in Latin lookup 1 subtable" equal dx=0 dy=0 dh=-21 dv=0 dx=0 dy=0 dh=0 dv=0
PairPos2: "'kern' Horizontal Kerning in Latin lookup 1 subtable" seven dx=0 dy=0 dh=-22 dv=0 dx=0 dy=0 dh=0 dv=0
PairPos2: "'kern' Horizontal Kerning in Latin lookup 1 subtable" seven dx=0 dy=0 dh=-22 dv=0 dx=0 dy=0 dh=0 dv=0
PairPos2: "'kern' Horizontal Kerning in Latin lookup 1 subtable" seven dx=0 dy=0 dh=-22 dv=0 dx=0 dy=0 dh=0 dv=0
PairPos2: "'kern' Horizontal Kerning in Latin lookup 1 subtable" seven dx=0 dy=0 dh=-22 dv=0 dx=0 dy=0 dh=0 dv=0
PairPos2: "'kern' Horizontal Kerning in Latin lookup 1 subtable" seven dx=0 dy=0 dh=-22 dv=0 dx=0 dy=0 dh=0 dv=0
PairPos2: "'kern' Horizontal Kerning in Latin lookup 1 subtable" plus dx=0 dy=0 dh=-17 dv=0 dx=0 dy=0 dh=0 dv=0
PairPos2: "'kern' Horizontal Kerning in Latin lookup 1 subtable" plus dx=0 dy=0 dh=-17 dv=0 dx=0 dy=0 dh=0 dv=0
PairPos2: "'kern' Horizontal Kerning in Latin lookup 1 subtable" plus dx=0 dy=0 dh=-17 dv=0 dx=0 dy=0 dh=0 dv=0
PairPos2: "'kern' Horizontal Kerning in Latin lookup 1 subtable" plus dx=0 dy=0 dh=-17 dv=0 dx=0 dy=0 dh=0 dv=0
PairPos2: "'kern' Horizontal Kerning in Latin lookup 1 subtable" plus dx=0 dy=0 dh=-17 dv=0 dx=0 dy=0 dh=0 dv=0
PairPos2: "'kern' Horizontal Kerning in Latin lookup 1 subtable" numbersign dx=0 dy=0 dh=-20 dv=0 dx=0 dy=0 dh=0 dv=0
PairPos2: "'kern' Horizontal Kerning in Latin lookup 1 subtable" numbersign dx=0 dy=0 dh=-20 dv=0 dx=0 dy=0 dh=0 dv=0
PairPos2: "'kern' Horizontal Kerning in Latin lookup 1 subtable" numbersign dx=0 dy=0 dh=-20 dv=0 dx=0 dy=0 dh=0 dv=0
PairPos2: "'kern' Horizontal Kerning in Latin lookup 1 subtable" numbersign dx=0 dy=0 dh=-20 dv=0 dx=0 dy=0 dh=0 dv=0
PairPos2: "'kern' Horizontal Kerning in Latin lookup 1 subtable" numbersign dx=0 dy=0 dh=-20 dv=0 dx=0 dy=0 dh=0 dv=0
PairPos2: "'kern' Horizontal Kerning in Latin lookup 1 subtable" quotedbl dx=0 dy=0 dh=-37 dv=0 dx=0 dy=0 dh=0 dv=0
PairPos2: "'kern' Horizontal Kerning in Latin lookup 1 subtable" quotedbl dx=0 dy=0 dh=-37 dv=0 dx=0 dy=0 dh=0 dv=0
PairPos2: "'kern' Horizontal Kerning in Latin lookup 1 subtable" quotedbl dx=0 dy=0 dh=-37 dv=0 dx=0 dy=0 dh=0 dv=0
PairPos2: "'kern' Horizontal Kerning in Latin lookup 1 subtable" quotedbl dx=0 dy=0 dh=-37 dv=0 dx=0 dy=0 dh=0 dv=0
PairPos2: "'kern' Horizontal Kerning in Latin lookup 1 subtable" quotedbl dx=0 dy=0 dh=-37 dv=0 dx=0 dy=0 dh=0 dv=0
EndChar

StartChar: two
Encoding: 50 50 21
Width: 945
GlyphClass: 2
Flags: W
LayerCount: 2
Fore
SplineSet
74 0 m 1,0,-1
 83 103 l 1,1,-1
 344 303 l 1,2,-1
 490 419 l 2,3,4
 644 542 644 542 723 693 c 1,5,6
 761 770 761 770 761 859 c 0,7,8
 761 942 761 942 723 994 c 1,9,10
 678 1050 678 1050 587 1050 c 0,11,12
 537 1050 537 1050 491 1027 c 1,13,14
 446 1002 446 1002 412 968 c 1,15,16
 340 889 340 889 296 801 c 1,17,-1
 220 830 l 1,18,19
 243 892 243 892 288.5 957 c 128,-1,20
 334 1022 334 1022 389 1069 c 1,21,22
 454 1122 454 1122 518 1151 c 1,23,24
 592 1182 592 1182 665 1183 c 1,25,26
 801 1183 801 1183 872 1111.5 c 128,-1,27
 943 1040 943 1040 943 908 c 0,28,29
 943 707 943 707 726 500 c 1,30,31
 643 419 643 419 536 341 c 1,32,-1
 362 208 l 1,33,-1
 277 136 l 1,34,-1
 731 136 l 1,35,-1
 849 306 l 1,36,-1
 916 297 l 1,37,-1
 821 0 l 1,38,-1
 74 0 l 1,0,-1
EndSplineSet
EndChar

StartChar: three
Encoding: 51 51 22
Width: 854
GlyphClass: 2
Flags: W
LayerCount: 2
Fore
SplineSet
212 208 m 1,0,1
 212 168 212 168 258 117 c 0,2,3
 281 91 281 91 311 74 c 1,4,5
 337 56 337 56 376 56 c 0,6,7
 531 56 531 56 601 157 c 1,8,9
 644 223 644 223 644 311 c 0,10,11
 644 349 644 349 625 391.5 c 128,-1,12
 606 434 606 434 574 467 c 1,13,14
 495 541 495 541 379 541 c 2,15,-1
 362 541 l 1,16,-1
 362 605 l 1,17,18
 364 607 364 607 371 608 c 0,19,20
 375 609 375 609 384 613 c 0,21,22
 391 616 391 616 400 619 c 0,23,24
 461 643 461 643 538 690 c 1,25,26
 620 745 620 745 660 824 c 0,27,28
 682 869 682 869 682 915 c 0,29,30
 682 975 682 975 648 1012 c 0,31,32
 607 1057 607 1057 534 1057 c 0,33,34
 460 1057 460 1057 408.5 1018.5 c 128,-1,35
 357 980 357 980 318 908 c 1,36,-1
 248 933 l 1,37,38
 256 967 256 967 292 1013.5 c 128,-1,39
 328 1060 328 1060 377 1098 c 0,40,41
 494 1186 494 1186 612 1186 c 0,42,43
 656 1186 656 1186 710 1170 c 1,44,45
 804 1134 804 1134 844 1054 c 0,46,47
 864 1014 864 1014 864 966 c 0,48,49
 864 851 864 851 778 759 c 1,50,51
 701 682 701 682 588 644 c 1,52,-1
 587 632 l 1,53,54
 703 613 703 613 766 539 c 0,55,56
 826 470 826 470 825 377 c 0,57,58
 825 298 825 298 784 220 c 1,59,60
 695 65 695 65 510 2 c 1,61,62
 409 -29 409 -29 313 -30 c 0,63,64
 261 -30 261 -30 207 -18 c 1,65,66
 116 8 116 8 88 53 c 1,67,68
 73 75 73 75 73 99 c 0,69,70
 73 137 73 137 109 169 c 1,71,72
 147 201 147 201 212 208 c 1,0,1
EndSplineSet
PairPos2: "'kern' Horizontal Kerning in Latin lookup 1 subtable" Y dx=0 dy=0 dh=-23 dv=0 dx=0 dy=0 dh=0 dv=0
PairPos2: "'kern' Horizontal Kerning in Latin lookup 1 subtable" Y dx=0 dy=0 dh=-23 dv=0 dx=0 dy=0 dh=0 dv=0
PairPos2: "'kern' Horizontal Kerning in Latin lookup 1 subtable" Y dx=0 dy=0 dh=-23 dv=0 dx=0 dy=0 dh=0 dv=0
PairPos2: "'kern' Horizontal Kerning in Latin lookup 1 subtable" Y dx=0 dy=0 dh=-23 dv=0 dx=0 dy=0 dh=0 dv=0
PairPos2: "'kern' Horizontal Kerning in Latin lookup 1 subtable" Y dx=0 dy=0 dh=-23 dv=0 dx=0 dy=0 dh=0 dv=0
PairPos2: "'kern' Horizontal Kerning in Latin lookup 1 subtable" W dx=0 dy=0 dh=-18 dv=0 dx=0 dy=0 dh=0 dv=0
PairPos2: "'kern' Horizontal Kerning in Latin lookup 1 subtable" W dx=0 dy=0 dh=-18 dv=0 dx=0 dy=0 dh=0 dv=0
PairPos2: "'kern' Horizontal Kerning in Latin lookup 1 subtable" W dx=0 dy=0 dh=-18 dv=0 dx=0 dy=0 dh=0 dv=0
PairPos2: "'kern' Horizontal Kerning in Latin lookup 1 subtable" W dx=0 dy=0 dh=-18 dv=0 dx=0 dy=0 dh=0 dv=0
PairPos2: "'kern' Horizontal Kerning in Latin lookup 1 subtable" W dx=0 dy=0 dh=-18 dv=0 dx=0 dy=0 dh=0 dv=0
PairPos2: "'kern' Horizontal Kerning in Latin lookup 1 subtable" V dx=0 dy=0 dh=-22 dv=0 dx=0 dy=0 dh=0 dv=0
PairPos2: "'kern' Horizontal Kerning in Latin lookup 1 subtable" V dx=0 dy=0 dh=-22 dv=0 dx=0 dy=0 dh=0 dv=0
PairPos2: "'kern' Horizontal Kerning in Latin lookup 1 subtable" V dx=0 dy=0 dh=-22 dv=0 dx=0 dy=0 dh=0 dv=0
PairPos2: "'kern' Horizontal Kerning in Latin lookup 1 subtable" V dx=0 dy=0 dh=-22 dv=0 dx=0 dy=0 dh=0 dv=0
PairPos2: "'kern' Horizontal Kerning in Latin lookup 1 subtable" V dx=0 dy=0 dh=-22 dv=0 dx=0 dy=0 dh=0 dv=0
PairPos2: "'kern' Horizontal Kerning in Latin lookup 1 subtable" U dx=0 dy=0 dh=-17 dv=0 dx=0 dy=0 dh=0 dv=0
PairPos2: "'kern' Horizontal Kerning in Latin lookup 1 subtable" U dx=0 dy=0 dh=-17 dv=0 dx=0 dy=0 dh=0 dv=0
PairPos2: "'kern' Horizontal Kerning in Latin lookup 1 subtable" U dx=0 dy=0 dh=-17 dv=0 dx=0 dy=0 dh=0 dv=0
PairPos2: "'kern' Horizontal Kerning in Latin lookup 1 subtable" U dx=0 dy=0 dh=-17 dv=0 dx=0 dy=0 dh=0 dv=0
PairPos2: "'kern' Horizontal Kerning in Latin lookup 1 subtable" U dx=0 dy=0 dh=-17 dv=0 dx=0 dy=0 dh=0 dv=0
PairPos2: "'kern' Horizontal Kerning in Latin lookup 1 subtable" J dx=0 dy=0 dh=-17 dv=0 dx=0 dy=0 dh=0 dv=0
PairPos2: "'kern' Horizontal Kerning in Latin lookup 1 subtable" J dx=0 dy=0 dh=-17 dv=0 dx=0 dy=0 dh=0 dv=0
PairPos2: "'kern' Horizontal Kerning in Latin lookup 1 subtable" J dx=0 dy=0 dh=-17 dv=0 dx=0 dy=0 dh=0 dv=0
PairPos2: "'kern' Horizontal Kerning in Latin lookup 1 subtable" J dx=0 dy=0 dh=-17 dv=0 dx=0 dy=0 dh=0 dv=0
PairPos2: "'kern' Horizontal Kerning in Latin lookup 1 subtable" J dx=0 dy=0 dh=-17 dv=0 dx=0 dy=0 dh=0 dv=0
PairPos2: "'kern' Horizontal Kerning in Latin lookup 1 subtable" parenright dx=0 dy=0 dh=-17 dv=0 dx=0 dy=0 dh=0 dv=0
PairPos2: "'kern' Horizontal Kerning in Latin lookup 1 subtable" parenright dx=0 dy=0 dh=-17 dv=0 dx=0 dy=0 dh=0 dv=0
PairPos2: "'kern' Horizontal Kerning in Latin lookup 1 subtable" parenright dx=0 dy=0 dh=-17 dv=0 dx=0 dy=0 dh=0 dv=0
PairPos2: "'kern' Horizontal Kerning in Latin lookup 1 subtable" parenright dx=0 dy=0 dh=-17 dv=0 dx=0 dy=0 dh=0 dv=0
PairPos2: "'kern' Horizontal Kerning in Latin lookup 1 subtable" parenright dx=0 dy=0 dh=-17 dv=0 dx=0 dy=0 dh=0 dv=0
EndChar

StartChar: four
Encoding: 52 52 23
Width: 942
GlyphClass: 2
Flags: W
LayerCount: 2
Fore
SplineSet
566 349 m 1,0,-1
 89 349 l 1,1,-1
 78 422 l 1,2,-1
 787 1168 l 1,3,-1
 847 1150 l 2,4,5
 847 1149 847 1149 829 1050 c 1,6,-1
 811 933 l 1,7,-1
 791 802 l 1,8,9
 774 675 774 675 773 668 c 2,10,-1
 744 468 l 1,11,-1
 991 468 l 1,12,-1
 958 346 l 1,13,-1
 726 346 l 1,14,-1
 682 15 l 1,15,-1
 513 -12 l 1,16,-1
 566 349 l 1,0,-1
639 890 m 1,17,-1
 250 468 l 1,18,-1
 579 468 l 1,19,-1
 639 890 l 1,17,-1
EndSplineSet
PairPos2: "'kern' Horizontal Kerning in Latin lookup 1 subtable" degree dx=0 dy=0 dh=-38 dv=0 dx=0 dy=0 dh=0 dv=0
PairPos2: "'kern' Horizontal Kerning in Latin lookup 1 subtable" degree dx=0 dy=0 dh=-38 dv=0 dx=0 dy=0 dh=0 dv=0
PairPos2: "'kern' Horizontal Kerning in Latin lookup 1 subtable" degree dx=0 dy=0 dh=-38 dv=0 dx=0 dy=0 dh=0 dv=0
PairPos2: "'kern' Horizontal Kerning in Latin lookup 1 subtable" degree dx=0 dy=0 dh=-38 dv=0 dx=0 dy=0 dh=0 dv=0
PairPos2: "'kern' Horizontal Kerning in Latin lookup 1 subtable" degree dx=0 dy=0 dh=-38 dv=0 dx=0 dy=0 dh=0 dv=0
PairPos2: "'kern' Horizontal Kerning in Latin lookup 1 subtable" backslash dx=0 dy=0 dh=-19 dv=0 dx=0 dy=0 dh=0 dv=0
PairPos2: "'kern' Horizontal Kerning in Latin lookup 1 subtable" backslash dx=0 dy=0 dh=-19 dv=0 dx=0 dy=0 dh=0 dv=0
PairPos2: "'kern' Horizontal Kerning in Latin lookup 1 subtable" backslash dx=0 dy=0 dh=-19 dv=0 dx=0 dy=0 dh=0 dv=0
PairPos2: "'kern' Horizontal Kerning in Latin lookup 1 subtable" backslash dx=0 dy=0 dh=-19 dv=0 dx=0 dy=0 dh=0 dv=0
PairPos2: "'kern' Horizontal Kerning in Latin lookup 1 subtable" backslash dx=0 dy=0 dh=-19 dv=0 dx=0 dy=0 dh=0 dv=0
PairPos2: "'kern' Horizontal Kerning in Latin lookup 1 subtable" Y dx=0 dy=0 dh=-36 dv=0 dx=0 dy=0 dh=0 dv=0
PairPos2: "'kern' Horizontal Kerning in Latin lookup 1 subtable" Y dx=0 dy=0 dh=-36 dv=0 dx=0 dy=0 dh=0 dv=0
PairPos2: "'kern' Horizontal Kerning in Latin lookup 1 subtable" Y dx=0 dy=0 dh=-36 dv=0 dx=0 dy=0 dh=0 dv=0
PairPos2: "'kern' Horizontal Kerning in Latin lookup 1 subtable" Y dx=0 dy=0 dh=-36 dv=0 dx=0 dy=0 dh=0 dv=0
PairPos2: "'kern' Horizontal Kerning in Latin lookup 1 subtable" Y dx=0 dy=0 dh=-36 dv=0 dx=0 dy=0 dh=0 dv=0
PairPos2: "'kern' Horizontal Kerning in Latin lookup 1 subtable" W dx=0 dy=0 dh=-29 dv=0 dx=0 dy=0 dh=0 dv=0
PairPos2: "'kern' Horizontal Kerning in Latin lookup 1 subtable" W dx=0 dy=0 dh=-29 dv=0 dx=0 dy=0 dh=0 dv=0
PairPos2: "'kern' Horizontal Kerning in Latin lookup 1 subtable" W dx=0 dy=0 dh=-29 dv=0 dx=0 dy=0 dh=0 dv=0
PairPos2: "'kern' Horizontal Kerning in Latin lookup 1 subtable" W dx=0 dy=0 dh=-29 dv=0 dx=0 dy=0 dh=0 dv=0
PairPos2: "'kern' Horizontal Kerning in Latin lookup 1 subtable" W dx=0 dy=0 dh=-29 dv=0 dx=0 dy=0 dh=0 dv=0
PairPos2: "'kern' Horizontal Kerning in Latin lookup 1 subtable" V dx=0 dy=0 dh=-33 dv=0 dx=0 dy=0 dh=0 dv=0
PairPos2: "'kern' Horizontal Kerning in Latin lookup 1 subtable" V dx=0 dy=0 dh=-33 dv=0 dx=0 dy=0 dh=0 dv=0
PairPos2: "'kern' Horizontal Kerning in Latin lookup 1 subtable" V dx=0 dy=0 dh=-33 dv=0 dx=0 dy=0 dh=0 dv=0
PairPos2: "'kern' Horizontal Kerning in Latin lookup 1 subtable" V dx=0 dy=0 dh=-33 dv=0 dx=0 dy=0 dh=0 dv=0
PairPos2: "'kern' Horizontal Kerning in Latin lookup 1 subtable" V dx=0 dy=0 dh=-33 dv=0 dx=0 dy=0 dh=0 dv=0
PairPos2: "'kern' Horizontal Kerning in Latin lookup 1 subtable" T dx=0 dy=0 dh=-31 dv=0 dx=0 dy=0 dh=0 dv=0
PairPos2: "'kern' Horizontal Kerning in Latin lookup 1 subtable" T dx=0 dy=0 dh=-31 dv=0 dx=0 dy=0 dh=0 dv=0
PairPos2: "'kern' Horizontal Kerning in Latin lookup 1 subtable" T dx=0 dy=0 dh=-31 dv=0 dx=0 dy=0 dh=0 dv=0
PairPos2: "'kern' Horizontal Kerning in Latin lookup 1 subtable" T dx=0 dy=0 dh=-31 dv=0 dx=0 dy=0 dh=0 dv=0
PairPos2: "'kern' Horizontal Kerning in Latin lookup 1 subtable" T dx=0 dy=0 dh=-31 dv=0 dx=0 dy=0 dh=0 dv=0
PairPos2: "'kern' Horizontal Kerning in Latin lookup 1 subtable" J dx=0 dy=0 dh=-17 dv=0 dx=0 dy=0 dh=0 dv=0
PairPos2: "'kern' Horizontal Kerning in Latin lookup 1 subtable" J dx=0 dy=0 dh=-17 dv=0 dx=0 dy=0 dh=0 dv=0
PairPos2: "'kern' Horizontal Kerning in Latin lookup 1 subtable" J dx=0 dy=0 dh=-17 dv=0 dx=0 dy=0 dh=0 dv=0
PairPos2: "'kern' Horizontal Kerning in Latin lookup 1 subtable" J dx=0 dy=0 dh=-17 dv=0 dx=0 dy=0 dh=0 dv=0
PairPos2: "'kern' Horizontal Kerning in Latin lookup 1 subtable" J dx=0 dy=0 dh=-17 dv=0 dx=0 dy=0 dh=0 dv=0
PairPos2: "'kern' Horizontal Kerning in Latin lookup 1 subtable" seven dx=0 dy=0 dh=-29 dv=0 dx=0 dy=0 dh=0 dv=0
PairPos2: "'kern' Horizontal Kerning in Latin lookup 1 subtable" seven dx=0 dy=0 dh=-29 dv=0 dx=0 dy=0 dh=0 dv=0
PairPos2: "'kern' Horizontal Kerning in Latin lookup 1 subtable" seven dx=0 dy=0 dh=-29 dv=0 dx=0 dy=0 dh=0 dv=0
PairPos2: "'kern' Horizontal Kerning in Latin lookup 1 subtable" seven dx=0 dy=0 dh=-29 dv=0 dx=0 dy=0 dh=0 dv=0
PairPos2: "'kern' Horizontal Kerning in Latin lookup 1 subtable" seven dx=0 dy=0 dh=-29 dv=0 dx=0 dy=0 dh=0 dv=0
PairPos2: "'kern' Horizontal Kerning in Latin lookup 1 subtable" four dx=0 dy=0 dh=31 dv=0 dx=0 dy=0 dh=0 dv=0
PairPos2: "'kern' Horizontal Kerning in Latin lookup 1 subtable" four dx=0 dy=0 dh=31 dv=0 dx=0 dy=0 dh=0 dv=0
PairPos2: "'kern' Horizontal Kerning in Latin lookup 1 subtable" four dx=0 dy=0 dh=31 dv=0 dx=0 dy=0 dh=0 dv=0
PairPos2: "'kern' Horizontal Kerning in Latin lookup 1 subtable" four dx=0 dy=0 dh=31 dv=0 dx=0 dy=0 dh=0 dv=0
PairPos2: "'kern' Horizontal Kerning in Latin lookup 1 subtable" four dx=0 dy=0 dh=31 dv=0 dx=0 dy=0 dh=0 dv=0
PairPos2: "'kern' Horizontal Kerning in Latin lookup 1 subtable" parenright dx=0 dy=0 dh=-22 dv=0 dx=0 dy=0 dh=0 dv=0
PairPos2: "'kern' Horizontal Kerning in Latin lookup 1 subtable" parenright dx=0 dy=0 dh=-22 dv=0 dx=0 dy=0 dh=0 dv=0
PairPos2: "'kern' Horizontal Kerning in Latin lookup 1 subtable" parenright dx=0 dy=0 dh=-22 dv=0 dx=0 dy=0 dh=0 dv=0
PairPos2: "'kern' Horizontal Kerning in Latin lookup 1 subtable" parenright dx=0 dy=0 dh=-22 dv=0 dx=0 dy=0 dh=0 dv=0
PairPos2: "'kern' Horizontal Kerning in Latin lookup 1 subtable" parenright dx=0 dy=0 dh=-22 dv=0 dx=0 dy=0 dh=0 dv=0
PairPos2: "'kern' Horizontal Kerning in Latin lookup 1 subtable" quotedbl dx=0 dy=0 dh=-38 dv=0 dx=0 dy=0 dh=0 dv=0
PairPos2: "'kern' Horizontal Kerning in Latin lookup 1 subtable" quotedbl dx=0 dy=0 dh=-38 dv=0 dx=0 dy=0 dh=0 dv=0
PairPos2: "'kern' Horizontal Kerning in Latin lookup 1 subtable" quotedbl dx=0 dy=0 dh=-38 dv=0 dx=0 dy=0 dh=0 dv=0
PairPos2: "'kern' Horizontal Kerning in Latin lookup 1 subtable" quotedbl dx=0 dy=0 dh=-38 dv=0 dx=0 dy=0 dh=0 dv=0
PairPos2: "'kern' Horizontal Kerning in Latin lookup 1 subtable" quotedbl dx=0 dy=0 dh=-38 dv=0 dx=0 dy=0 dh=0 dv=0
EndChar

StartChar: five
Encoding: 53 53 24
Width: 775
GlyphClass: 2
Flags: W
LayerCount: 2
Fore
SplineSet
109 41 m 1,0,1
 334 61 334 61 458 146 c 1,2,3
 584 230 584 230 584 359 c 0,4,5
 584 617 584 617 170 645 c 1,6,-1
 366 1144 l 1,7,-1
 804 1171 l 1,8,-1
 759 1017 l 1,9,-1
 397 999 l 1,10,-1
 314 786 l 1,11,12
 531 772 531 772 657 672 c 1,13,14
 713 626 713 626 743 561 c 128,-1,15
 773 496 773 496 773 423 c 0,16,17
 773 338 773 338 732 258 c 128,-1,18
 691 178 691 178 614 114 c 1,19,20
 535 50 535 50 409 5 c 1,21,22
 284 -38 284 -38 114 -48 c 1,23,-1
 109 41 l 1,0,1
EndSplineSet
EndChar

StartChar: six
Encoding: 54 54 25
Width: 905
GlyphClass: 2
Flags: W
LayerCount: 2
Fore
SplineSet
377 596 m 1,0,1
 414 633 414 633 486 663 c 1,2,3
 509 671 509 671 559 685 c 1,4,5
 598 693 598 693 637 693 c 0,6,7
 697 693 697 693 749 668 c 128,-1,8
 801 643 801 643 837 599 c 0,9,10
 870 558 870 558 892 501 c 1,11,12
 910 446 910 446 910 387 c 0,13,14
 910 305 910 305 872 230 c 1,15,16
 790 77 790 77 629 12 c 1,17,18
 550 -21 550 -21 463 -22 c 1,19,20
 375 -22 375 -22 316 7 c 0,21,22
 253 38 253 38 217 84 c 1,23,24
 143 173 143 173 142 334 c 1,25,26
 142 502 142 502 250 693 c 1,27,28
 299 777 299 777 369 858 c 128,-1,29
 439 939 439 939 514 999 c 0,30,31
 674 1129 674 1129 854 1188 c 1,32,-1
 882 1132 l 1,33,34
 786 1090 786 1090 695 1026 c 1,35,36
 619 970 619 970 549 893.5 c 128,-1,37
 479 817 479 817 437 744 c 0,38,39
 392 667 392 667 367 596 c 1,40,-1
 377 596 l 1,0,1
483 60 m 0,41,42
 617 60 617 60 682 159 c 1,43,44
 728 240 728 240 728 362 c 0,45,46
 728 449 728 449 685 519 c 1,47,48
 636 592 636 592 553 592 c 0,49,50
 537 592 537 592 495 586 c 1,51,52
 429 568 429 568 385 543 c 1,53,54
 363 528 363 528 354 516 c 1,55,56
 347 490 347 490 336.5 434.5 c 128,-1,57
 326 379 326 379 326 336 c 0,58,59
 326 224 326 224 366 144 c 0,60,61
 384 107 384 107 415 83 c 1,62,63
 443 60 443 60 483 60 c 0,41,42
EndSplineSet
PairPos2: "'kern' Horizontal Kerning in Latin lookup 1 subtable" degree dx=0 dy=0 dh=-20 dv=0 dx=0 dy=0 dh=0 dv=0
PairPos2: "'kern' Horizontal Kerning in Latin lookup 1 subtable" degree dx=0 dy=0 dh=-20 dv=0 dx=0 dy=0 dh=0 dv=0
PairPos2: "'kern' Horizontal Kerning in Latin lookup 1 subtable" degree dx=0 dy=0 dh=-20 dv=0 dx=0 dy=0 dh=0 dv=0
PairPos2: "'kern' Horizontal Kerning in Latin lookup 1 subtable" degree dx=0 dy=0 dh=-20 dv=0 dx=0 dy=0 dh=0 dv=0
PairPos2: "'kern' Horizontal Kerning in Latin lookup 1 subtable" degree dx=0 dy=0 dh=-20 dv=0 dx=0 dy=0 dh=0 dv=0
PairPos2: "'kern' Horizontal Kerning in Latin lookup 1 subtable" y dx=0 dy=0 dh=-19 dv=0 dx=0 dy=0 dh=0 dv=0
PairPos2: "'kern' Horizontal Kerning in Latin lookup 1 subtable" y dx=0 dy=0 dh=-19 dv=0 dx=0 dy=0 dh=0 dv=0
PairPos2: "'kern' Horizontal Kerning in Latin lookup 1 subtable" y dx=0 dy=0 dh=-19 dv=0 dx=0 dy=0 dh=0 dv=0
PairPos2: "'kern' Horizontal Kerning in Latin lookup 1 subtable" y dx=0 dy=0 dh=-19 dv=0 dx=0 dy=0 dh=0 dv=0
PairPos2: "'kern' Horizontal Kerning in Latin lookup 1 subtable" y dx=0 dy=0 dh=-19 dv=0 dx=0 dy=0 dh=0 dv=0
PairPos2: "'kern' Horizontal Kerning in Latin lookup 1 subtable" Y dx=0 dy=0 dh=-18 dv=0 dx=0 dy=0 dh=0 dv=0
PairPos2: "'kern' Horizontal Kerning in Latin lookup 1 subtable" Y dx=0 dy=0 dh=-18 dv=0 dx=0 dy=0 dh=0 dv=0
PairPos2: "'kern' Horizontal Kerning in Latin lookup 1 subtable" Y dx=0 dy=0 dh=-18 dv=0 dx=0 dy=0 dh=0 dv=0
PairPos2: "'kern' Horizontal Kerning in Latin lookup 1 subtable" Y dx=0 dy=0 dh=-18 dv=0 dx=0 dy=0 dh=0 dv=0
PairPos2: "'kern' Horizontal Kerning in Latin lookup 1 subtable" Y dx=0 dy=0 dh=-18 dv=0 dx=0 dy=0 dh=0 dv=0
PairPos2: "'kern' Horizontal Kerning in Latin lookup 1 subtable" V dx=0 dy=0 dh=-19 dv=0 dx=0 dy=0 dh=0 dv=0
PairPos2: "'kern' Horizontal Kerning in Latin lookup 1 subtable" V dx=0 dy=0 dh=-19 dv=0 dx=0 dy=0 dh=0 dv=0
PairPos2: "'kern' Horizontal Kerning in Latin lookup 1 subtable" V dx=0 dy=0 dh=-19 dv=0 dx=0 dy=0 dh=0 dv=0
PairPos2: "'kern' Horizontal Kerning in Latin lookup 1 subtable" V dx=0 dy=0 dh=-19 dv=0 dx=0 dy=0 dh=0 dv=0
PairPos2: "'kern' Horizontal Kerning in Latin lookup 1 subtable" V dx=0 dy=0 dh=-19 dv=0 dx=0 dy=0 dh=0 dv=0
PairPos2: "'kern' Horizontal Kerning in Latin lookup 1 subtable" T dx=0 dy=0 dh=-22 dv=0 dx=0 dy=0 dh=0 dv=0
PairPos2: "'kern' Horizontal Kerning in Latin lookup 1 subtable" T dx=0 dy=0 dh=-22 dv=0 dx=0 dy=0 dh=0 dv=0
PairPos2: "'kern' Horizontal Kerning in Latin lookup 1 subtable" T dx=0 dy=0 dh=-22 dv=0 dx=0 dy=0 dh=0 dv=0
PairPos2: "'kern' Horizontal Kerning in Latin lookup 1 subtable" T dx=0 dy=0 dh=-22 dv=0 dx=0 dy=0 dh=0 dv=0
PairPos2: "'kern' Horizontal Kerning in Latin lookup 1 subtable" T dx=0 dy=0 dh=-22 dv=0 dx=0 dy=0 dh=0 dv=0
PairPos2: "'kern' Horizontal Kerning in Latin lookup 1 subtable" seven dx=0 dy=0 dh=-22 dv=0 dx=0 dy=0 dh=0 dv=0
PairPos2: "'kern' Horizontal Kerning in Latin lookup 1 subtable" seven dx=0 dy=0 dh=-22 dv=0 dx=0 dy=0 dh=0 dv=0
PairPos2: "'kern' Horizontal Kerning in Latin lookup 1 subtable" seven dx=0 dy=0 dh=-22 dv=0 dx=0 dy=0 dh=0 dv=0
PairPos2: "'kern' Horizontal Kerning in Latin lookup 1 subtable" seven dx=0 dy=0 dh=-22 dv=0 dx=0 dy=0 dh=0 dv=0
PairPos2: "'kern' Horizontal Kerning in Latin lookup 1 subtable" seven dx=0 dy=0 dh=-22 dv=0 dx=0 dy=0 dh=0 dv=0
PairPos2: "'kern' Horizontal Kerning in Latin lookup 1 subtable" quotedbl dx=0 dy=0 dh=-22 dv=0 dx=0 dy=0 dh=0 dv=0
PairPos2: "'kern' Horizontal Kerning in Latin lookup 1 subtable" quotedbl dx=0 dy=0 dh=-22 dv=0 dx=0 dy=0 dh=0 dv=0
PairPos2: "'kern' Horizontal Kerning in Latin lookup 1 subtable" quotedbl dx=0 dy=0 dh=-22 dv=0 dx=0 dy=0 dh=0 dv=0
PairPos2: "'kern' Horizontal Kerning in Latin lookup 1 subtable" quotedbl dx=0 dy=0 dh=-22 dv=0 dx=0 dy=0 dh=0 dv=0
PairPos2: "'kern' Horizontal Kerning in Latin lookup 1 subtable" quotedbl dx=0 dy=0 dh=-22 dv=0 dx=0 dy=0 dh=0 dv=0
EndChar

StartChar: seven
Encoding: 55 55 26
Width: 846
GlyphClass: 2
Flags: W
LayerCount: 2
Fore
SplineSet
306 1007 m 1,0,-1
 237 873 l 1,1,-1
 170 887 l 1,2,-1
 232 1156 l 1,3,-1
 988 1156 l 1,4,-1
 983 1105 l 1,5,-1
 402 -33 l 1,6,-1
 314 -3 l 1,7,-1
 809 1007 l 1,8,-1
 306 1007 l 1,0,-1
EndSplineSet
PairPos2: "'kern' Horizontal Kerning in Latin lookup 1 subtable" ellipsis dx=0 dy=0 dh=-36 dv=0 dx=0 dy=0 dh=0 dv=0
PairPos2: "'kern' Horizontal Kerning in Latin lookup 1 subtable" ellipsis dx=0 dy=0 dh=-36 dv=0 dx=0 dy=0 dh=0 dv=0
PairPos2: "'kern' Horizontal Kerning in Latin lookup 1 subtable" ellipsis dx=0 dy=0 dh=-36 dv=0 dx=0 dy=0 dh=0 dv=0
PairPos2: "'kern' Horizontal Kerning in Latin lookup 1 subtable" ellipsis dx=0 dy=0 dh=-36 dv=0 dx=0 dy=0 dh=0 dv=0
PairPos2: "'kern' Horizontal Kerning in Latin lookup 1 subtable" ellipsis dx=0 dy=0 dh=-36 dv=0 dx=0 dy=0 dh=0 dv=0
PairPos2: "'kern' Horizontal Kerning in Latin lookup 1 subtable" cent dx=0 dy=0 dh=-22 dv=0 dx=0 dy=0 dh=0 dv=0
PairPos2: "'kern' Horizontal Kerning in Latin lookup 1 subtable" cent dx=0 dy=0 dh=-22 dv=0 dx=0 dy=0 dh=0 dv=0
PairPos2: "'kern' Horizontal Kerning in Latin lookup 1 subtable" cent dx=0 dy=0 dh=-22 dv=0 dx=0 dy=0 dh=0 dv=0
PairPos2: "'kern' Horizontal Kerning in Latin lookup 1 subtable" cent dx=0 dy=0 dh=-22 dv=0 dx=0 dy=0 dh=0 dv=0
PairPos2: "'kern' Horizontal Kerning in Latin lookup 1 subtable" cent dx=0 dy=0 dh=-22 dv=0 dx=0 dy=0 dh=0 dv=0
PairPos2: "'kern' Horizontal Kerning in Latin lookup 1 subtable" s dx=0 dy=0 dh=-18 dv=0 dx=0 dy=0 dh=0 dv=0
PairPos2: "'kern' Horizontal Kerning in Latin lookup 1 subtable" s dx=0 dy=0 dh=-18 dv=0 dx=0 dy=0 dh=0 dv=0
PairPos2: "'kern' Horizontal Kerning in Latin lookup 1 subtable" s dx=0 dy=0 dh=-18 dv=0 dx=0 dy=0 dh=0 dv=0
PairPos2: "'kern' Horizontal Kerning in Latin lookup 1 subtable" s dx=0 dy=0 dh=-18 dv=0 dx=0 dy=0 dh=0 dv=0
PairPos2: "'kern' Horizontal Kerning in Latin lookup 1 subtable" s dx=0 dy=0 dh=-18 dv=0 dx=0 dy=0 dh=0 dv=0
PairPos2: "'kern' Horizontal Kerning in Latin lookup 1 subtable" o dx=0 dy=0 dh=-28 dv=0 dx=0 dy=0 dh=0 dv=0
PairPos2: "'kern' Horizontal Kerning in Latin lookup 1 subtable" o dx=0 dy=0 dh=-28 dv=0 dx=0 dy=0 dh=0 dv=0
PairPos2: "'kern' Horizontal Kerning in Latin lookup 1 subtable" o dx=0 dy=0 dh=-28 dv=0 dx=0 dy=0 dh=0 dv=0
PairPos2: "'kern' Horizontal Kerning in Latin lookup 1 subtable" o dx=0 dy=0 dh=-28 dv=0 dx=0 dy=0 dh=0 dv=0
PairPos2: "'kern' Horizontal Kerning in Latin lookup 1 subtable" o dx=0 dy=0 dh=-28 dv=0 dx=0 dy=0 dh=0 dv=0
PairPos2: "'kern' Horizontal Kerning in Latin lookup 1 subtable" g dx=0 dy=0 dh=-29 dv=0 dx=0 dy=0 dh=0 dv=0
PairPos2: "'kern' Horizontal Kerning in Latin lookup 1 subtable" g dx=0 dy=0 dh=-29 dv=0 dx=0 dy=0 dh=0 dv=0
PairPos2: "'kern' Horizontal Kerning in Latin lookup 1 subtable" g dx=0 dy=0 dh=-29 dv=0 dx=0 dy=0 dh=0 dv=0
PairPos2: "'kern' Horizontal Kerning in Latin lookup 1 subtable" g dx=0 dy=0 dh=-29 dv=0 dx=0 dy=0 dh=0 dv=0
PairPos2: "'kern' Horizontal Kerning in Latin lookup 1 subtable" g dx=0 dy=0 dh=-29 dv=0 dx=0 dy=0 dh=0 dv=0
PairPos2: "'kern' Horizontal Kerning in Latin lookup 1 subtable" e dx=0 dy=0 dh=-26 dv=0 dx=0 dy=0 dh=0 dv=0
PairPos2: "'kern' Horizontal Kerning in Latin lookup 1 subtable" e dx=0 dy=0 dh=-26 dv=0 dx=0 dy=0 dh=0 dv=0
PairPos2: "'kern' Horizontal Kerning in Latin lookup 1 subtable" e dx=0 dy=0 dh=-26 dv=0 dx=0 dy=0 dh=0 dv=0
PairPos2: "'kern' Horizontal Kerning in Latin lookup 1 subtable" e dx=0 dy=0 dh=-26 dv=0 dx=0 dy=0 dh=0 dv=0
PairPos2: "'kern' Horizontal Kerning in Latin lookup 1 subtable" e dx=0 dy=0 dh=-26 dv=0 dx=0 dy=0 dh=0 dv=0
PairPos2: "'kern' Horizontal Kerning in Latin lookup 1 subtable" d dx=0 dy=0 dh=-28 dv=0 dx=0 dy=0 dh=0 dv=0
PairPos2: "'kern' Horizontal Kerning in Latin lookup 1 subtable" d dx=0 dy=0 dh=-28 dv=0 dx=0 dy=0 dh=0 dv=0
PairPos2: "'kern' Horizontal Kerning in Latin lookup 1 subtable" d dx=0 dy=0 dh=-28 dv=0 dx=0 dy=0 dh=0 dv=0
PairPos2: "'kern' Horizontal Kerning in Latin lookup 1 subtable" d dx=0 dy=0 dh=-28 dv=0 dx=0 dy=0 dh=0 dv=0
PairPos2: "'kern' Horizontal Kerning in Latin lookup 1 subtable" d dx=0 dy=0 dh=-28 dv=0 dx=0 dy=0 dh=0 dv=0
PairPos2: "'kern' Horizontal Kerning in Latin lookup 1 subtable" c dx=0 dy=0 dh=-29 dv=0 dx=0 dy=0 dh=0 dv=0
PairPos2: "'kern' Horizontal Kerning in Latin lookup 1 subtable" c dx=0 dy=0 dh=-29 dv=0 dx=0 dy=0 dh=0 dv=0
PairPos2: "'kern' Horizontal Kerning in Latin lookup 1 subtable" c dx=0 dy=0 dh=-29 dv=0 dx=0 dy=0 dh=0 dv=0
PairPos2: "'kern' Horizontal Kerning in Latin lookup 1 subtable" c dx=0 dy=0 dh=-29 dv=0 dx=0 dy=0 dh=0 dv=0
PairPos2: "'kern' Horizontal Kerning in Latin lookup 1 subtable" c dx=0 dy=0 dh=-29 dv=0 dx=0 dy=0 dh=0 dv=0
PairPos2: "'kern' Horizontal Kerning in Latin lookup 1 subtable" b dx=0 dy=0 dh=31 dv=0 dx=0 dy=0 dh=0 dv=0
PairPos2: "'kern' Horizontal Kerning in Latin lookup 1 subtable" b dx=0 dy=0 dh=31 dv=0 dx=0 dy=0 dh=0 dv=0
PairPos2: "'kern' Horizontal Kerning in Latin lookup 1 subtable" b dx=0 dy=0 dh=31 dv=0 dx=0 dy=0 dh=0 dv=0
PairPos2: "'kern' Horizontal Kerning in Latin lookup 1 subtable" b dx=0 dy=0 dh=31 dv=0 dx=0 dy=0 dh=0 dv=0
PairPos2: "'kern' Horizontal Kerning in Latin lookup 1 subtable" b dx=0 dy=0 dh=31 dv=0 dx=0 dy=0 dh=0 dv=0
PairPos2: "'kern' Horizontal Kerning in Latin lookup 1 subtable" a dx=0 dy=0 dh=-31 dv=0 dx=0 dy=0 dh=0 dv=0
PairPos2: "'kern' Horizontal Kerning in Latin lookup 1 subtable" a dx=0 dy=0 dh=-31 dv=0 dx=0 dy=0 dh=0 dv=0
PairPos2: "'kern' Horizontal Kerning in Latin lookup 1 subtable" a dx=0 dy=0 dh=-31 dv=0 dx=0 dy=0 dh=0 dv=0
PairPos2: "'kern' Horizontal Kerning in Latin lookup 1 subtable" a dx=0 dy=0 dh=-31 dv=0 dx=0 dy=0 dh=0 dv=0
PairPos2: "'kern' Horizontal Kerning in Latin lookup 1 subtable" a dx=0 dy=0 dh=-31 dv=0 dx=0 dy=0 dh=0 dv=0
PairPos2: "'kern' Horizontal Kerning in Latin lookup 1 subtable" Y dx=0 dy=0 dh=58 dv=0 dx=0 dy=0 dh=0 dv=0
PairPos2: "'kern' Horizontal Kerning in Latin lookup 1 subtable" Y dx=0 dy=0 dh=58 dv=0 dx=0 dy=0 dh=0 dv=0
PairPos2: "'kern' Horizontal Kerning in Latin lookup 1 subtable" Y dx=0 dy=0 dh=58 dv=0 dx=0 dy=0 dh=0 dv=0
PairPos2: "'kern' Horizontal Kerning in Latin lookup 1 subtable" Y dx=0 dy=0 dh=58 dv=0 dx=0 dy=0 dh=0 dv=0
PairPos2: "'kern' Horizontal Kerning in Latin lookup 1 subtable" Y dx=0 dy=0 dh=58 dv=0 dx=0 dy=0 dh=0 dv=0
PairPos2: "'kern' Horizontal Kerning in Latin lookup 1 subtable" W dx=0 dy=0 dh=47 dv=0 dx=0 dy=0 dh=0 dv=0
PairPos2: "'kern' Horizontal Kerning in Latin lookup 1 subtable" W dx=0 dy=0 dh=47 dv=0 dx=0 dy=0 dh=0 dv=0
PairPos2: "'kern' Horizontal Kerning in Latin lookup 1 subtable" W dx=0 dy=0 dh=47 dv=0 dx=0 dy=0 dh=0 dv=0
PairPos2: "'kern' Horizontal Kerning in Latin lookup 1 subtable" W dx=0 dy=0 dh=47 dv=0 dx=0 dy=0 dh=0 dv=0
PairPos2: "'kern' Horizontal Kerning in Latin lookup 1 subtable" W dx=0 dy=0 dh=47 dv=0 dx=0 dy=0 dh=0 dv=0
PairPos2: "'kern' Horizontal Kerning in Latin lookup 1 subtable" V dx=0 dy=0 dh=60 dv=0 dx=0 dy=0 dh=0 dv=0
PairPos2: "'kern' Horizontal Kerning in Latin lookup 1 subtable" V dx=0 dy=0 dh=60 dv=0 dx=0 dy=0 dh=0 dv=0
PairPos2: "'kern' Horizontal Kerning in Latin lookup 1 subtable" V dx=0 dy=0 dh=60 dv=0 dx=0 dy=0 dh=0 dv=0
PairPos2: "'kern' Horizontal Kerning in Latin lookup 1 subtable" V dx=0 dy=0 dh=60 dv=0 dx=0 dy=0 dh=0 dv=0
PairPos2: "'kern' Horizontal Kerning in Latin lookup 1 subtable" V dx=0 dy=0 dh=60 dv=0 dx=0 dy=0 dh=0 dv=0
PairPos2: "'kern' Horizontal Kerning in Latin lookup 1 subtable" A dx=0 dy=0 dh=-39 dv=0 dx=0 dy=0 dh=0 dv=0
PairPos2: "'kern' Horizontal Kerning in Latin lookup 1 subtable" A dx=0 dy=0 dh=-39 dv=0 dx=0 dy=0 dh=0 dv=0
PairPos2: "'kern' Horizontal Kerning in Latin lookup 1 subtable" A dx=0 dy=0 dh=-39 dv=0 dx=0 dy=0 dh=0 dv=0
PairPos2: "'kern' Horizontal Kerning in Latin lookup 1 subtable" A dx=0 dy=0 dh=-39 dv=0 dx=0 dy=0 dh=0 dv=0
PairPos2: "'kern' Horizontal Kerning in Latin lookup 1 subtable" A dx=0 dy=0 dh=-39 dv=0 dx=0 dy=0 dh=0 dv=0
PairPos2: "'kern' Horizontal Kerning in Latin lookup 1 subtable" slash dx=0 dy=0 dh=-31 dv=0 dx=0 dy=0 dh=0 dv=0
PairPos2: "'kern' Horizontal Kerning in Latin lookup 1 subtable" slash dx=0 dy=0 dh=-31 dv=0 dx=0 dy=0 dh=0 dv=0
PairPos2: "'kern' Horizontal Kerning in Latin lookup 1 subtable" slash dx=0 dy=0 dh=-31 dv=0 dx=0 dy=0 dh=0 dv=0
PairPos2: "'kern' Horizontal Kerning in Latin lookup 1 subtable" slash dx=0 dy=0 dh=-31 dv=0 dx=0 dy=0 dh=0 dv=0
PairPos2: "'kern' Horizontal Kerning in Latin lookup 1 subtable" slash dx=0 dy=0 dh=-31 dv=0 dx=0 dy=0 dh=0 dv=0
PairPos2: "'kern' Horizontal Kerning in Latin lookup 1 subtable" comma dx=0 dy=0 dh=-36 dv=0 dx=0 dy=0 dh=0 dv=0
PairPos2: "'kern' Horizontal Kerning in Latin lookup 1 subtable" comma dx=0 dy=0 dh=-36 dv=0 dx=0 dy=0 dh=0 dv=0
PairPos2: "'kern' Horizontal Kerning in Latin lookup 1 subtable" comma dx=0 dy=0 dh=-36 dv=0 dx=0 dy=0 dh=0 dv=0
PairPos2: "'kern' Horizontal Kerning in Latin lookup 1 subtable" comma dx=0 dy=0 dh=-36 dv=0 dx=0 dy=0 dh=0 dv=0
PairPos2: "'kern' Horizontal Kerning in Latin lookup 1 subtable" comma dx=0 dy=0 dh=-36 dv=0 dx=0 dy=0 dh=0 dv=0
PairPos2: "'kern' Horizontal Kerning in Latin lookup 1 subtable" plus dx=0 dy=0 dh=-21 dv=0 dx=0 dy=0 dh=0 dv=0
PairPos2: "'kern' Horizontal Kerning in Latin lookup 1 subtable" plus dx=0 dy=0 dh=-21 dv=0 dx=0 dy=0 dh=0 dv=0
PairPos2: "'kern' Horizontal Kerning in Latin lookup 1 subtable" plus dx=0 dy=0 dh=-21 dv=0 dx=0 dy=0 dh=0 dv=0
PairPos2: "'kern' Horizontal Kerning in Latin lookup 1 subtable" plus dx=0 dy=0 dh=-21 dv=0 dx=0 dy=0 dh=0 dv=0
PairPos2: "'kern' Horizontal Kerning in Latin lookup 1 subtable" plus dx=0 dy=0 dh=-21 dv=0 dx=0 dy=0 dh=0 dv=0
PairPos2: "'kern' Horizontal Kerning in Latin lookup 1 subtable" numbersign dx=0 dy=0 dh=-17 dv=0 dx=0 dy=0 dh=0 dv=0
PairPos2: "'kern' Horizontal Kerning in Latin lookup 1 subtable" numbersign dx=0 dy=0 dh=-17 dv=0 dx=0 dy=0 dh=0 dv=0
PairPos2: "'kern' Horizontal Kerning in Latin lookup 1 subtable" numbersign dx=0 dy=0 dh=-17 dv=0 dx=0 dy=0 dh=0 dv=0
PairPos2: "'kern' Horizontal Kerning in Latin lookup 1 subtable" numbersign dx=0 dy=0 dh=-17 dv=0 dx=0 dy=0 dh=0 dv=0
PairPos2: "'kern' Horizontal Kerning in Latin lookup 1 subtable" numbersign dx=0 dy=0 dh=-17 dv=0 dx=0 dy=0 dh=0 dv=0
EndChar

StartChar: eight
Encoding: 56 56 27
Width: 913
GlyphClass: 2
Flags: W
LayerCount: 2
Fore
SplineSet
469 543 m 1,0,-1
 406 493 l 1,1,2
 341 438 341 438 313 369 c 1,3,4
 298 329 298 329 299 275 c 1,5,6
 299 196 299 196 352 129 c 0,7,8
 376 100 376 100 408 83 c 1,9,10
 437 65 437 65 477 65 c 0,11,12
 603 65 603 65 659 121 c 1,13,14
 715 180 715 180 715 273 c 0,15,16
 715 309 715 309 695 344 c 1,17,18
 673 379 673 379 638 414 c 1,19,20
 603 446 603 446 558 478 c 2,21,-1
 469 543 l 1,0,-1
132 237 m 0,22,23
 132 335 132 335 202.5 417 c 128,-1,24
 273 499 273 499 418 577 c 1,25,-1
 419 586 l 1,26,27
 395 600 395 600 368 625 c 1,28,29
 303 678 303 678 275 753 c 0,30,31
 260 793 260 793 261 837 c 1,32,33
 261 902 261 902 292 961 c 1,34,35
 352 1082 352 1082 497 1145 c 0,36,37
 566 1175 566 1175 643 1175 c 0,38,39
 763 1175 763 1175 840 1103 c 0,40,41
 872 1072 872 1072 892 1029 c 1,42,43
 910 983 910 983 911 936 c 0,44,45
 911 889 911 889 892 840 c 1,46,47
 870 790 870 790 843 753 c 0,48,49
 813 710 813 710 770 680 c 1,50,51
 728 648 728 648 682 632 c 1,52,-1
 679 622 l 1,53,54
 879 477 879 477 879 328 c 0,55,56
 879 260 879 260 847 195.5 c 128,-1,57
 815 131 815 131 755.5 81 c 128,-1,58
 696 31 696 31 611 2 c 0,59,60
 526 -26 526 -26 421 -26 c 0,61,62
 290 -26 290 -26 216 43 c 1,63,64
 175 79 175 79 155 126 c 1,65,66
 132 176 132 176 132 237 c 0,22,23
621 662 m 1,67,68
 660 684 660 684 684 705 c 0,69,70
 710 727 710 727 730 756 c 1,71,72
 747 787 747 787 757 822 c 1,73,74
 765 861 765 861 765 908 c 0,75,76
 765 992 765 992 720 1047 c 1,77,78
 675 1100 675 1100 608 1100 c 0,79,80
 527 1100 527 1100 466 1039 c 1,81,82
 418 986 418 986 418 915 c 0,83,84
 418 839 418 839 474 778 c 0,85,86
 530 718 530 718 621 662 c 1,67,68
EndSplineSet
PairPos2: "'kern' Horizontal Kerning in Latin lookup 1 subtable" Y dx=0 dy=0 dh=-29 dv=0 dx=0 dy=0 dh=0 dv=0
PairPos2: "'kern' Horizontal Kerning in Latin lookup 1 subtable" Y dx=0 dy=0 dh=-29 dv=0 dx=0 dy=0 dh=0 dv=0
PairPos2: "'kern' Horizontal Kerning in Latin lookup 1 subtable" Y dx=0 dy=0 dh=-29 dv=0 dx=0 dy=0 dh=0 dv=0
PairPos2: "'kern' Horizontal Kerning in Latin lookup 1 subtable" Y dx=0 dy=0 dh=-29 dv=0 dx=0 dy=0 dh=0 dv=0
PairPos2: "'kern' Horizontal Kerning in Latin lookup 1 subtable" Y dx=0 dy=0 dh=-29 dv=0 dx=0 dy=0 dh=0 dv=0
PairPos2: "'kern' Horizontal Kerning in Latin lookup 1 subtable" W dx=0 dy=0 dh=-24 dv=0 dx=0 dy=0 dh=0 dv=0
PairPos2: "'kern' Horizontal Kerning in Latin lookup 1 subtable" W dx=0 dy=0 dh=-24 dv=0 dx=0 dy=0 dh=0 dv=0
PairPos2: "'kern' Horizontal Kerning in Latin lookup 1 subtable" W dx=0 dy=0 dh=-24 dv=0 dx=0 dy=0 dh=0 dv=0
PairPos2: "'kern' Horizontal Kerning in Latin lookup 1 subtable" W dx=0 dy=0 dh=-24 dv=0 dx=0 dy=0 dh=0 dv=0
PairPos2: "'kern' Horizontal Kerning in Latin lookup 1 subtable" W dx=0 dy=0 dh=-24 dv=0 dx=0 dy=0 dh=0 dv=0
PairPos2: "'kern' Horizontal Kerning in Latin lookup 1 subtable" V dx=0 dy=0 dh=-30 dv=0 dx=0 dy=0 dh=0 dv=0
PairPos2: "'kern' Horizontal Kerning in Latin lookup 1 subtable" V dx=0 dy=0 dh=-30 dv=0 dx=0 dy=0 dh=0 dv=0
PairPos2: "'kern' Horizontal Kerning in Latin lookup 1 subtable" V dx=0 dy=0 dh=-30 dv=0 dx=0 dy=0 dh=0 dv=0
PairPos2: "'kern' Horizontal Kerning in Latin lookup 1 subtable" V dx=0 dy=0 dh=-30 dv=0 dx=0 dy=0 dh=0 dv=0
PairPos2: "'kern' Horizontal Kerning in Latin lookup 1 subtable" V dx=0 dy=0 dh=-30 dv=0 dx=0 dy=0 dh=0 dv=0
PairPos2: "'kern' Horizontal Kerning in Latin lookup 1 subtable" U dx=0 dy=0 dh=-21 dv=0 dx=0 dy=0 dh=0 dv=0
PairPos2: "'kern' Horizontal Kerning in Latin lookup 1 subtable" U dx=0 dy=0 dh=-21 dv=0 dx=0 dy=0 dh=0 dv=0
PairPos2: "'kern' Horizontal Kerning in Latin lookup 1 subtable" U dx=0 dy=0 dh=-21 dv=0 dx=0 dy=0 dh=0 dv=0
PairPos2: "'kern' Horizontal Kerning in Latin lookup 1 subtable" U dx=0 dy=0 dh=-21 dv=0 dx=0 dy=0 dh=0 dv=0
PairPos2: "'kern' Horizontal Kerning in Latin lookup 1 subtable" U dx=0 dy=0 dh=-21 dv=0 dx=0 dy=0 dh=0 dv=0
PairPos2: "'kern' Horizontal Kerning in Latin lookup 1 subtable" J dx=0 dy=0 dh=-18 dv=0 dx=0 dy=0 dh=0 dv=0
PairPos2: "'kern' Horizontal Kerning in Latin lookup 1 subtable" J dx=0 dy=0 dh=-18 dv=0 dx=0 dy=0 dh=0 dv=0
PairPos2: "'kern' Horizontal Kerning in Latin lookup 1 subtable" J dx=0 dy=0 dh=-18 dv=0 dx=0 dy=0 dh=0 dv=0
PairPos2: "'kern' Horizontal Kerning in Latin lookup 1 subtable" J dx=0 dy=0 dh=-18 dv=0 dx=0 dy=0 dh=0 dv=0
PairPos2: "'kern' Horizontal Kerning in Latin lookup 1 subtable" J dx=0 dy=0 dh=-18 dv=0 dx=0 dy=0 dh=0 dv=0
PairPos2: "'kern' Horizontal Kerning in Latin lookup 1 subtable" parenright dx=0 dy=0 dh=-17 dv=0 dx=0 dy=0 dh=0 dv=0
PairPos2: "'kern' Horizontal Kerning in Latin lookup 1 subtable" parenright dx=0 dy=0 dh=-17 dv=0 dx=0 dy=0 dh=0 dv=0
PairPos2: "'kern' Horizontal Kerning in Latin lookup 1 subtable" parenright dx=0 dy=0 dh=-17 dv=0 dx=0 dy=0 dh=0 dv=0
PairPos2: "'kern' Horizontal Kerning in Latin lookup 1 subtable" parenright dx=0 dy=0 dh=-17 dv=0 dx=0 dy=0 dh=0 dv=0
PairPos2: "'kern' Horizontal Kerning in Latin lookup 1 subtable" parenright dx=0 dy=0 dh=-17 dv=0 dx=0 dy=0 dh=0 dv=0
EndChar

StartChar: nine
Encoding: 57 57 28
Width: 904
GlyphClass: 2
Flags: W
LayerCount: 2
Fore
SplineSet
703 562 m 1,0,1
 683 540 683 540 649 517.5 c 128,-1,2
 615 495 615 495 584 485 c 1,3,4
 518 457 518 457 445 457 c 0,5,6
 321 457 321 457 246 539 c 1,7,8
 177 618 177 618 177 741 c 0,9,10
 177 917 177 917 323 1052 c 0,11,12
 392 1116 392 1116 470 1150 c 128,-1,13
 548 1184 548 1184 620 1184 c 0,14,15
 776 1184 776 1184 862 1075 c 0,16,17
 898 1029 898 1029 918 959 c 1,18,19
 936 890 936 890 936 821 c 0,20,21
 936 671 936 671 884.5 529.5 c 128,-1,22
 833 388 833 388 738 273 c 0,23,24
 642 156 642 156 510 78 c 128,-1,25
 378 0 378 0 223 -26 c 1,26,-1
 210 46 l 1,27,28
 440 110 440 110 569 250 c 0,29,30
 677 367 677 367 720 562 c 1,31,-1
 703 562 l 1,0,1
602 1105 m 0,32,33
 470 1105 470 1105 407 1012 c 1,34,35
 346 929 346 929 346 789 c 0,36,37
 346 742 346 742 357 703 c 0,38,39
 369 660 369 660 392 632 c 1,40,41
 440 563 440 563 531 562 c 0,42,43
 557 562 557 562 586 569 c 1,44,45
 636 576 636 576 695 612 c 0,46,47
 717 626 717 626 733 648 c 1,48,49
 747 693 747 693 751.5 711.5 c 128,-1,50
 756 730 756 730 760 762 c 128,-1,51
 764 794 764 794 764 839 c 0,52,53
 764 878 764 878 753 938 c 1,54,55
 743 979 743 979 720 1024 c 1,56,57
 698 1060 698 1060 668 1082 c 0,58,59
 638 1105 638 1105 602 1105 c 0,32,33
EndSplineSet
PairPos2: "'kern' Horizontal Kerning in Latin lookup 1 subtable" Y dx=0 dy=0 dh=-28 dv=0 dx=0 dy=0 dh=0 dv=0
PairPos2: "'kern' Horizontal Kerning in Latin lookup 1 subtable" Y dx=0 dy=0 dh=-28 dv=0 dx=0 dy=0 dh=0 dv=0
PairPos2: "'kern' Horizontal Kerning in Latin lookup 1 subtable" Y dx=0 dy=0 dh=-28 dv=0 dx=0 dy=0 dh=0 dv=0
PairPos2: "'kern' Horizontal Kerning in Latin lookup 1 subtable" Y dx=0 dy=0 dh=-28 dv=0 dx=0 dy=0 dh=0 dv=0
PairPos2: "'kern' Horizontal Kerning in Latin lookup 1 subtable" Y dx=0 dy=0 dh=-28 dv=0 dx=0 dy=0 dh=0 dv=0
PairPos2: "'kern' Horizontal Kerning in Latin lookup 1 subtable" V dx=0 dy=0 dh=-22 dv=0 dx=0 dy=0 dh=0 dv=0
PairPos2: "'kern' Horizontal Kerning in Latin lookup 1 subtable" V dx=0 dy=0 dh=-22 dv=0 dx=0 dy=0 dh=0 dv=0
PairPos2: "'kern' Horizontal Kerning in Latin lookup 1 subtable" V dx=0 dy=0 dh=-22 dv=0 dx=0 dy=0 dh=0 dv=0
PairPos2: "'kern' Horizontal Kerning in Latin lookup 1 subtable" V dx=0 dy=0 dh=-22 dv=0 dx=0 dy=0 dh=0 dv=0
PairPos2: "'kern' Horizontal Kerning in Latin lookup 1 subtable" V dx=0 dy=0 dh=-22 dv=0 dx=0 dy=0 dh=0 dv=0
PairPos2: "'kern' Horizontal Kerning in Latin lookup 1 subtable" N dx=0 dy=0 dh=-20 dv=0 dx=0 dy=0 dh=0 dv=0
PairPos2: "'kern' Horizontal Kerning in Latin lookup 1 subtable" N dx=0 dy=0 dh=-20 dv=0 dx=0 dy=0 dh=0 dv=0
PairPos2: "'kern' Horizontal Kerning in Latin lookup 1 subtable" N dx=0 dy=0 dh=-20 dv=0 dx=0 dy=0 dh=0 dv=0
PairPos2: "'kern' Horizontal Kerning in Latin lookup 1 subtable" N dx=0 dy=0 dh=-20 dv=0 dx=0 dy=0 dh=0 dv=0
PairPos2: "'kern' Horizontal Kerning in Latin lookup 1 subtable" N dx=0 dy=0 dh=-20 dv=0 dx=0 dy=0 dh=0 dv=0
PairPos2: "'kern' Horizontal Kerning in Latin lookup 1 subtable" M dx=0 dy=0 dh=-17 dv=0 dx=0 dy=0 dh=0 dv=0
PairPos2: "'kern' Horizontal Kerning in Latin lookup 1 subtable" M dx=0 dy=0 dh=-17 dv=0 dx=0 dy=0 dh=0 dv=0
PairPos2: "'kern' Horizontal Kerning in Latin lookup 1 subtable" M dx=0 dy=0 dh=-17 dv=0 dx=0 dy=0 dh=0 dv=0
PairPos2: "'kern' Horizontal Kerning in Latin lookup 1 subtable" M dx=0 dy=0 dh=-17 dv=0 dx=0 dy=0 dh=0 dv=0
PairPos2: "'kern' Horizontal Kerning in Latin lookup 1 subtable" M dx=0 dy=0 dh=-17 dv=0 dx=0 dy=0 dh=0 dv=0
PairPos2: "'kern' Horizontal Kerning in Latin lookup 1 subtable" J dx=0 dy=0 dh=-21 dv=0 dx=0 dy=0 dh=0 dv=0
PairPos2: "'kern' Horizontal Kerning in Latin lookup 1 subtable" J dx=0 dy=0 dh=-21 dv=0 dx=0 dy=0 dh=0 dv=0
PairPos2: "'kern' Horizontal Kerning in Latin lookup 1 subtable" J dx=0 dy=0 dh=-21 dv=0 dx=0 dy=0 dh=0 dv=0
PairPos2: "'kern' Horizontal Kerning in Latin lookup 1 subtable" J dx=0 dy=0 dh=-21 dv=0 dx=0 dy=0 dh=0 dv=0
PairPos2: "'kern' Horizontal Kerning in Latin lookup 1 subtable" J dx=0 dy=0 dh=-21 dv=0 dx=0 dy=0 dh=0 dv=0
PairPos2: "'kern' Horizontal Kerning in Latin lookup 1 subtable" B dx=0 dy=0 dh=-20 dv=0 dx=0 dy=0 dh=0 dv=0
PairPos2: "'kern' Horizontal Kerning in Latin lookup 1 subtable" B dx=0 dy=0 dh=-20 dv=0 dx=0 dy=0 dh=0 dv=0
PairPos2: "'kern' Horizontal Kerning in Latin lookup 1 subtable" B dx=0 dy=0 dh=-20 dv=0 dx=0 dy=0 dh=0 dv=0
PairPos2: "'kern' Horizontal Kerning in Latin lookup 1 subtable" B dx=0 dy=0 dh=-20 dv=0 dx=0 dy=0 dh=0 dv=0
PairPos2: "'kern' Horizontal Kerning in Latin lookup 1 subtable" B dx=0 dy=0 dh=-20 dv=0 dx=0 dy=0 dh=0 dv=0
PairPos2: "'kern' Horizontal Kerning in Latin lookup 1 subtable" A dx=0 dy=0 dh=-26 dv=0 dx=0 dy=0 dh=0 dv=0
PairPos2: "'kern' Horizontal Kerning in Latin lookup 1 subtable" A dx=0 dy=0 dh=-26 dv=0 dx=0 dy=0 dh=0 dv=0
PairPos2: "'kern' Horizontal Kerning in Latin lookup 1 subtable" A dx=0 dy=0 dh=-26 dv=0 dx=0 dy=0 dh=0 dv=0
PairPos2: "'kern' Horizontal Kerning in Latin lookup 1 subtable" A dx=0 dy=0 dh=-26 dv=0 dx=0 dy=0 dh=0 dv=0
PairPos2: "'kern' Horizontal Kerning in Latin lookup 1 subtable" A dx=0 dy=0 dh=-26 dv=0 dx=0 dy=0 dh=0 dv=0
PairPos2: "'kern' Horizontal Kerning in Latin lookup 1 subtable" slash dx=0 dy=0 dh=-24 dv=0 dx=0 dy=0 dh=0 dv=0
PairPos2: "'kern' Horizontal Kerning in Latin lookup 1 subtable" slash dx=0 dy=0 dh=-24 dv=0 dx=0 dy=0 dh=0 dv=0
PairPos2: "'kern' Horizontal Kerning in Latin lookup 1 subtable" slash dx=0 dy=0 dh=-24 dv=0 dx=0 dy=0 dh=0 dv=0
PairPos2: "'kern' Horizontal Kerning in Latin lookup 1 subtable" slash dx=0 dy=0 dh=-24 dv=0 dx=0 dy=0 dh=0 dv=0
PairPos2: "'kern' Horizontal Kerning in Latin lookup 1 subtable" slash dx=0 dy=0 dh=-24 dv=0 dx=0 dy=0 dh=0 dv=0
PairPos2: "'kern' Horizontal Kerning in Latin lookup 1 subtable" parenright dx=0 dy=0 dh=-24 dv=0 dx=0 dy=0 dh=0 dv=0
PairPos2: "'kern' Horizontal Kerning in Latin lookup 1 subtable" parenright dx=0 dy=0 dh=-24 dv=0 dx=0 dy=0 dh=0 dv=0
PairPos2: "'kern' Horizontal Kerning in Latin lookup 1 subtable" parenright dx=0 dy=0 dh=-24 dv=0 dx=0 dy=0 dh=0 dv=0
PairPos2: "'kern' Horizontal Kerning in Latin lookup 1 subtable" parenright dx=0 dy=0 dh=-24 dv=0 dx=0 dy=0 dh=0 dv=0
PairPos2: "'kern' Horizontal Kerning in Latin lookup 1 subtable" parenright dx=0 dy=0 dh=-24 dv=0 dx=0 dy=0 dh=0 dv=0
EndChar

StartChar: colon
Encoding: 58 58 29
Width: 468
GlyphClass: 2
Flags: W
LayerCount: 2
Fore
SplineSet
367 857 m 0,0,1
 410 857 410 857 436.5 827 c 128,-1,2
 463 797 463 797 463 756 c 0,3,4
 463 700 463 700 426 662.5 c 128,-1,5
 389 625 389 625 334 625 c 0,6,7
 297 625 297 625 266 657 c 128,-1,8
 235 689 235 689 235 725 c 0,9,10
 235 781 235 781 273.5 819 c 128,-1,11
 312 857 312 857 367 857 c 0,0,1
271 230 m 0,12,13
 314 230 314 230 341.5 199.5 c 128,-1,14
 369 169 369 169 369 127 c 0,15,16
 369 71 369 71 332 34 c 128,-1,17
 295 -3 295 -3 240 -3 c 0,18,19
 203 -3 203 -3 171 29.5 c 128,-1,20
 139 62 139 62 139 98 c 0,21,22
 139 154 139 154 177.5 192 c 128,-1,23
 216 230 216 230 271 230 c 0,12,13
EndSplineSet
EndChar

StartChar: semicolon
Encoding: 59 59 30
Width: 493
GlyphClass: 2
Flags: W
LayerCount: 2
Fore
SplineSet
50 -233 m 1,0,1
 138 -209 138 -209 192 -160.5 c 128,-1,2
 246 -112 246 -112 246 -61 c 0,3,4
 246 -18 246 -18 222.5 6.5 c 128,-1,5
 199 31 199 31 152 31 c 0,6,7
 149 31 149 31 124 25 c 1,8,9
 117 53 117 53 117 76 c 0,10,11
 117 126 117 126 161.5 164 c 128,-1,12
 206 202 206 202 251 202 c 0,13,14
 305 202 305 202 345 168 c 0,15,16
 390 129 390 129 390 26 c 0,17,18
 390 -39 390 -39 347 -108 c 0,19,20
 296 -192 296 -192 193 -247 c 0,21,22
 135 -278 135 -278 60 -298 c 1,23,-1
 50 -233 l 1,0,1
392 857 m 0,24,25
 435 857 435 857 461.5 827 c 128,-1,26
 488 797 488 797 488 756 c 0,27,28
 488 700 488 700 451 662.5 c 128,-1,29
 414 625 414 625 359 625 c 0,30,31
 322 625 322 625 291 657 c 128,-1,32
 260 689 260 689 260 725 c 0,33,34
 260 781 260 781 298.5 819 c 128,-1,35
 337 857 337 857 392 857 c 0,24,25
EndSplineSet
EndChar

StartChar: less
Encoding: 60 60 31
Width: 741
GlyphClass: 2
Flags: W
LayerCount: 2
Fore
SplineSet
120 428 m 1,0,-1
 127 457 l 1,1,-1
 749 974 l 1,2,-1
 793 903 l 1,3,-1
 360 455 l 1,4,-1
 669 -13 l 1,5,-1
 595 -83 l 1,6,-1
 120 428 l 1,0,-1
EndSplineSet
EndChar

StartChar: equal
Encoding: 61 61 32
Width: 878
GlyphClass: 2
Flags: W
LayerCount: 2
Fore
SplineSet
202 425 m 1,0,-1
 817 425 l 1,1,-1
 789 319 l 1,2,-1
 174 319 l 1,3,-1
 202 425 l 1,0,-1
243 665 m 1,4,-1
 859 665 l 1,5,-1
 830 559 l 1,6,-1
 215 559 l 1,7,-1
 243 665 l 1,4,-1
EndSplineSet
EndChar

StartChar: greater
Encoding: 62 62 33
Width: 743
GlyphClass: 2
Flags: W
LayerCount: 2
Fore
SplineSet
759 428 m 1,0,-1
 122 -83 l 1,1,-1
 71 -13 l 1,2,-1
 526 455 l 1,3,-1
 235 903 l 1,4,-1
 303 974 l 1,5,-1
 763 457 l 1,6,-1
 759 428 l 1,0,-1
EndSplineSet
EndChar

StartChar: question
Encoding: 63 63 34
Width: 684
GlyphClass: 2
Flags: W
LayerCount: 2
Fore
SplineSet
331 213 m 0,0,1
 376 213 376 213 404.5 181.5 c 128,-1,2
 433 150 433 150 433 106 c 0,3,4
 433 46 433 46 394 6.5 c 128,-1,5
 355 -33 355 -33 296 -33 c 0,6,7
 256 -33 256 -33 223 1 c 128,-1,8
 190 35 190 35 190 73 c 0,9,10
 190 133 190 133 230.5 173 c 128,-1,11
 271 213 271 213 331 213 c 0,0,1
245 1145 m 0,12,13
 245 1191 245 1191 295 1237 c 0,14,15
 321 1261 321 1261 366 1275.5 c 128,-1,16
 411 1290 411 1290 465 1290 c 0,17,18
 584 1290 584 1290 666 1187 c 128,-1,19
 748 1084 748 1084 748 930 c 0,20,21
 748 802 748 802 677 734 c 0,22,23
 623 683 623 683 532 637 c 0,24,25
 486 614 486 614 457.5 595.5 c 128,-1,26
 429 577 429 577 412 550 c 1,27,28
 392 521 392 521 392 483 c 0,29,30
 392 437 392 437 399 384 c 1,31,-1
 323 367 l 1,32,33
 278 451 278 451 278 543 c 0,34,35
 278 651 278 651 351 707 c 0,36,37
 398 744 398 744 499 789 c 0,38,39
 591 830 591 830 622 880 c 0,40,41
 642 913 642 913 642 958 c 0,42,43
 642 1023 642 1023 599.5 1069 c 128,-1,44
 557 1115 557 1115 506 1115 c 0,45,46
 381 1115 381 1115 303 1044 c 1,47,48
 277 1055 277 1055 261 1082 c 128,-1,49
 245 1109 245 1109 245 1145 c 0,12,13
EndSplineSet
EndChar

StartChar: at
Encoding: 64 64 35
Width: 1391
GlyphClass: 2
Flags: W
LayerCount: 2
Fore
SplineSet
881 693 m 1,0,1
 833 705 833 705 793 705 c 0,2,3
 740 705 740 705 692.5 649.5 c 128,-1,4
 645 594 645 594 620 510 c 0,5,6
 595 429 595 429 595 351 c 0,7,8
 595 278 595 278 604 239 c 0,9,10
 613 203 613 203 627 191.5 c 128,-1,11
 641 180 641 180 671 180 c 0,12,13
 745 180 745 180 813 255 c 1,14,-1
 881 693 l 1,0,1
1251 232 m 128,-1,16
 1185 158 1185 158 1091.5 113.5 c 128,-1,17
 998 69 998 69 901 69 c 0,18,19
 859 69 859 69 832.5 95.5 c 128,-1,20
 806 122 806 122 806 169 c 0,21,22
 806 174 806 174 807 178 c 128,-1,23
 808 182 808 182 808 187 c 1,24,-1
 800 187 l 1,25,26
 763 132 763 132 710.5 96 c 128,-1,27
 658 60 658 60 608 60 c 0,28,29
 524 60 524 60 480 122 c 128,-1,30
 436 184 436 184 436 308 c 0,31,32
 436 409 436 409 475.5 502.5 c 128,-1,33
 515 596 515 596 580 658 c 0,34,35
 643 719 643 719 714.5 755 c 128,-1,36
 786 791 786 791 849 791 c 0,37,38
 939 791 939 791 1015 774 c 1,39,-1
 1018 773 l 1,40,-1
 1035 753 l 1,41,-1
 982 385 l 2,42,43
 962 244 962 244 962 218 c 0,44,45
 962 168 962 168 985 169 c 1,46,47
 1059 169 1059 169 1122.5 223 c 128,-1,48
 1186 277 1186 277 1223 368 c 0,49,50
 1259 458 1259 458 1260 559 c 1,51,52
 1260 748 1260 748 1148.5 852 c 128,-1,53
 1037 956 1037 956 849 956 c 0,54,55
 732 956 732 956 625.5 905 c 128,-1,56
 519 854 519 854 444 767 c 0,57,58
 370 680 370 680 328.5 568.5 c 128,-1,59
 287 457 287 457 287 341 c 0,60,61
 287 114 287 114 417 -11 c 128,-1,62
 547 -136 547 -136 788 -136 c 0,63,64
 875 -136 875 -136 976 -101.5 c 128,-1,65
 1077 -67 1077 -67 1134 -28 c 1,66,-1
 1144 -20 l 1,67,-1
 1179 -83 l 1,68,-1
 1170 -88 l 1,69,70
 1086 -143 1086 -143 1008 -177 c 1,71,72
 896 -228 896 -228 749 -228 c 0,73,74
 550 -228 550 -228 400 -154 c 0,75,76
 316 -113 316 -113 258.5 -52 c 128,-1,77
 201 9 201 9 167 100 c 1,78,79
 131 192 131 192 132 311 c 1,80,81
 132 457 132 457 189 592.5 c 128,-1,82
 246 728 246 728 348 829 c 0,83,84
 449 930 449 930 591 988 c 128,-1,85
 733 1046 733 1046 889 1046 c 0,86,87
 1031 1046 1031 1046 1145.5 991.5 c 128,-1,88
 1260 937 1260 937 1328 835 c 0,89,90
 1396 732 1396 732 1395 599 c 0,91,92
 1395 500 1395 500 1356 403 c 128,-1,15
 1317 306 1317 306 1251 232 c 128,-1,16
EndSplineSet
PairPos2: "'kern' Horizontal Kerning in Latin lookup 1 subtable" quotereversed dx=0 dy=0 dh=-37 dv=0 dx=0 dy=0 dh=0 dv=0
PairPos2: "'kern' Horizontal Kerning in Latin lookup 1 subtable" quotereversed dx=0 dy=0 dh=-37 dv=0 dx=0 dy=0 dh=0 dv=0
PairPos2: "'kern' Horizontal Kerning in Latin lookup 1 subtable" quotereversed dx=0 dy=0 dh=-37 dv=0 dx=0 dy=0 dh=0 dv=0
PairPos2: "'kern' Horizontal Kerning in Latin lookup 1 subtable" quotereversed dx=0 dy=0 dh=-37 dv=0 dx=0 dy=0 dh=0 dv=0
PairPos2: "'kern' Horizontal Kerning in Latin lookup 1 subtable" quotereversed dx=0 dy=0 dh=-37 dv=0 dx=0 dy=0 dh=0 dv=0
PairPos2: "'kern' Horizontal Kerning in Latin lookup 1 subtable" Z dx=0 dy=0 dh=-26 dv=0 dx=0 dy=0 dh=0 dv=0
PairPos2: "'kern' Horizontal Kerning in Latin lookup 1 subtable" Z dx=0 dy=0 dh=-26 dv=0 dx=0 dy=0 dh=0 dv=0
PairPos2: "'kern' Horizontal Kerning in Latin lookup 1 subtable" Z dx=0 dy=0 dh=-26 dv=0 dx=0 dy=0 dh=0 dv=0
PairPos2: "'kern' Horizontal Kerning in Latin lookup 1 subtable" Z dx=0 dy=0 dh=-26 dv=0 dx=0 dy=0 dh=0 dv=0
PairPos2: "'kern' Horizontal Kerning in Latin lookup 1 subtable" Z dx=0 dy=0 dh=-26 dv=0 dx=0 dy=0 dh=0 dv=0
PairPos2: "'kern' Horizontal Kerning in Latin lookup 1 subtable" Y dx=0 dy=0 dh=-58 dv=0 dx=0 dy=0 dh=0 dv=0
PairPos2: "'kern' Horizontal Kerning in Latin lookup 1 subtable" Y dx=0 dy=0 dh=-58 dv=0 dx=0 dy=0 dh=0 dv=0
PairPos2: "'kern' Horizontal Kerning in Latin lookup 1 subtable" Y dx=0 dy=0 dh=-58 dv=0 dx=0 dy=0 dh=0 dv=0
PairPos2: "'kern' Horizontal Kerning in Latin lookup 1 subtable" Y dx=0 dy=0 dh=-58 dv=0 dx=0 dy=0 dh=0 dv=0
PairPos2: "'kern' Horizontal Kerning in Latin lookup 1 subtable" Y dx=0 dy=0 dh=-58 dv=0 dx=0 dy=0 dh=0 dv=0
PairPos2: "'kern' Horizontal Kerning in Latin lookup 1 subtable" X dx=0 dy=0 dh=-17 dv=0 dx=0 dy=0 dh=0 dv=0
PairPos2: "'kern' Horizontal Kerning in Latin lookup 1 subtable" X dx=0 dy=0 dh=-17 dv=0 dx=0 dy=0 dh=0 dv=0
PairPos2: "'kern' Horizontal Kerning in Latin lookup 1 subtable" X dx=0 dy=0 dh=-17 dv=0 dx=0 dy=0 dh=0 dv=0
PairPos2: "'kern' Horizontal Kerning in Latin lookup 1 subtable" X dx=0 dy=0 dh=-17 dv=0 dx=0 dy=0 dh=0 dv=0
PairPos2: "'kern' Horizontal Kerning in Latin lookup 1 subtable" X dx=0 dy=0 dh=-17 dv=0 dx=0 dy=0 dh=0 dv=0
PairPos2: "'kern' Horizontal Kerning in Latin lookup 1 subtable" W dx=0 dy=0 dh=-42 dv=0 dx=0 dy=0 dh=0 dv=0
PairPos2: "'kern' Horizontal Kerning in Latin lookup 1 subtable" W dx=0 dy=0 dh=-42 dv=0 dx=0 dy=0 dh=0 dv=0
PairPos2: "'kern' Horizontal Kerning in Latin lookup 1 subtable" W dx=0 dy=0 dh=-42 dv=0 dx=0 dy=0 dh=0 dv=0
PairPos2: "'kern' Horizontal Kerning in Latin lookup 1 subtable" W dx=0 dy=0 dh=-42 dv=0 dx=0 dy=0 dh=0 dv=0
PairPos2: "'kern' Horizontal Kerning in Latin lookup 1 subtable" W dx=0 dy=0 dh=-42 dv=0 dx=0 dy=0 dh=0 dv=0
PairPos2: "'kern' Horizontal Kerning in Latin lookup 1 subtable" V dx=0 dy=0 dh=-50 dv=0 dx=0 dy=0 dh=0 dv=0
PairPos2: "'kern' Horizontal Kerning in Latin lookup 1 subtable" V dx=0 dy=0 dh=-50 dv=0 dx=0 dy=0 dh=0 dv=0
PairPos2: "'kern' Horizontal Kerning in Latin lookup 1 subtable" V dx=0 dy=0 dh=-50 dv=0 dx=0 dy=0 dh=0 dv=0
PairPos2: "'kern' Horizontal Kerning in Latin lookup 1 subtable" V dx=0 dy=0 dh=-50 dv=0 dx=0 dy=0 dh=0 dv=0
PairPos2: "'kern' Horizontal Kerning in Latin lookup 1 subtable" V dx=0 dy=0 dh=-50 dv=0 dx=0 dy=0 dh=0 dv=0
PairPos2: "'kern' Horizontal Kerning in Latin lookup 1 subtable" U dx=0 dy=0 dh=-31 dv=0 dx=0 dy=0 dh=0 dv=0
PairPos2: "'kern' Horizontal Kerning in Latin lookup 1 subtable" U dx=0 dy=0 dh=-31 dv=0 dx=0 dy=0 dh=0 dv=0
PairPos2: "'kern' Horizontal Kerning in Latin lookup 1 subtable" U dx=0 dy=0 dh=-31 dv=0 dx=0 dy=0 dh=0 dv=0
PairPos2: "'kern' Horizontal Kerning in Latin lookup 1 subtable" U dx=0 dy=0 dh=-31 dv=0 dx=0 dy=0 dh=0 dv=0
PairPos2: "'kern' Horizontal Kerning in Latin lookup 1 subtable" U dx=0 dy=0 dh=-31 dv=0 dx=0 dy=0 dh=0 dv=0
PairPos2: "'kern' Horizontal Kerning in Latin lookup 1 subtable" T dx=0 dy=0 dh=-42 dv=0 dx=0 dy=0 dh=0 dv=0
PairPos2: "'kern' Horizontal Kerning in Latin lookup 1 subtable" T dx=0 dy=0 dh=-42 dv=0 dx=0 dy=0 dh=0 dv=0
PairPos2: "'kern' Horizontal Kerning in Latin lookup 1 subtable" T dx=0 dy=0 dh=-42 dv=0 dx=0 dy=0 dh=0 dv=0
PairPos2: "'kern' Horizontal Kerning in Latin lookup 1 subtable" T dx=0 dy=0 dh=-42 dv=0 dx=0 dy=0 dh=0 dv=0
PairPos2: "'kern' Horizontal Kerning in Latin lookup 1 subtable" T dx=0 dy=0 dh=-42 dv=0 dx=0 dy=0 dh=0 dv=0
PairPos2: "'kern' Horizontal Kerning in Latin lookup 1 subtable" N dx=0 dy=0 dh=-31 dv=0 dx=0 dy=0 dh=0 dv=0
PairPos2: "'kern' Horizontal Kerning in Latin lookup 1 subtable" N dx=0 dy=0 dh=-31 dv=0 dx=0 dy=0 dh=0 dv=0
PairPos2: "'kern' Horizontal Kerning in Latin lookup 1 subtable" N dx=0 dy=0 dh=-31 dv=0 dx=0 dy=0 dh=0 dv=0
PairPos2: "'kern' Horizontal Kerning in Latin lookup 1 subtable" N dx=0 dy=0 dh=-31 dv=0 dx=0 dy=0 dh=0 dv=0
PairPos2: "'kern' Horizontal Kerning in Latin lookup 1 subtable" N dx=0 dy=0 dh=-31 dv=0 dx=0 dy=0 dh=0 dv=0
PairPos2: "'kern' Horizontal Kerning in Latin lookup 1 subtable" M dx=0 dy=0 dh=-27 dv=0 dx=0 dy=0 dh=0 dv=0
PairPos2: "'kern' Horizontal Kerning in Latin lookup 1 subtable" M dx=0 dy=0 dh=-27 dv=0 dx=0 dy=0 dh=0 dv=0
PairPos2: "'kern' Horizontal Kerning in Latin lookup 1 subtable" M dx=0 dy=0 dh=-27 dv=0 dx=0 dy=0 dh=0 dv=0
PairPos2: "'kern' Horizontal Kerning in Latin lookup 1 subtable" M dx=0 dy=0 dh=-27 dv=0 dx=0 dy=0 dh=0 dv=0
PairPos2: "'kern' Horizontal Kerning in Latin lookup 1 subtable" M dx=0 dy=0 dh=-27 dv=0 dx=0 dy=0 dh=0 dv=0
PairPos2: "'kern' Horizontal Kerning in Latin lookup 1 subtable" J dx=0 dy=0 dh=-32 dv=0 dx=0 dy=0 dh=0 dv=0
PairPos2: "'kern' Horizontal Kerning in Latin lookup 1 subtable" J dx=0 dy=0 dh=-32 dv=0 dx=0 dy=0 dh=0 dv=0
PairPos2: "'kern' Horizontal Kerning in Latin lookup 1 subtable" J dx=0 dy=0 dh=-32 dv=0 dx=0 dy=0 dh=0 dv=0
PairPos2: "'kern' Horizontal Kerning in Latin lookup 1 subtable" J dx=0 dy=0 dh=-32 dv=0 dx=0 dy=0 dh=0 dv=0
PairPos2: "'kern' Horizontal Kerning in Latin lookup 1 subtable" J dx=0 dy=0 dh=-32 dv=0 dx=0 dy=0 dh=0 dv=0
PairPos2: "'kern' Horizontal Kerning in Latin lookup 1 subtable" B dx=0 dy=0 dh=-31 dv=0 dx=0 dy=0 dh=0 dv=0
PairPos2: "'kern' Horizontal Kerning in Latin lookup 1 subtable" B dx=0 dy=0 dh=-31 dv=0 dx=0 dy=0 dh=0 dv=0
PairPos2: "'kern' Horizontal Kerning in Latin lookup 1 subtable" B dx=0 dy=0 dh=-31 dv=0 dx=0 dy=0 dh=0 dv=0
PairPos2: "'kern' Horizontal Kerning in Latin lookup 1 subtable" B dx=0 dy=0 dh=-31 dv=0 dx=0 dy=0 dh=0 dv=0
PairPos2: "'kern' Horizontal Kerning in Latin lookup 1 subtable" B dx=0 dy=0 dh=-31 dv=0 dx=0 dy=0 dh=0 dv=0
PairPos2: "'kern' Horizontal Kerning in Latin lookup 1 subtable" A dx=0 dy=0 dh=-19 dv=0 dx=0 dy=0 dh=0 dv=0
PairPos2: "'kern' Horizontal Kerning in Latin lookup 1 subtable" A dx=0 dy=0 dh=-19 dv=0 dx=0 dy=0 dh=0 dv=0
PairPos2: "'kern' Horizontal Kerning in Latin lookup 1 subtable" A dx=0 dy=0 dh=-19 dv=0 dx=0 dy=0 dh=0 dv=0
PairPos2: "'kern' Horizontal Kerning in Latin lookup 1 subtable" A dx=0 dy=0 dh=-19 dv=0 dx=0 dy=0 dh=0 dv=0
PairPos2: "'kern' Horizontal Kerning in Latin lookup 1 subtable" A dx=0 dy=0 dh=-19 dv=0 dx=0 dy=0 dh=0 dv=0
PairPos2: "'kern' Horizontal Kerning in Latin lookup 1 subtable" quotedbl dx=0 dy=0 dh=-36 dv=0 dx=0 dy=0 dh=0 dv=0
PairPos2: "'kern' Horizontal Kerning in Latin lookup 1 subtable" quotedbl dx=0 dy=0 dh=-36 dv=0 dx=0 dy=0 dh=0 dv=0
PairPos2: "'kern' Horizontal Kerning in Latin lookup 1 subtable" quotedbl dx=0 dy=0 dh=-36 dv=0 dx=0 dy=0 dh=0 dv=0
PairPos2: "'kern' Horizontal Kerning in Latin lookup 1 subtable" quotedbl dx=0 dy=0 dh=-36 dv=0 dx=0 dy=0 dh=0 dv=0
PairPos2: "'kern' Horizontal Kerning in Latin lookup 1 subtable" quotedbl dx=0 dy=0 dh=-36 dv=0 dx=0 dy=0 dh=0 dv=0
EndChar

StartChar: A
Encoding: 65 65 36
Width: 1159
GlyphClass: 2
Flags: W
LayerCount: 2
Fore
SplineSet
874 1270 m 1,0,-1
 1063 124 l 1,1,-1
 1187 81 l 1,2,-1
 1169 0 l 1,3,-1
 684 0 l 1,4,-1
 704 74 l 1,5,-1
 876 129 l 1,6,-1
 820 433 l 1,7,-1
 419 433 l 1,8,-1
 266 124 l 1,9,-1
 436 81 l 1,10,-1
 414 0 l 1,11,-1
 -32 0 l 1,12,-1
 -14 74 l 1,13,-1
 135 129 l 1,14,-1
 727 1239 l 1,15,-1
 874 1270 l 1,0,-1
471 534 m 1,16,-1
 806 534 l 1,17,-1
 727 1036 l 1,18,-1
 471 534 l 1,16,-1
EndSplineSet
EndChar

StartChar: B
Encoding: 66 66 37
Width: 1140
GlyphClass: 2
Flags: W
LayerCount: 2
Fore
SplineSet
518 605 m 1,0,-1
 428 96 l 1,1,-1
 622 96 l 2,2,3
 700 96 700 96 763.5 121.5 c 128,-1,4
 827 147 827 147 867 191 c 0,5,6
 945 276 945 276 945 390 c 0,7,8
 945 483 945 483 887.5 544 c 128,-1,9
 830 605 830 605 731 605 c 2,10,-1
 518 605 l 1,0,-1
882 673 m 1,11,12
 1002 666 1002 666 1069 595.5 c 128,-1,13
 1136 525 1136 525 1136 422 c 0,14,15
 1136 297 1136 297 1041 191 c 0,16,17
 934 73 934 73 747 26 c 0,18,19
 645 0 645 0 521 0 c 2,20,-1
 65 0 l 1,21,-1
 83 74 l 1,22,-1
 251 121 l 1,23,-1
 422 1107 l 1,24,-1
 263 1136 l 1,25,-1
 283 1213 l 1,26,27
 592 1259 592 1259 766 1259 c 0,28,29
 958 1259 958 1259 1051 1179 c 1,30,31
 1135 1105 1135 1105 1135 1004 c 0,32,33
 1135 918 1135 918 1081 830 c 0,34,35
 1021 731 1021 731 883 682 c 1,36,-1
 882 673 l 1,11,12
534 690 m 1,37,-1
 733 690 l 2,38,39
 829 690 829 690 887 762.5 c 128,-1,40
 945 835 945 835 946 956 c 0,41,42
 946 1044 946 1044 894 1105 c 0,43,44
 835 1173 835 1173 693 1173 c 0,45,46
 655 1173 655 1173 617 1166 c 1,47,-1
 534 690 l 1,37,-1
EndSplineSet
EndChar

StartChar: C
Encoding: 67 67 38
Width: 1148
GlyphClass: 2
Flags: W
LayerCount: 2
Fore
SplineSet
489 211 m 0,0,1
 592 106 592 106 744 106 c 0,2,3
 927 106 927 106 1091 258 c 1,4,-1
 1129 203 l 1,5,6
 1031 87 1031 87 906.5 31 c 128,-1,7
 782 -25 782 -25 648 -25 c 0,8,9
 449 -25 449 -25 311 105 c 0,10,11
 243 168 243 168 205.5 266 c 128,-1,12
 168 364 168 364 168 483 c 0,13,14
 168 629 168 629 227 780 c 0,15,16
 292 948 292 948 406 1063 c 0,17,18
 538 1197 538 1197 706 1246 c 1,19,20
 800 1272 800 1272 901 1272 c 0,21,22
 1118 1272 1118 1272 1228 1171 c 1,23,-1
 1146 839 l 1,24,-1
 1065 852 l 1,25,-1
 1061 1072 l 1,26,27
 1033 1121 1033 1121 973 1148.5 c 128,-1,28
 913 1176 913 1176 828 1176 c 0,29,30
 741 1176 741 1176 660 1130 c 128,-1,31
 579 1084 579 1084 516 1002 c 0,32,33
 452 918 452 918 416 797.5 c 128,-1,34
 380 677 380 677 380 539 c 0,35,36
 380 432 380 432 408.5 347.5 c 128,-1,37
 437 263 437 263 489 211 c 0,0,1
EndSplineSet
EndChar

StartChar: D
Encoding: 68 68 39
Width: 1349
GlyphClass: 2
Flags: W
LayerCount: 2
Fore
SplineSet
441 104 m 1,0,-1
 581 104 l 2,1,2
 708 104 708 104 820 152.5 c 128,-1,3
 932 201 932 201 1008 285 c 0,4,5
 1083 369 1083 369 1125 477.5 c 128,-1,6
 1167 586 1167 586 1167 703 c 0,7,8
 1167 897 1167 897 1060 1023 c 0,9,10
 1006 1087 1006 1087 919.5 1122.5 c 128,-1,11
 833 1158 833 1158 724 1158 c 0,12,13
 664 1158 664 1158 606 1151 c 1,14,-1
 441 104 l 1,0,-1
1189 1163 m 0,15,16
 1256 1119 1256 1119 1300.5 1055.5 c 128,-1,17
 1345 992 1345 992 1364 919 c 0,18,19
 1382 850 1382 850 1382 766 c 0,20,21
 1382 528 1382 528 1229 330 c 0,22,23
 1069 124 1069 124 813 43 c 0,24,25
 678 0 678 0 525 0 c 2,26,-1
 72 0 l 1,27,-1
 92 74 l 1,28,-1
 264 129 l 1,29,-1
 418 1105 l 1,30,-1
 257 1135 l 1,31,-1
 277 1211 l 1,32,33
 582 1261 582 1261 777 1261 c 0,34,35
 1040 1261 1040 1261 1189 1163 c 0,15,16
EndSplineSet
EndChar

StartChar: E
Encoding: 69 69 40
Width: 1135
GlyphClass: 2
Flags: W
LayerCount: 2
Fore
SplineSet
271 1246 m 1,0,-1
 1226 1246 l 1,1,-1
 1146 926 l 1,2,-1
 1065 940 l 1,3,-1
 1060 1155 l 1,4,-1
 609 1155 l 1,5,-1
 534 678 l 1,6,-1
 812 678 l 1,7,-1
 873 797 l 1,8,-1
 964 811 l 1,9,-1
 872 422 l 1,10,-1
 787 409 l 1,11,-1
 782 584 l 1,12,-1
 519 584 l 1,13,-1
 442 96 l 1,14,-1
 916 96 l 1,15,-1
 1047 326 l 1,16,-1
 1125 314 l 1,17,-1
 1046 0 l 1,18,-1
 83 0 l 1,19,-1
 98 74 l 1,20,-1
 263 121 l 1,21,-1
 422 1128 l 1,22,-1
 255 1170 l 1,23,-1
 271 1246 l 1,0,-1
EndSplineSet
EndChar

StartChar: F
Encoding: 70 70 41
Width: 1052
GlyphClass: 2
Flags: W
LayerCount: 2
Fore
SplineSet
273 1246 m 1,0,-1
 1224 1246 l 1,1,-1
 1135 925 l 1,2,-1
 1054 938 l 1,3,-1
 1054 1155 l 1,4,-1
 609 1155 l 1,5,-1
 533 672 l 1,6,-1
 807 672 l 1,7,-1
 868 792 l 1,8,-1
 955 806 l 1,9,-1
 868 414 l 1,10,-1
 781 399 l 1,11,-1
 779 579 l 1,12,-1
 518 579 l 1,13,-1
 445 122 l 1,14,-1
 667 84 l 1,15,-1
 647 0 l 1,16,-1
 83 0 l 1,17,-1
 98 74 l 1,18,-1
 263 121 l 1,19,-1
 422 1128 l 1,20,-1
 255 1170 l 1,21,-1
 273 1246 l 1,0,-1
EndSplineSet
EndChar

StartChar: G
Encoding: 71 71 42
Width: 1285
GlyphClass: 2
Flags: W
LayerCount: 2
Fore
SplineSet
1227 842 m 1,0,-1
 1146 857 l 1,1,-1
 1142 1049 l 1,2,3
 1112 1099 1112 1099 1036.5 1131 c 128,-1,4
 961 1163 961 1163 848 1163 c 0,5,6
 702 1163 702 1163 588 1075 c 0,7,8
 461 977 461 977 412 780 c 0,9,10
 385 672 385 672 385 539 c 0,11,12
 385 311 385 311 482 193.5 c 128,-1,13
 579 76 579 76 772 76 c 0,14,15
 897 76 897 76 950 122 c 1,16,-1
 1000 435 l 1,17,-1
 780 473 l 1,18,-1
 800 556 l 1,19,-1
 1331 556 l 1,20,-1
 1313 481 l 1,21,-1
 1189 440 l 1,22,-1
 1134 88 l 1,23,24
 1049 31 1049 31 921.5 0 c 128,-1,25
 794 -31 794 -31 639 -31 c 0,26,27
 522 -31 522 -31 429.5 8 c 128,-1,28
 337 47 337 47 281 118 c 0,29,30
 169 259 169 259 170 467 c 0,31,32
 170 611 170 611 212.5 740.5 c 128,-1,33
 255 870 255 870 329 966 c 0,34,35
 481 1160 481 1160 699 1229 c 0,36,37
 803 1262 803 1262 912 1262 c 0,38,39
 1178 1262 1178 1262 1304 1165 c 1,40,-1
 1227 842 l 1,0,-1
EndSplineSet
EndChar

StartChar: H
Encoding: 72 72 43
Width: 1406
GlyphClass: 2
Flags: W
LayerCount: 2
Fore
SplineSet
581 0 m 1,0,-1
 89 0 l 1,1,-1
 104 74 l 1,2,-1
 261 121 l 1,3,-1
 420 1128 l 1,4,-1
 261 1170 l 1,5,-1
 278 1246 l 1,6,-1
 773 1246 l 1,7,-1
 756 1170 l 1,8,-1
 597 1132 l 1,9,-1
 529 693 l 1,10,-1
 1098 693 l 1,11,-1
 1166 1128 l 1,12,-1
 1006 1170 l 1,13,-1
 1024 1246 l 1,14,-1
 1519 1246 l 1,15,-1
 1502 1170 l 1,16,-1
 1343 1132 l 1,17,-1
 1183 114 l 1,18,-1
 1345 81 l 1,19,-1
 1327 0 l 1,20,-1
 834 0 l 1,21,-1
 852 74 l 1,22,-1
 1007 121 l 1,23,-1
 1082 592 l 1,24,-1
 511 591 l 1,25,-1
 437 114 l 1,26,-1
 602 81 l 1,27,-1
 581 0 l 1,0,-1
EndSplineSet
EndChar

StartChar: I
Encoding: 73 73 44
Width: 670
GlyphClass: 2
Flags: W
LayerCount: 2
Fore
SplineSet
596 0 m 1,0,-1
 83 0 l 1,1,-1
 98 74 l 1,2,-1
 263 121 l 1,3,-1
 422 1128 l 1,4,-1
 255 1170 l 1,5,-1
 271 1246 l 1,6,-1
 791 1246 l 1,7,-1
 774 1170 l 1,8,-1
 605 1132 l 1,9,-1
 445 114 l 1,10,-1
 615 81 l 1,11,-1
 596 0 l 1,0,-1
EndSplineSet
EndChar

StartChar: J
Encoding: 74 74 45
Width: 635
GlyphClass: 2
Flags: W
LayerCount: 2
Fore
SplineSet
476 385 m 2,0,1
 442 172 442 172 392 60 c 0,2,3
 363 -6 363 -6 330.5 -54 c 128,-1,4
 298 -102 298 -102 248 -149 c 0,5,6
 199 -195 199 -195 145.5 -234.5 c 128,-1,7
 92 -274 92 -274 7 -326 c 1,8,9
 -19 -287 -19 -287 -31 -238 c 1,10,11
 103 -122 103 -122 172.5 -20 c 128,-1,12
 242 82 242 82 261 197 c 2,13,-1
 409 1128 l 1,14,-1
 244 1170 l 1,15,-1
 259 1246 l 1,16,-1
 778 1246 l 1,17,-1
 765 1170 l 1,18,-1
 596 1132 l 1,19,-1
 476 385 l 2,0,1
EndSplineSet
EndChar

StartChar: K
Encoding: 75 75 46
Width: 1210
GlyphClass: 2
Flags: W
LayerCount: 2
Fore
SplineSet
620 510 m 1,0,1
 575 584 575 584 553 605 c 1,2,-1
 558 630 l 1,3,4
 637 690 637 690 679 738 c 2,5,-1
 1022 1123 l 1,6,-1
 874 1170 l 1,7,-1
 889 1246 l 1,8,-1
 1364 1246 l 1,9,-1
 1346 1170 l 1,10,-1
 1169 1123 l 1,11,-1
 732 650 l 1,12,-1
 906 380 l 1,13,14
 1002 233 1002 233 1060.5 173 c 128,-1,15
 1119 113 1119 113 1200 84 c 1,16,-1
 1233 73 l 1,17,-1
 1212 0 l 1,18,19
 1149 -22 1149 -22 1086 -22 c 0,20,21
 971 -22 971 -22 886 61 c 0,22,23
 814 130 814 130 747 261 c 2,24,-1
 620 510 l 1,0,1
451 124 m 1,25,-1
 624 81 l 1,26,-1
 606 0 l 1,27,-1
 79 0 l 1,28,-1
 93 74 l 1,29,-1
 267 129 l 1,30,-1
 423 1120 l 1,31,-1
 251 1170 l 1,32,-1
 270 1246 l 1,33,-1
 795 1246 l 1,34,-1
 778 1170 l 1,35,-1
 606 1123 l 1,36,-1
 451 124 l 1,25,-1
EndSplineSet
EndChar

StartChar: L
Encoding: 76 76 47
Width: 1076
GlyphClass: 2
Flags: W
LayerCount: 2
Fore
SplineSet
793 1246 m 1,0,-1
 777 1170 l 1,1,-1
 605 1123 l 1,2,-1
 443 96 l 1,3,-1
 864 96 l 1,4,-1
 1028 344 l 1,5,-1
 1109 331 l 1,6,-1
 1022 0 l 1,7,-1
 84 0 l 1,8,-1
 97 74 l 1,9,-1
 264 121 l 1,10,-1
 421 1120 l 1,11,-1
 249 1170 l 1,12,-1
 269 1246 l 1,13,-1
 793 1246 l 1,0,-1
EndSplineSet
EndChar

StartChar: M
Encoding: 77 77 48
Width: 1647
GlyphClass: 2
Flags: W
LayerCount: 2
Fore
SplineSet
725 31 m 1,0,-1
 543 968 l 1,1,-1
 348 114 l 1,2,-1
 522 81 l 1,3,-1
 500 0 l 1,4,-1
 42 0 l 1,5,-1
 60 74 l 1,6,-1
 226 121 l 1,7,-1
 454 1128 l 1,8,-1
 285 1170 l 1,9,-1
 304 1246 l 1,10,-1
 686 1246 l 1,11,-1
 729 1052 l 1,12,-1
 861 309 l 1,13,-1
 1280 1085 l 1,14,-1
 1366 1246 l 1,15,-1
 1743 1246 l 1,16,-1
 1726 1170 l 1,17,-1
 1559 1132 l 1,18,-1
 1450 114 l 1,19,-1
 1619 81 l 1,20,-1
 1601 0 l 1,21,-1
 1091 0 l 1,22,-1
 1109 74 l 1,23,-1
 1273 121 l 1,24,-1
 1359 1006 l 1,25,-1
 845 51 l 1,26,-1
 725 31 l 1,0,-1
EndSplineSet
EndChar

StartChar: N
Encoding: 78 78 49
Width: 1359
GlyphClass: 2
Flags: W
LayerCount: 2
Fore
SplineSet
993 -30 m 1,0,-1
 517 963 l 1,1,-1
 383 114 l 1,2,-1
 555 81 l 1,3,-1
 537 0 l 1,4,-1
 84 0 l 1,5,-1
 98 74 l 1,6,-1
 264 121 l 1,7,-1
 421 1120 l 1,8,-1
 256 1170 l 1,9,-1
 272 1246 l 1,10,-1
 606 1246 l 1,11,-1
 1066 273 l 1,12,-1
 1200 1128 l 1,13,-1
 1030 1170 l 1,14,-1
 1048 1246 l 1,15,-1
 1501 1246 l 1,16,-1
 1483 1170 l 1,17,-1
 1318 1132 l 1,18,-1
 1139 0 l 1,19,-1
 993 -30 l 1,0,-1
EndSplineSet
EndChar

StartChar: O
Encoding: 79 79 50
Width: 1341
GlyphClass: 2
Flags: W
LayerCount: 2
Fore
SplineSet
1079 1031 m 0,0,1
 1043 1100 1043 1100 982 1139 c 128,-1,2
 921 1178 921 1178 844 1178 c 0,3,4
 765 1178 765 1178 696.5 1155 c 128,-1,5
 628 1132 628 1132 581 1092 c 0,6,7
 492 1017 492 1017 446 885 c 0,8,9
 407 773 407 773 398 640 c 0,10,11
 394 580 394 580 394 528 c 0,12,13
 394 344 394 344 464 217 c 0,14,15
 500 152 500 152 560 115.5 c 128,-1,16
 620 79 620 79 698 79 c 0,17,18
 857 79 857 79 959 165 c 0,19,20
 1048 239 1048 239 1096 370 c 1,21,22
 1135 480 1135 480 1146 608 c 1,23,24
 1150 668 1150 668 1150 715 c 0,25,26
 1149 895 1149 895 1079 1031 c 0,0,1
1247 1115 m 0,27,28
 1364 961 1364 961 1363 730 c 1,29,30
 1363 481 1363 481 1236 291 c 0,31,32
 1102 90 1102 90 882 14 c 0,33,34
 766 -27 766 -27 634 -26 c 1,35,36
 497 -26 497 -26 391 43.5 c 128,-1,37
 285 113 285 113 230 235 c 0,38,39
 175 356 175 356 175 506 c 0,40,41
 175 668 175 668 228 810.5 c 128,-1,42
 281 953 281 953 377 1056 c 0,43,44
 474 1159 474 1159 611 1217 c 128,-1,45
 748 1275 748 1275 905 1275 c 0,46,47
 1013 1275 1013 1275 1101 1233 c 128,-1,48
 1189 1191 1189 1191 1247 1115 c 0,27,28
EndSplineSet
EndChar

StartChar: P
Encoding: 80 80 51
Width: 1071
GlyphClass: 2
Flags: W
LayerCount: 2
Fore
SplineSet
1167 958 m 0,0,1
 1167 859 1167 859 1126.5 770.5 c 128,-1,2
 1086 682 1086 682 1016 621 c 0,3,4
 947 560 947 560 856.5 525.5 c 128,-1,5
 766 491 766 491 672 491 c 0,6,7
 622 491 622 491 565 500 c 1,8,-1
 558 582 l 1,9,-1
 610 582 l 2,10,11
 785 582 785 582 873.5 668 c 128,-1,12
 962 754 962 754 962 918 c 0,13,14
 962 1036 962 1036 898 1105.5 c 128,-1,15
 834 1175 834 1175 711 1175 c 1,16,-1
 608 1170 l 1,17,-1
 443 122 l 1,18,-1
 664 84 l 1,19,-1
 643 0 l 1,20,-1
 77 0 l 1,21,-1
 93 74 l 1,22,-1
 261 121 l 1,23,-1
 414 1107 l 1,24,-1
 257 1136 l 1,25,-1
 279 1213 l 1,26,27
 562 1258 562 1258 742 1257 c 1,28,29
 1167 1257 1167 1257 1167 958 c 0,0,1
EndSplineSet
EndChar

StartChar: Q
Encoding: 81 81 52
Width: 1354
GlyphClass: 2
Flags: W
LayerCount: 2
Fore
SplineSet
1119 960 m 1,0,1
 1060 1092 1060 1092 963 1143 c 1,2,3
 908 1169 908 1169 847 1170 c 1,4,5
 629 1170 629 1170 503 1007.5 c 128,-1,6
 377 845 377 845 377 561 c 0,7,8
 377 416 377 416 428 300 c 1,9,10
 486 164 486 164 605 106 c 1,11,12
 670 73 670 73 756 68 c 1,13,14
 904 105 904 105 999 192 c 0,15,16
 1081 266 1081 266 1124 377 c 0,17,18
 1159 466 1159 466 1168 583 c 0,19,20
 1171 624 1171 624 1171 682 c 0,21,22
 1171 838 1171 838 1119 960 c 1,0,1
695 -63 m 0,23,24
 695 -41 695 -41 696 -22 c 1,25,26
 684 -27 684 -27 635 -26 c 1,27,28
 498 -26 498 -26 391.5 43.5 c 128,-1,29
 285 113 285 113 229 235 c 0,30,31
 174 354 174 354 174 506 c 0,32,33
 174 666 174 666 229.5 809 c 128,-1,34
 285 952 285 952 385.5 1055.5 c 128,-1,35
 486 1159 486 1159 624.5 1217 c 128,-1,36
 763 1275 763 1275 918 1275 c 0,37,38
 1025 1275 1025 1275 1113.5 1234 c 128,-1,39
 1202 1193 1202 1193 1260 1118 c 0,40,41
 1378 967 1378 967 1378 738 c 0,42,43
 1378 563 1378 563 1308.5 408.5 c 128,-1,44
 1239 254 1239 254 1110 145 c 0,45,46
 979 34 979 34 811 -7 c 1,47,48
 824 -63 824 -63 846 -101.5 c 128,-1,49
 868 -140 868 -140 908 -174 c 0,50,51
 989 -243 989 -243 1180 -276 c 1,52,53
 1173 -324 1173 -324 1158 -351 c 1,54,55
 1085 -386 1085 -386 984 -385 c 1,56,57
 856 -385 856 -385 775.5 -297.5 c 128,-1,58
 695 -210 695 -210 695 -63 c 0,23,24
EndSplineSet
EndChar

StartChar: R
Encoding: 82 82 53
Width: 1167
GlyphClass: 2
Flags: W
LayerCount: 2
Fore
SplineSet
1098 1138 m 1,0,1
 1154 1073 1154 1073 1155 979 c 1,2,3
 1155 862 1155 862 1068 759 c 1,4,5
 979 656 979 656 824 601 c 1,6,-1
 824 599 l 1,7,-1
 956 349 l 2,8,9
 991 284 991 284 1021 232 c 0,10,11
 1044 191 1044 191 1080 151 c 1,12,13
 1103 123 1103 123 1150 98 c 0,14,15
 1174 85 1174 85 1194 78 c 2,16,-1
 1223 68 l 1,17,-1
 1198 0 l 1,18,19
 1135 -22 1135 -22 1079 -22 c 0,20,21
 978 -22 978 -22 907 47.5 c 128,-1,22
 836 117 836 117 784 253 c 2,23,-1
 675 538 l 1,24,-1
 510 538 l 1,25,-1
 445 126 l 1,26,-1
 619 83 l 1,27,-1
 600 0 l 1,28,-1
 78 0 l 1,29,-1
 94 74 l 1,30,-1
 262 121 l 1,31,-1
 417 1103 l 1,32,-1
 256 1133 l 1,33,-1
 280 1209 l 1,34,35
 567 1255 567 1255 723 1256 c 1,36,37
 994 1255 994 1255 1098 1138 c 1,0,1
523 629 m 1,38,-1
 682 629 l 2,39,40
 786 629 786 629 867 716 c 128,-1,41
 948 803 948 803 948 926 c 0,42,43
 948 1033 948 1033 888 1102 c 128,-1,44
 828 1171 828 1171 726 1171 c 0,45,46
 700 1171 700 1171 624 1168 c 1,47,-1
 609 1166 l 1,48,-1
 523 629 l 1,38,-1
EndSplineSet
EndChar

StartChar: S
Encoding: 83 83 54
Width: 913
GlyphClass: 2
Flags: W
LayerCount: 2
Fore
SplineSet
875 888 m 1,0,-1
 781 900 l 1,1,-1
 786 1092 l 1,2,3
 779 1123 779 1123 735 1154.5 c 128,-1,4
 691 1186 691 1186 640 1186 c 0,5,6
 551 1186 551 1186 492 1122 c 128,-1,7
 433 1058 433 1058 433 953 c 0,8,9
 433 860 433 860 526 783 c 0,10,11
 571 746 571 746 616 717 c 0,12,13
 757 624 757 624 806 579 c 0,14,15
 898 495 898 495 898 384 c 0,16,17
 898 295 898 295 856.5 216 c 128,-1,18
 815 137 815 137 744 84 c 0,19,20
 595 -25 595 -25 409 -25 c 0,21,22
 309 -25 309 -25 225 17.5 c 128,-1,23
 141 60 141 60 111 122 c 1,24,-1
 167 390 l 1,25,-1
 261 376 l 1,26,-1
 266 187 l 1,27,28
 287 136 287 136 333.5 107 c 128,-1,29
 380 78 380 78 448 78 c 0,30,31
 521 78 521 78 588 108 c 0,32,33
 662 142 662 142 693 212 c 0,34,35
 710 252 710 252 710 297 c 0,36,37
 710 374 710 374 639 438 c 1,38,39
 575 494 575 494 483 553 c 0,40,41
 393 610 393 610 328 680 c 0,42,43
 257 755 257 755 256 855 c 1,44,45
 256 1005 256 1005 348 1113 c 0,46,47
 436 1216 436 1216 562 1254 c 0,48,49
 622 1272 622 1272 687 1272 c 0,50,51
 765 1272 765 1272 832 1247.5 c 128,-1,52
 899 1223 899 1223 940 1171 c 1,53,-1
 875 888 l 1,0,-1
EndSplineSet
EndChar

StartChar: T
Encoding: 84 84 55
Width: 1112
GlyphClass: 2
Flags: W
LayerCount: 2
Fore
SplineSet
228 1246 m 1,0,-1
 1289 1246 l 1,1,-1
 1204 908 l 1,2,-1
 1115 923 l 1,3,-1
 1115 1155 l 1,4,-1
 825 1155 l 1,5,-1
 660 114 l 1,6,-1
 830 81 l 1,7,-1
 811 0 l 1,8,-1
 294 0 l 1,9,-1
 311 74 l 1,10,-1
 478 121 l 1,11,-1
 642 1155 l 1,12,-1
 361 1155 l 1,13,-1
 271 912 l 1,14,-1
 185 925 l 1,15,-1
 228 1246 l 1,0,-1
EndSplineSet
EndChar

StartChar: U
Encoding: 85 85 56
Width: 1358
GlyphClass: 2
Flags: W
LayerCount: 2
Fore
SplineSet
471 495 m 2,0,1
 461 433 461 433 461 384 c 0,2,3
 461 238 461 238 533.5 165.5 c 128,-1,4
 606 93 606 93 740 93 c 0,5,6
 857 93 857 93 935 142 c 0,7,8
 1003 184 1003 184 1046 263 c 0,9,10
 1079 325 1079 325 1099 410 c 0,11,12
 1105 436 1105 436 1113 481 c 2,13,-1
 1215 1128 l 1,14,-1
 1050 1170 l 1,15,-1
 1065 1246 l 1,16,-1
 1521 1246 l 1,17,-1
 1505 1170 l 1,18,-1
 1337 1132 l 1,19,-1
 1233 500 l 1,20,21
 1144 -26 1144 -26 659 -26 c 0,22,23
 544 -26 544 -26 456 15 c 0,24,25
 400 41 400 41 362.5 81.5 c 128,-1,26
 325 122 325 122 301 187 c 1,27,28
 275 254 275 254 275 344 c 0,29,30
 275 400 275 400 285 470 c 1,31,-1
 390 1128 l 1,32,-1
 219 1170 l 1,33,-1
 237 1246 l 1,34,-1
 754 1246 l 1,35,-1
 739 1170 l 1,36,-1
 570 1132 l 1,37,-1
 471 495 l 2,0,1
EndSplineSet
EndChar

StartChar: V
Encoding: 86 86 57
Width: 1165
GlyphClass: 2
Flags: W
LayerCount: 2
Fore
SplineSet
510 -25 m 1,0,-1
 288 1128 l 1,1,-1
 157 1170 l 1,2,-1
 174 1246 l 1,3,-1
 680 1246 l 1,4,-1
 665 1170 l 1,5,-1
 496 1132 l 1,6,-1
 657 251 l 1,7,-1
 1098 1128 l 1,8,-1
 931 1170 l 1,9,-1
 946 1246 l 1,10,-1
 1381 1246 l 1,11,-1
 1366 1170 l 1,12,-1
 1236 1132 l 1,13,-1
 650 5 l 1,14,-1
 510 -25 l 1,0,-1
EndSplineSet
EndChar

StartChar: W
Encoding: 87 87 58
Width: 1692
GlyphClass: 2
Flags: W
LayerCount: 2
Fore
SplineSet
1095 -25 m 1,0,-1
 1006 953 l 1,1,-1
 576 5 l 1,2,-1
 425 -25 l 1,3,-1
 291 1128 l 1,4,-1
 167 1170 l 1,5,-1
 182 1246 l 1,6,-1
 667 1246 l 1,7,-1
 647 1170 l 1,8,-1
 480 1132 l 1,9,-1
 577 273 l 1,10,-1
 999 1196 l 1,11,-1
 1165 1221 l 1,12,-1
 1246 288 l 1,13,-1
 1626 1128 l 1,14,-1
 1462 1170 l 1,15,-1
 1479 1246 l 1,16,-1
 1907 1246 l 1,17,-1
 1891 1170 l 1,18,-1
 1767 1132 l 1,19,-1
 1241 5 l 1,20,-1
 1095 -25 l 1,0,-1
EndSplineSet
EndChar

StartChar: X
Encoding: 88 88 59
Width: 1147
GlyphClass: 2
Flags: W
LayerCount: 2
Fore
SplineSet
774 652 m 1,0,-1
 1016 114 l 1,1,-1
 1145 81 l 1,2,-1
 1123 0 l 1,3,-1
 640 0 l 1,4,-1
 660 74 l 1,5,-1
 825 121 l 1,6,-1
 637 523 l 1,7,-1
 291 114 l 1,8,-1
 462 81 l 1,9,-1
 443 0 l 1,10,-1
 12 0 l 1,11,-1
 31 74 l 1,12,-1
 152 121 l 1,13,-1
 581 609 l 1,14,-1
 334 1120 l 1,15,-1
 217 1170 l 1,16,-1
 235 1246 l 1,17,-1
 731 1246 l 1,18,-1
 713 1170 l 1,19,-1
 548 1123 l 1,20,-1
 718 744 l 1,21,-1
 1037 1128 l 1,22,-1
 865 1170 l 1,23,-1
 883 1246 l 1,24,-1
 1315 1246 l 1,25,-1
 1300 1170 l 1,26,-1
 1173 1132 l 1,27,-1
 774 652 l 1,0,-1
EndSplineSet
EndChar

StartChar: Y
Encoding: 89 89 60
Width: 1057
GlyphClass: 2
Flags: W
LayerCount: 2
Fore
SplineSet
706 529 m 1,0,-1
 640 114 l 1,1,-1
 794 81 l 1,2,-1
 776 0 l 1,3,-1
 291 0 l 1,4,-1
 308 74 l 1,5,-1
 458 121 l 1,6,-1
 519 506 l 1,7,-1
 278 1128 l 1,8,-1
 156 1170 l 1,9,-1
 175 1246 l 1,10,-1
 653 1246 l 1,11,-1
 635 1170 l 1,12,-1
 478 1132 l 1,13,-1
 670 639 l 1,14,-1
 998 1128 l 1,15,-1
 832 1170 l 1,16,-1
 847 1246 l 1,17,-1
 1270 1246 l 1,18,-1
 1256 1170 l 1,19,-1
 1130 1132 l 1,20,-1
 706 529 l 1,0,-1
EndSplineSet
EndChar

StartChar: Z
Encoding: 90 90 61
Width: 1095
GlyphClass: 2
Flags: W
LayerCount: 2
Fore
SplineSet
291 1246 m 1,0,-1
 1208 1246 l 1,1,-1
 1196 1170 l 1,2,-1
 298 101 l 1,3,-1
 832 101 l 1,4,-1
 974 351 l 1,5,-1
 1065 336 l 1,6,-1
 983 0 l 1,7,-1
 86 0 l 1,8,-1
 93 104 l 1,9,-1
 969 1151 l 1,10,-1
 432 1151 l 1,11,-1
 341 905 l 1,12,-1
 253 923 l 1,13,-1
 291 1246 l 1,0,-1
EndSplineSet
EndChar

StartChar: bracketleft
Encoding: 91 91 62
Width: 441
GlyphClass: 2
Flags: W
LayerCount: 2
Fore
SplineSet
350 -376 m 1,0,-1
 72 -377 l 1,1,-1
 333 1257 l 1,2,-1
 605 1257 l 1,3,-1
 601 1168 l 1,4,-1
 457 1148 l 1,5,-1
 236 -260 l 1,6,-1
 375 -280 l 1,7,-1
 350 -376 l 1,0,-1
EndSplineSet
PairPos2: "'kern' Horizontal Kerning in Latin lookup 1 subtable" five.osf dx=0 dy=0 dh=35 dv=0 dx=0 dy=0 dh=0 dv=0
PairPos2: "'kern' Horizontal Kerning in Latin lookup 1 subtable" five.osf dx=0 dy=0 dh=35 dv=0 dx=0 dy=0 dh=0 dv=0
PairPos2: "'kern' Horizontal Kerning in Latin lookup 1 subtable" five.osf dx=0 dy=0 dh=35 dv=0 dx=0 dy=0 dh=0 dv=0
PairPos2: "'kern' Horizontal Kerning in Latin lookup 1 subtable" five.osf dx=0 dy=0 dh=35 dv=0 dx=0 dy=0 dh=0 dv=0
PairPos2: "'kern' Horizontal Kerning in Latin lookup 1 subtable" five.osf dx=0 dy=0 dh=35 dv=0 dx=0 dy=0 dh=0 dv=0
PairPos2: "'kern' Horizontal Kerning in Latin lookup 1 subtable" dotlessj dx=0 dy=0 dh=59 dv=0 dx=0 dy=0 dh=0 dv=0
PairPos2: "'kern' Horizontal Kerning in Latin lookup 1 subtable" dotlessj dx=0 dy=0 dh=59 dv=0 dx=0 dy=0 dh=0 dv=0
PairPos2: "'kern' Horizontal Kerning in Latin lookup 1 subtable" dotlessj dx=0 dy=0 dh=59 dv=0 dx=0 dy=0 dh=0 dv=0
PairPos2: "'kern' Horizontal Kerning in Latin lookup 1 subtable" dotlessj dx=0 dy=0 dh=59 dv=0 dx=0 dy=0 dh=0 dv=0
PairPos2: "'kern' Horizontal Kerning in Latin lookup 1 subtable" dotlessj dx=0 dy=0 dh=59 dv=0 dx=0 dy=0 dh=0 dv=0
PairPos2: "'kern' Horizontal Kerning in Latin lookup 1 subtable" lslash dx=0 dy=0 dh=1 dv=0 dx=0 dy=0 dh=0 dv=0
PairPos2: "'kern' Horizontal Kerning in Latin lookup 1 subtable" lslash dx=0 dy=0 dh=1 dv=0 dx=0 dy=0 dh=0 dv=0
PairPos2: "'kern' Horizontal Kerning in Latin lookup 1 subtable" lslash dx=0 dy=0 dh=1 dv=0 dx=0 dy=0 dh=0 dv=0
PairPos2: "'kern' Horizontal Kerning in Latin lookup 1 subtable" lslash dx=0 dy=0 dh=1 dv=0 dx=0 dy=0 dh=0 dv=0
PairPos2: "'kern' Horizontal Kerning in Latin lookup 1 subtable" lslash dx=0 dy=0 dh=1 dv=0 dx=0 dy=0 dh=0 dv=0
PairPos2: "'kern' Horizontal Kerning in Latin lookup 1 subtable" dotlessi dx=0 dy=0 dh=12 dv=0 dx=0 dy=0 dh=0 dv=0
PairPos2: "'kern' Horizontal Kerning in Latin lookup 1 subtable" dotlessi dx=0 dy=0 dh=12 dv=0 dx=0 dy=0 dh=0 dv=0
PairPos2: "'kern' Horizontal Kerning in Latin lookup 1 subtable" dotlessi dx=0 dy=0 dh=12 dv=0 dx=0 dy=0 dh=0 dv=0
PairPos2: "'kern' Horizontal Kerning in Latin lookup 1 subtable" dotlessi dx=0 dy=0 dh=12 dv=0 dx=0 dy=0 dh=0 dv=0
PairPos2: "'kern' Horizontal Kerning in Latin lookup 1 subtable" dotlessi dx=0 dy=0 dh=12 dv=0 dx=0 dy=0 dh=0 dv=0
PairPos2: "'kern' Horizontal Kerning in Latin lookup 1 subtable" thorn dx=0 dy=0 dh=48 dv=0 dx=0 dy=0 dh=0 dv=0
PairPos2: "'kern' Horizontal Kerning in Latin lookup 1 subtable" thorn dx=0 dy=0 dh=48 dv=0 dx=0 dy=0 dh=0 dv=0
PairPos2: "'kern' Horizontal Kerning in Latin lookup 1 subtable" thorn dx=0 dy=0 dh=48 dv=0 dx=0 dy=0 dh=0 dv=0
PairPos2: "'kern' Horizontal Kerning in Latin lookup 1 subtable" thorn dx=0 dy=0 dh=48 dv=0 dx=0 dy=0 dh=0 dv=0
PairPos2: "'kern' Horizontal Kerning in Latin lookup 1 subtable" thorn dx=0 dy=0 dh=48 dv=0 dx=0 dy=0 dh=0 dv=0
PairPos2: "'kern' Horizontal Kerning in Latin lookup 1 subtable" y dx=0 dy=0 dh=39 dv=0 dx=0 dy=0 dh=0 dv=0
PairPos2: "'kern' Horizontal Kerning in Latin lookup 1 subtable" y dx=0 dy=0 dh=39 dv=0 dx=0 dy=0 dh=0 dv=0
PairPos2: "'kern' Horizontal Kerning in Latin lookup 1 subtable" y dx=0 dy=0 dh=39 dv=0 dx=0 dy=0 dh=0 dv=0
PairPos2: "'kern' Horizontal Kerning in Latin lookup 1 subtable" y dx=0 dy=0 dh=39 dv=0 dx=0 dy=0 dh=0 dv=0
PairPos2: "'kern' Horizontal Kerning in Latin lookup 1 subtable" y dx=0 dy=0 dh=39 dv=0 dx=0 dy=0 dh=0 dv=0
PairPos2: "'kern' Horizontal Kerning in Latin lookup 1 subtable" h dx=0 dy=0 dh=12 dv=0 dx=0 dy=0 dh=0 dv=0
PairPos2: "'kern' Horizontal Kerning in Latin lookup 1 subtable" h dx=0 dy=0 dh=12 dv=0 dx=0 dy=0 dh=0 dv=0
PairPos2: "'kern' Horizontal Kerning in Latin lookup 1 subtable" h dx=0 dy=0 dh=12 dv=0 dx=0 dy=0 dh=0 dv=0
PairPos2: "'kern' Horizontal Kerning in Latin lookup 1 subtable" h dx=0 dy=0 dh=12 dv=0 dx=0 dy=0 dh=0 dv=0
PairPos2: "'kern' Horizontal Kerning in Latin lookup 1 subtable" h dx=0 dy=0 dh=12 dv=0 dx=0 dy=0 dh=0 dv=0
PairPos2: "'kern' Horizontal Kerning in Latin lookup 1 subtable" b dx=0 dy=0 dh=41 dv=0 dx=0 dy=0 dh=0 dv=0
PairPos2: "'kern' Horizontal Kerning in Latin lookup 1 subtable" b dx=0 dy=0 dh=41 dv=0 dx=0 dy=0 dh=0 dv=0
PairPos2: "'kern' Horizontal Kerning in Latin lookup 1 subtable" b dx=0 dy=0 dh=41 dv=0 dx=0 dy=0 dh=0 dv=0
PairPos2: "'kern' Horizontal Kerning in Latin lookup 1 subtable" b dx=0 dy=0 dh=41 dv=0 dx=0 dy=0 dh=0 dv=0
PairPos2: "'kern' Horizontal Kerning in Latin lookup 1 subtable" b dx=0 dy=0 dh=41 dv=0 dx=0 dy=0 dh=0 dv=0
PairPos2: "'kern' Horizontal Kerning in Latin lookup 1 subtable" Y dx=0 dy=0 dh=64 dv=0 dx=0 dy=0 dh=0 dv=0
PairPos2: "'kern' Horizontal Kerning in Latin lookup 1 subtable" Y dx=0 dy=0 dh=64 dv=0 dx=0 dy=0 dh=0 dv=0
PairPos2: "'kern' Horizontal Kerning in Latin lookup 1 subtable" Y dx=0 dy=0 dh=64 dv=0 dx=0 dy=0 dh=0 dv=0
PairPos2: "'kern' Horizontal Kerning in Latin lookup 1 subtable" Y dx=0 dy=0 dh=64 dv=0 dx=0 dy=0 dh=0 dv=0
PairPos2: "'kern' Horizontal Kerning in Latin lookup 1 subtable" Y dx=0 dy=0 dh=64 dv=0 dx=0 dy=0 dh=0 dv=0
PairPos2: "'kern' Horizontal Kerning in Latin lookup 1 subtable" W dx=0 dy=0 dh=53 dv=0 dx=0 dy=0 dh=0 dv=0
PairPos2: "'kern' Horizontal Kerning in Latin lookup 1 subtable" W dx=0 dy=0 dh=53 dv=0 dx=0 dy=0 dh=0 dv=0
PairPos2: "'kern' Horizontal Kerning in Latin lookup 1 subtable" W dx=0 dy=0 dh=53 dv=0 dx=0 dy=0 dh=0 dv=0
PairPos2: "'kern' Horizontal Kerning in Latin lookup 1 subtable" W dx=0 dy=0 dh=53 dv=0 dx=0 dy=0 dh=0 dv=0
PairPos2: "'kern' Horizontal Kerning in Latin lookup 1 subtable" W dx=0 dy=0 dh=53 dv=0 dx=0 dy=0 dh=0 dv=0
PairPos2: "'kern' Horizontal Kerning in Latin lookup 1 subtable" V dx=0 dy=0 dh=62 dv=0 dx=0 dy=0 dh=0 dv=0
PairPos2: "'kern' Horizontal Kerning in Latin lookup 1 subtable" V dx=0 dy=0 dh=62 dv=0 dx=0 dy=0 dh=0 dv=0
PairPos2: "'kern' Horizontal Kerning in Latin lookup 1 subtable" V dx=0 dy=0 dh=62 dv=0 dx=0 dy=0 dh=0 dv=0
PairPos2: "'kern' Horizontal Kerning in Latin lookup 1 subtable" V dx=0 dy=0 dh=62 dv=0 dx=0 dy=0 dh=0 dv=0
PairPos2: "'kern' Horizontal Kerning in Latin lookup 1 subtable" V dx=0 dy=0 dh=62 dv=0 dx=0 dy=0 dh=0 dv=0
PairPos2: "'kern' Horizontal Kerning in Latin lookup 1 subtable" J dx=0 dy=0 dh=20 dv=0 dx=0 dy=0 dh=0 dv=0
PairPos2: "'kern' Horizontal Kerning in Latin lookup 1 subtable" J dx=0 dy=0 dh=20 dv=0 dx=0 dy=0 dh=0 dv=0
PairPos2: "'kern' Horizontal Kerning in Latin lookup 1 subtable" J dx=0 dy=0 dh=20 dv=0 dx=0 dy=0 dh=0 dv=0
PairPos2: "'kern' Horizontal Kerning in Latin lookup 1 subtable" J dx=0 dy=0 dh=20 dv=0 dx=0 dy=0 dh=0 dv=0
PairPos2: "'kern' Horizontal Kerning in Latin lookup 1 subtable" J dx=0 dy=0 dh=20 dv=0 dx=0 dy=0 dh=0 dv=0
EndChar

StartChar: backslash
Encoding: 92 92 63
Width: 711
GlyphClass: 2
Flags: W
LayerCount: 2
Fore
SplineSet
382 1237 m 1,0,-1
 592 -364 l 1,1,-1
 463 -356 l 1,2,-1
 251 1246 l 1,3,-1
 382 1237 l 1,0,-1
EndSplineSet
PairPos2: "'kern' Horizontal Kerning in Latin lookup 1 subtable" zero.osf dx=0 dy=0 dh=-31 dv=0 dx=0 dy=0 dh=0 dv=0
PairPos2: "'kern' Horizontal Kerning in Latin lookup 1 subtable" zero.osf dx=0 dy=0 dh=-31 dv=0 dx=0 dy=0 dh=0 dv=0
PairPos2: "'kern' Horizontal Kerning in Latin lookup 1 subtable" zero.osf dx=0 dy=0 dh=-31 dv=0 dx=0 dy=0 dh=0 dv=0
PairPos2: "'kern' Horizontal Kerning in Latin lookup 1 subtable" zero.osf dx=0 dy=0 dh=-31 dv=0 dx=0 dy=0 dh=0 dv=0
PairPos2: "'kern' Horizontal Kerning in Latin lookup 1 subtable" zero.osf dx=0 dy=0 dh=-31 dv=0 dx=0 dy=0 dh=0 dv=0
PairPos2: "'kern' Horizontal Kerning in Latin lookup 1 subtable" six.osf dx=0 dy=0 dh=-29 dv=0 dx=0 dy=0 dh=0 dv=0
PairPos2: "'kern' Horizontal Kerning in Latin lookup 1 subtable" six.osf dx=0 dy=0 dh=-29 dv=0 dx=0 dy=0 dh=0 dv=0
PairPos2: "'kern' Horizontal Kerning in Latin lookup 1 subtable" six.osf dx=0 dy=0 dh=-29 dv=0 dx=0 dy=0 dh=0 dv=0
PairPos2: "'kern' Horizontal Kerning in Latin lookup 1 subtable" six.osf dx=0 dy=0 dh=-29 dv=0 dx=0 dy=0 dh=0 dv=0
PairPos2: "'kern' Horizontal Kerning in Latin lookup 1 subtable" six.osf dx=0 dy=0 dh=-29 dv=0 dx=0 dy=0 dh=0 dv=0
PairPos2: "'kern' Horizontal Kerning in Latin lookup 1 subtable" five.osf dx=0 dy=0 dh=20 dv=0 dx=0 dy=0 dh=0 dv=0
PairPos2: "'kern' Horizontal Kerning in Latin lookup 1 subtable" five.osf dx=0 dy=0 dh=20 dv=0 dx=0 dy=0 dh=0 dv=0
PairPos2: "'kern' Horizontal Kerning in Latin lookup 1 subtable" five.osf dx=0 dy=0 dh=20 dv=0 dx=0 dy=0 dh=0 dv=0
PairPos2: "'kern' Horizontal Kerning in Latin lookup 1 subtable" five.osf dx=0 dy=0 dh=20 dv=0 dx=0 dy=0 dh=0 dv=0
PairPos2: "'kern' Horizontal Kerning in Latin lookup 1 subtable" five.osf dx=0 dy=0 dh=20 dv=0 dx=0 dy=0 dh=0 dv=0
PairPos2: "'kern' Horizontal Kerning in Latin lookup 1 subtable" eight.osf dx=0 dy=0 dh=-31 dv=0 dx=0 dy=0 dh=0 dv=0
PairPos2: "'kern' Horizontal Kerning in Latin lookup 1 subtable" eight.osf dx=0 dy=0 dh=-31 dv=0 dx=0 dy=0 dh=0 dv=0
PairPos2: "'kern' Horizontal Kerning in Latin lookup 1 subtable" eight.osf dx=0 dy=0 dh=-31 dv=0 dx=0 dy=0 dh=0 dv=0
PairPos2: "'kern' Horizontal Kerning in Latin lookup 1 subtable" eight.osf dx=0 dy=0 dh=-31 dv=0 dx=0 dy=0 dh=0 dv=0
PairPos2: "'kern' Horizontal Kerning in Latin lookup 1 subtable" eight.osf dx=0 dy=0 dh=-31 dv=0 dx=0 dy=0 dh=0 dv=0
PairPos2: "'kern' Horizontal Kerning in Latin lookup 1 subtable" quotedblright dx=0 dy=0 dh=-65 dv=0 dx=0 dy=0 dh=0 dv=0
PairPos2: "'kern' Horizontal Kerning in Latin lookup 1 subtable" quotedblright dx=0 dy=0 dh=-65 dv=0 dx=0 dy=0 dh=0 dv=0
PairPos2: "'kern' Horizontal Kerning in Latin lookup 1 subtable" quotedblright dx=0 dy=0 dh=-65 dv=0 dx=0 dy=0 dh=0 dv=0
PairPos2: "'kern' Horizontal Kerning in Latin lookup 1 subtable" quotedblright dx=0 dy=0 dh=-65 dv=0 dx=0 dy=0 dh=0 dv=0
PairPos2: "'kern' Horizontal Kerning in Latin lookup 1 subtable" quotedblright dx=0 dy=0 dh=-65 dv=0 dx=0 dy=0 dh=0 dv=0
PairPos2: "'kern' Horizontal Kerning in Latin lookup 1 subtable" quotereversed dx=0 dy=0 dh=-80 dv=0 dx=0 dy=0 dh=0 dv=0
PairPos2: "'kern' Horizontal Kerning in Latin lookup 1 subtable" quotereversed dx=0 dy=0 dh=-80 dv=0 dx=0 dy=0 dh=0 dv=0
PairPos2: "'kern' Horizontal Kerning in Latin lookup 1 subtable" quotereversed dx=0 dy=0 dh=-80 dv=0 dx=0 dy=0 dh=0 dv=0
PairPos2: "'kern' Horizontal Kerning in Latin lookup 1 subtable" quotereversed dx=0 dy=0 dh=-80 dv=0 dx=0 dy=0 dh=0 dv=0
PairPos2: "'kern' Horizontal Kerning in Latin lookup 1 subtable" quotereversed dx=0 dy=0 dh=-80 dv=0 dx=0 dy=0 dh=0 dv=0
PairPos2: "'kern' Horizontal Kerning in Latin lookup 1 subtable" dotlessj dx=0 dy=0 dh=12 dv=0 dx=0 dy=0 dh=0 dv=0
PairPos2: "'kern' Horizontal Kerning in Latin lookup 1 subtable" dotlessj dx=0 dy=0 dh=12 dv=0 dx=0 dy=0 dh=0 dv=0
PairPos2: "'kern' Horizontal Kerning in Latin lookup 1 subtable" dotlessj dx=0 dy=0 dh=12 dv=0 dx=0 dy=0 dh=0 dv=0
PairPos2: "'kern' Horizontal Kerning in Latin lookup 1 subtable" dotlessj dx=0 dy=0 dh=12 dv=0 dx=0 dy=0 dh=0 dv=0
PairPos2: "'kern' Horizontal Kerning in Latin lookup 1 subtable" dotlessj dx=0 dy=0 dh=12 dv=0 dx=0 dy=0 dh=0 dv=0
PairPos2: "'kern' Horizontal Kerning in Latin lookup 1 subtable" thorn dx=0 dy=0 dh=-20 dv=0 dx=0 dy=0 dh=0 dv=0
PairPos2: "'kern' Horizontal Kerning in Latin lookup 1 subtable" thorn dx=0 dy=0 dh=-20 dv=0 dx=0 dy=0 dh=0 dv=0
PairPos2: "'kern' Horizontal Kerning in Latin lookup 1 subtable" thorn dx=0 dy=0 dh=-20 dv=0 dx=0 dy=0 dh=0 dv=0
PairPos2: "'kern' Horizontal Kerning in Latin lookup 1 subtable" thorn dx=0 dy=0 dh=-20 dv=0 dx=0 dy=0 dh=0 dv=0
PairPos2: "'kern' Horizontal Kerning in Latin lookup 1 subtable" thorn dx=0 dy=0 dh=-20 dv=0 dx=0 dy=0 dh=0 dv=0
PairPos2: "'kern' Horizontal Kerning in Latin lookup 1 subtable" eth dx=0 dy=0 dh=-26 dv=0 dx=0 dy=0 dh=0 dv=0
PairPos2: "'kern' Horizontal Kerning in Latin lookup 1 subtable" eth dx=0 dy=0 dh=-26 dv=0 dx=0 dy=0 dh=0 dv=0
PairPos2: "'kern' Horizontal Kerning in Latin lookup 1 subtable" eth dx=0 dy=0 dh=-26 dv=0 dx=0 dy=0 dh=0 dv=0
PairPos2: "'kern' Horizontal Kerning in Latin lookup 1 subtable" eth dx=0 dy=0 dh=-26 dv=0 dx=0 dy=0 dh=0 dv=0
PairPos2: "'kern' Horizontal Kerning in Latin lookup 1 subtable" eth dx=0 dy=0 dh=-26 dv=0 dx=0 dy=0 dh=0 dv=0
PairPos2: "'kern' Horizontal Kerning in Latin lookup 1 subtable" y dx=0 dy=0 dh=-17 dv=0 dx=0 dy=0 dh=0 dv=0
PairPos2: "'kern' Horizontal Kerning in Latin lookup 1 subtable" y dx=0 dy=0 dh=-17 dv=0 dx=0 dy=0 dh=0 dv=0
PairPos2: "'kern' Horizontal Kerning in Latin lookup 1 subtable" y dx=0 dy=0 dh=-17 dv=0 dx=0 dy=0 dh=0 dv=0
PairPos2: "'kern' Horizontal Kerning in Latin lookup 1 subtable" y dx=0 dy=0 dh=-17 dv=0 dx=0 dy=0 dh=0 dv=0
PairPos2: "'kern' Horizontal Kerning in Latin lookup 1 subtable" y dx=0 dy=0 dh=-17 dv=0 dx=0 dy=0 dh=0 dv=0
PairPos2: "'kern' Horizontal Kerning in Latin lookup 1 subtable" w dx=0 dy=0 dh=-46 dv=0 dx=0 dy=0 dh=0 dv=0
PairPos2: "'kern' Horizontal Kerning in Latin lookup 1 subtable" w dx=0 dy=0 dh=-46 dv=0 dx=0 dy=0 dh=0 dv=0
PairPos2: "'kern' Horizontal Kerning in Latin lookup 1 subtable" w dx=0 dy=0 dh=-46 dv=0 dx=0 dy=0 dh=0 dv=0
PairPos2: "'kern' Horizontal Kerning in Latin lookup 1 subtable" w dx=0 dy=0 dh=-46 dv=0 dx=0 dy=0 dh=0 dv=0
PairPos2: "'kern' Horizontal Kerning in Latin lookup 1 subtable" w dx=0 dy=0 dh=-46 dv=0 dx=0 dy=0 dh=0 dv=0
PairPos2: "'kern' Horizontal Kerning in Latin lookup 1 subtable" v dx=0 dy=0 dh=-48 dv=0 dx=0 dy=0 dh=0 dv=0
PairPos2: "'kern' Horizontal Kerning in Latin lookup 1 subtable" v dx=0 dy=0 dh=-48 dv=0 dx=0 dy=0 dh=0 dv=0
PairPos2: "'kern' Horizontal Kerning in Latin lookup 1 subtable" v dx=0 dy=0 dh=-48 dv=0 dx=0 dy=0 dh=0 dv=0
PairPos2: "'kern' Horizontal Kerning in Latin lookup 1 subtable" v dx=0 dy=0 dh=-48 dv=0 dx=0 dy=0 dh=0 dv=0
PairPos2: "'kern' Horizontal Kerning in Latin lookup 1 subtable" v dx=0 dy=0 dh=-48 dv=0 dx=0 dy=0 dh=0 dv=0
PairPos2: "'kern' Horizontal Kerning in Latin lookup 1 subtable" u dx=0 dy=0 dh=-38 dv=0 dx=0 dy=0 dh=0 dv=0
PairPos2: "'kern' Horizontal Kerning in Latin lookup 1 subtable" u dx=0 dy=0 dh=-38 dv=0 dx=0 dy=0 dh=0 dv=0
PairPos2: "'kern' Horizontal Kerning in Latin lookup 1 subtable" u dx=0 dy=0 dh=-38 dv=0 dx=0 dy=0 dh=0 dv=0
PairPos2: "'kern' Horizontal Kerning in Latin lookup 1 subtable" u dx=0 dy=0 dh=-38 dv=0 dx=0 dy=0 dh=0 dv=0
PairPos2: "'kern' Horizontal Kerning in Latin lookup 1 subtable" u dx=0 dy=0 dh=-38 dv=0 dx=0 dy=0 dh=0 dv=0
PairPos2: "'kern' Horizontal Kerning in Latin lookup 1 subtable" t dx=0 dy=0 dh=-36 dv=0 dx=0 dy=0 dh=0 dv=0
PairPos2: "'kern' Horizontal Kerning in Latin lookup 1 subtable" t dx=0 dy=0 dh=-36 dv=0 dx=0 dy=0 dh=0 dv=0
PairPos2: "'kern' Horizontal Kerning in Latin lookup 1 subtable" t dx=0 dy=0 dh=-36 dv=0 dx=0 dy=0 dh=0 dv=0
PairPos2: "'kern' Horizontal Kerning in Latin lookup 1 subtable" t dx=0 dy=0 dh=-36 dv=0 dx=0 dy=0 dh=0 dv=0
PairPos2: "'kern' Horizontal Kerning in Latin lookup 1 subtable" t dx=0 dy=0 dh=-36 dv=0 dx=0 dy=0 dh=0 dv=0
PairPos2: "'kern' Horizontal Kerning in Latin lookup 1 subtable" p dx=0 dy=0 dh=-32 dv=0 dx=0 dy=0 dh=0 dv=0
PairPos2: "'kern' Horizontal Kerning in Latin lookup 1 subtable" p dx=0 dy=0 dh=-32 dv=0 dx=0 dy=0 dh=0 dv=0
PairPos2: "'kern' Horizontal Kerning in Latin lookup 1 subtable" p dx=0 dy=0 dh=-32 dv=0 dx=0 dy=0 dh=0 dv=0
PairPos2: "'kern' Horizontal Kerning in Latin lookup 1 subtable" p dx=0 dy=0 dh=-32 dv=0 dx=0 dy=0 dh=0 dv=0
PairPos2: "'kern' Horizontal Kerning in Latin lookup 1 subtable" p dx=0 dy=0 dh=-32 dv=0 dx=0 dy=0 dh=0 dv=0
PairPos2: "'kern' Horizontal Kerning in Latin lookup 1 subtable" o dx=0 dy=0 dh=-31 dv=0 dx=0 dy=0 dh=0 dv=0
PairPos2: "'kern' Horizontal Kerning in Latin lookup 1 subtable" o dx=0 dy=0 dh=-31 dv=0 dx=0 dy=0 dh=0 dv=0
PairPos2: "'kern' Horizontal Kerning in Latin lookup 1 subtable" o dx=0 dy=0 dh=-31 dv=0 dx=0 dy=0 dh=0 dv=0
PairPos2: "'kern' Horizontal Kerning in Latin lookup 1 subtable" o dx=0 dy=0 dh=-31 dv=0 dx=0 dy=0 dh=0 dv=0
PairPos2: "'kern' Horizontal Kerning in Latin lookup 1 subtable" o dx=0 dy=0 dh=-31 dv=0 dx=0 dy=0 dh=0 dv=0
PairPos2: "'kern' Horizontal Kerning in Latin lookup 1 subtable" g dx=0 dy=0 dh=-24 dv=0 dx=0 dy=0 dh=0 dv=0
PairPos2: "'kern' Horizontal Kerning in Latin lookup 1 subtable" g dx=0 dy=0 dh=-24 dv=0 dx=0 dy=0 dh=0 dv=0
PairPos2: "'kern' Horizontal Kerning in Latin lookup 1 subtable" g dx=0 dy=0 dh=-24 dv=0 dx=0 dy=0 dh=0 dv=0
PairPos2: "'kern' Horizontal Kerning in Latin lookup 1 subtable" g dx=0 dy=0 dh=-24 dv=0 dx=0 dy=0 dh=0 dv=0
PairPos2: "'kern' Horizontal Kerning in Latin lookup 1 subtable" g dx=0 dy=0 dh=-24 dv=0 dx=0 dy=0 dh=0 dv=0
PairPos2: "'kern' Horizontal Kerning in Latin lookup 1 subtable" e dx=0 dy=0 dh=-30 dv=0 dx=0 dy=0 dh=0 dv=0
PairPos2: "'kern' Horizontal Kerning in Latin lookup 1 subtable" e dx=0 dy=0 dh=-30 dv=0 dx=0 dy=0 dh=0 dv=0
PairPos2: "'kern' Horizontal Kerning in Latin lookup 1 subtable" e dx=0 dy=0 dh=-30 dv=0 dx=0 dy=0 dh=0 dv=0
PairPos2: "'kern' Horizontal Kerning in Latin lookup 1 subtable" e dx=0 dy=0 dh=-30 dv=0 dx=0 dy=0 dh=0 dv=0
PairPos2: "'kern' Horizontal Kerning in Latin lookup 1 subtable" e dx=0 dy=0 dh=-30 dv=0 dx=0 dy=0 dh=0 dv=0
PairPos2: "'kern' Horizontal Kerning in Latin lookup 1 subtable" d dx=0 dy=0 dh=-20 dv=0 dx=0 dy=0 dh=0 dv=0
PairPos2: "'kern' Horizontal Kerning in Latin lookup 1 subtable" d dx=0 dy=0 dh=-20 dv=0 dx=0 dy=0 dh=0 dv=0
PairPos2: "'kern' Horizontal Kerning in Latin lookup 1 subtable" d dx=0 dy=0 dh=-20 dv=0 dx=0 dy=0 dh=0 dv=0
PairPos2: "'kern' Horizontal Kerning in Latin lookup 1 subtable" d dx=0 dy=0 dh=-20 dv=0 dx=0 dy=0 dh=0 dv=0
PairPos2: "'kern' Horizontal Kerning in Latin lookup 1 subtable" d dx=0 dy=0 dh=-20 dv=0 dx=0 dy=0 dh=0 dv=0
PairPos2: "'kern' Horizontal Kerning in Latin lookup 1 subtable" c dx=0 dy=0 dh=-30 dv=0 dx=0 dy=0 dh=0 dv=0
PairPos2: "'kern' Horizontal Kerning in Latin lookup 1 subtable" c dx=0 dy=0 dh=-30 dv=0 dx=0 dy=0 dh=0 dv=0
PairPos2: "'kern' Horizontal Kerning in Latin lookup 1 subtable" c dx=0 dy=0 dh=-30 dv=0 dx=0 dy=0 dh=0 dv=0
PairPos2: "'kern' Horizontal Kerning in Latin lookup 1 subtable" c dx=0 dy=0 dh=-30 dv=0 dx=0 dy=0 dh=0 dv=0
PairPos2: "'kern' Horizontal Kerning in Latin lookup 1 subtable" c dx=0 dy=0 dh=-30 dv=0 dx=0 dy=0 dh=0 dv=0
PairPos2: "'kern' Horizontal Kerning in Latin lookup 1 subtable" b dx=0 dy=0 dh=-24 dv=0 dx=0 dy=0 dh=0 dv=0
PairPos2: "'kern' Horizontal Kerning in Latin lookup 1 subtable" b dx=0 dy=0 dh=-24 dv=0 dx=0 dy=0 dh=0 dv=0
PairPos2: "'kern' Horizontal Kerning in Latin lookup 1 subtable" b dx=0 dy=0 dh=-24 dv=0 dx=0 dy=0 dh=0 dv=0
PairPos2: "'kern' Horizontal Kerning in Latin lookup 1 subtable" b dx=0 dy=0 dh=-24 dv=0 dx=0 dy=0 dh=0 dv=0
PairPos2: "'kern' Horizontal Kerning in Latin lookup 1 subtable" b dx=0 dy=0 dh=-24 dv=0 dx=0 dy=0 dh=0 dv=0
PairPos2: "'kern' Horizontal Kerning in Latin lookup 1 subtable" a dx=0 dy=0 dh=-28 dv=0 dx=0 dy=0 dh=0 dv=0
PairPos2: "'kern' Horizontal Kerning in Latin lookup 1 subtable" a dx=0 dy=0 dh=-28 dv=0 dx=0 dy=0 dh=0 dv=0
PairPos2: "'kern' Horizontal Kerning in Latin lookup 1 subtable" a dx=0 dy=0 dh=-28 dv=0 dx=0 dy=0 dh=0 dv=0
PairPos2: "'kern' Horizontal Kerning in Latin lookup 1 subtable" a dx=0 dy=0 dh=-28 dv=0 dx=0 dy=0 dh=0 dv=0
PairPos2: "'kern' Horizontal Kerning in Latin lookup 1 subtable" a dx=0 dy=0 dh=-28 dv=0 dx=0 dy=0 dh=0 dv=0
PairPos2: "'kern' Horizontal Kerning in Latin lookup 1 subtable" Y dx=0 dy=0 dh=-59 dv=0 dx=0 dy=0 dh=0 dv=0
PairPos2: "'kern' Horizontal Kerning in Latin lookup 1 subtable" Y dx=0 dy=0 dh=-59 dv=0 dx=0 dy=0 dh=0 dv=0
PairPos2: "'kern' Horizontal Kerning in Latin lookup 1 subtable" Y dx=0 dy=0 dh=-59 dv=0 dx=0 dy=0 dh=0 dv=0
PairPos2: "'kern' Horizontal Kerning in Latin lookup 1 subtable" Y dx=0 dy=0 dh=-59 dv=0 dx=0 dy=0 dh=0 dv=0
PairPos2: "'kern' Horizontal Kerning in Latin lookup 1 subtable" Y dx=0 dy=0 dh=-59 dv=0 dx=0 dy=0 dh=0 dv=0
PairPos2: "'kern' Horizontal Kerning in Latin lookup 1 subtable" W dx=0 dy=0 dh=-67 dv=0 dx=0 dy=0 dh=0 dv=0
PairPos2: "'kern' Horizontal Kerning in Latin lookup 1 subtable" W dx=0 dy=0 dh=-67 dv=0 dx=0 dy=0 dh=0 dv=0
PairPos2: "'kern' Horizontal Kerning in Latin lookup 1 subtable" W dx=0 dy=0 dh=-67 dv=0 dx=0 dy=0 dh=0 dv=0
PairPos2: "'kern' Horizontal Kerning in Latin lookup 1 subtable" W dx=0 dy=0 dh=-67 dv=0 dx=0 dy=0 dh=0 dv=0
PairPos2: "'kern' Horizontal Kerning in Latin lookup 1 subtable" W dx=0 dy=0 dh=-67 dv=0 dx=0 dy=0 dh=0 dv=0
PairPos2: "'kern' Horizontal Kerning in Latin lookup 1 subtable" V dx=0 dy=0 dh=-73 dv=0 dx=0 dy=0 dh=0 dv=0
PairPos2: "'kern' Horizontal Kerning in Latin lookup 1 subtable" V dx=0 dy=0 dh=-73 dv=0 dx=0 dy=0 dh=0 dv=0
PairPos2: "'kern' Horizontal Kerning in Latin lookup 1 subtable" V dx=0 dy=0 dh=-73 dv=0 dx=0 dy=0 dh=0 dv=0
PairPos2: "'kern' Horizontal Kerning in Latin lookup 1 subtable" V dx=0 dy=0 dh=-73 dv=0 dx=0 dy=0 dh=0 dv=0
PairPos2: "'kern' Horizontal Kerning in Latin lookup 1 subtable" V dx=0 dy=0 dh=-73 dv=0 dx=0 dy=0 dh=0 dv=0
PairPos2: "'kern' Horizontal Kerning in Latin lookup 1 subtable" U dx=0 dy=0 dh=-60 dv=0 dx=0 dy=0 dh=0 dv=0
PairPos2: "'kern' Horizontal Kerning in Latin lookup 1 subtable" U dx=0 dy=0 dh=-60 dv=0 dx=0 dy=0 dh=0 dv=0
PairPos2: "'kern' Horizontal Kerning in Latin lookup 1 subtable" U dx=0 dy=0 dh=-60 dv=0 dx=0 dy=0 dh=0 dv=0
PairPos2: "'kern' Horizontal Kerning in Latin lookup 1 subtable" U dx=0 dy=0 dh=-60 dv=0 dx=0 dy=0 dh=0 dv=0
PairPos2: "'kern' Horizontal Kerning in Latin lookup 1 subtable" U dx=0 dy=0 dh=-60 dv=0 dx=0 dy=0 dh=0 dv=0
PairPos2: "'kern' Horizontal Kerning in Latin lookup 1 subtable" T dx=0 dy=0 dh=-55 dv=0 dx=0 dy=0 dh=0 dv=0
PairPos2: "'kern' Horizontal Kerning in Latin lookup 1 subtable" T dx=0 dy=0 dh=-55 dv=0 dx=0 dy=0 dh=0 dv=0
PairPos2: "'kern' Horizontal Kerning in Latin lookup 1 subtable" T dx=0 dy=0 dh=-55 dv=0 dx=0 dy=0 dh=0 dv=0
PairPos2: "'kern' Horizontal Kerning in Latin lookup 1 subtable" T dx=0 dy=0 dh=-55 dv=0 dx=0 dy=0 dh=0 dv=0
PairPos2: "'kern' Horizontal Kerning in Latin lookup 1 subtable" T dx=0 dy=0 dh=-55 dv=0 dx=0 dy=0 dh=0 dv=0
PairPos2: "'kern' Horizontal Kerning in Latin lookup 1 subtable" S dx=0 dy=0 dh=-28 dv=0 dx=0 dy=0 dh=0 dv=0
PairPos2: "'kern' Horizontal Kerning in Latin lookup 1 subtable" S dx=0 dy=0 dh=-28 dv=0 dx=0 dy=0 dh=0 dv=0
PairPos2: "'kern' Horizontal Kerning in Latin lookup 1 subtable" S dx=0 dy=0 dh=-28 dv=0 dx=0 dy=0 dh=0 dv=0
PairPos2: "'kern' Horizontal Kerning in Latin lookup 1 subtable" S dx=0 dy=0 dh=-28 dv=0 dx=0 dy=0 dh=0 dv=0
PairPos2: "'kern' Horizontal Kerning in Latin lookup 1 subtable" S dx=0 dy=0 dh=-28 dv=0 dx=0 dy=0 dh=0 dv=0
PairPos2: "'kern' Horizontal Kerning in Latin lookup 1 subtable" Q dx=0 dy=0 dh=-44 dv=0 dx=0 dy=0 dh=0 dv=0
PairPos2: "'kern' Horizontal Kerning in Latin lookup 1 subtable" Q dx=0 dy=0 dh=-44 dv=0 dx=0 dy=0 dh=0 dv=0
PairPos2: "'kern' Horizontal Kerning in Latin lookup 1 subtable" Q dx=0 dy=0 dh=-44 dv=0 dx=0 dy=0 dh=0 dv=0
PairPos2: "'kern' Horizontal Kerning in Latin lookup 1 subtable" Q dx=0 dy=0 dh=-44 dv=0 dx=0 dy=0 dh=0 dv=0
PairPos2: "'kern' Horizontal Kerning in Latin lookup 1 subtable" Q dx=0 dy=0 dh=-44 dv=0 dx=0 dy=0 dh=0 dv=0
PairPos2: "'kern' Horizontal Kerning in Latin lookup 1 subtable" O dx=0 dy=0 dh=-44 dv=0 dx=0 dy=0 dh=0 dv=0
PairPos2: "'kern' Horizontal Kerning in Latin lookup 1 subtable" O dx=0 dy=0 dh=-44 dv=0 dx=0 dy=0 dh=0 dv=0
PairPos2: "'kern' Horizontal Kerning in Latin lookup 1 subtable" O dx=0 dy=0 dh=-44 dv=0 dx=0 dy=0 dh=0 dv=0
PairPos2: "'kern' Horizontal Kerning in Latin lookup 1 subtable" O dx=0 dy=0 dh=-44 dv=0 dx=0 dy=0 dh=0 dv=0
PairPos2: "'kern' Horizontal Kerning in Latin lookup 1 subtable" O dx=0 dy=0 dh=-44 dv=0 dx=0 dy=0 dh=0 dv=0
PairPos2: "'kern' Horizontal Kerning in Latin lookup 1 subtable" N dx=0 dy=0 dh=-17 dv=0 dx=0 dy=0 dh=0 dv=0
PairPos2: "'kern' Horizontal Kerning in Latin lookup 1 subtable" N dx=0 dy=0 dh=-17 dv=0 dx=0 dy=0 dh=0 dv=0
PairPos2: "'kern' Horizontal Kerning in Latin lookup 1 subtable" N dx=0 dy=0 dh=-17 dv=0 dx=0 dy=0 dh=0 dv=0
PairPos2: "'kern' Horizontal Kerning in Latin lookup 1 subtable" N dx=0 dy=0 dh=-17 dv=0 dx=0 dy=0 dh=0 dv=0
PairPos2: "'kern' Horizontal Kerning in Latin lookup 1 subtable" N dx=0 dy=0 dh=-17 dv=0 dx=0 dy=0 dh=0 dv=0
PairPos2: "'kern' Horizontal Kerning in Latin lookup 1 subtable" J dx=0 dy=0 dh=-38 dv=0 dx=0 dy=0 dh=0 dv=0
PairPos2: "'kern' Horizontal Kerning in Latin lookup 1 subtable" J dx=0 dy=0 dh=-38 dv=0 dx=0 dy=0 dh=0 dv=0
PairPos2: "'kern' Horizontal Kerning in Latin lookup 1 subtable" J dx=0 dy=0 dh=-38 dv=0 dx=0 dy=0 dh=0 dv=0
PairPos2: "'kern' Horizontal Kerning in Latin lookup 1 subtable" J dx=0 dy=0 dh=-38 dv=0 dx=0 dy=0 dh=0 dv=0
PairPos2: "'kern' Horizontal Kerning in Latin lookup 1 subtable" J dx=0 dy=0 dh=-38 dv=0 dx=0 dy=0 dh=0 dv=0
PairPos2: "'kern' Horizontal Kerning in Latin lookup 1 subtable" G dx=0 dy=0 dh=-42 dv=0 dx=0 dy=0 dh=0 dv=0
PairPos2: "'kern' Horizontal Kerning in Latin lookup 1 subtable" G dx=0 dy=0 dh=-42 dv=0 dx=0 dy=0 dh=0 dv=0
PairPos2: "'kern' Horizontal Kerning in Latin lookup 1 subtable" G dx=0 dy=0 dh=-42 dv=0 dx=0 dy=0 dh=0 dv=0
PairPos2: "'kern' Horizontal Kerning in Latin lookup 1 subtable" G dx=0 dy=0 dh=-42 dv=0 dx=0 dy=0 dh=0 dv=0
PairPos2: "'kern' Horizontal Kerning in Latin lookup 1 subtable" G dx=0 dy=0 dh=-42 dv=0 dx=0 dy=0 dh=0 dv=0
PairPos2: "'kern' Horizontal Kerning in Latin lookup 1 subtable" C dx=0 dy=0 dh=-43 dv=0 dx=0 dy=0 dh=0 dv=0
PairPos2: "'kern' Horizontal Kerning in Latin lookup 1 subtable" C dx=0 dy=0 dh=-43 dv=0 dx=0 dy=0 dh=0 dv=0
PairPos2: "'kern' Horizontal Kerning in Latin lookup 1 subtable" C dx=0 dy=0 dh=-43 dv=0 dx=0 dy=0 dh=0 dv=0
PairPos2: "'kern' Horizontal Kerning in Latin lookup 1 subtable" C dx=0 dy=0 dh=-43 dv=0 dx=0 dy=0 dh=0 dv=0
PairPos2: "'kern' Horizontal Kerning in Latin lookup 1 subtable" C dx=0 dy=0 dh=-43 dv=0 dx=0 dy=0 dh=0 dv=0
PairPos2: "'kern' Horizontal Kerning in Latin lookup 1 subtable" B dx=0 dy=0 dh=-17 dv=0 dx=0 dy=0 dh=0 dv=0
PairPos2: "'kern' Horizontal Kerning in Latin lookup 1 subtable" B dx=0 dy=0 dh=-17 dv=0 dx=0 dy=0 dh=0 dv=0
PairPos2: "'kern' Horizontal Kerning in Latin lookup 1 subtable" B dx=0 dy=0 dh=-17 dv=0 dx=0 dy=0 dh=0 dv=0
PairPos2: "'kern' Horizontal Kerning in Latin lookup 1 subtable" B dx=0 dy=0 dh=-17 dv=0 dx=0 dy=0 dh=0 dv=0
PairPos2: "'kern' Horizontal Kerning in Latin lookup 1 subtable" B dx=0 dy=0 dh=-17 dv=0 dx=0 dy=0 dh=0 dv=0
PairPos2: "'kern' Horizontal Kerning in Latin lookup 1 subtable" nine dx=0 dy=0 dh=-39 dv=0 dx=0 dy=0 dh=0 dv=0
PairPos2: "'kern' Horizontal Kerning in Latin lookup 1 subtable" nine dx=0 dy=0 dh=-39 dv=0 dx=0 dy=0 dh=0 dv=0
PairPos2: "'kern' Horizontal Kerning in Latin lookup 1 subtable" nine dx=0 dy=0 dh=-39 dv=0 dx=0 dy=0 dh=0 dv=0
PairPos2: "'kern' Horizontal Kerning in Latin lookup 1 subtable" nine dx=0 dy=0 dh=-39 dv=0 dx=0 dy=0 dh=0 dv=0
PairPos2: "'kern' Horizontal Kerning in Latin lookup 1 subtable" nine dx=0 dy=0 dh=-39 dv=0 dx=0 dy=0 dh=0 dv=0
PairPos2: "'kern' Horizontal Kerning in Latin lookup 1 subtable" eight dx=0 dy=0 dh=-31 dv=0 dx=0 dy=0 dh=0 dv=0
PairPos2: "'kern' Horizontal Kerning in Latin lookup 1 subtable" eight dx=0 dy=0 dh=-31 dv=0 dx=0 dy=0 dh=0 dv=0
PairPos2: "'kern' Horizontal Kerning in Latin lookup 1 subtable" eight dx=0 dy=0 dh=-31 dv=0 dx=0 dy=0 dh=0 dv=0
PairPos2: "'kern' Horizontal Kerning in Latin lookup 1 subtable" eight dx=0 dy=0 dh=-31 dv=0 dx=0 dy=0 dh=0 dv=0
PairPos2: "'kern' Horizontal Kerning in Latin lookup 1 subtable" eight dx=0 dy=0 dh=-31 dv=0 dx=0 dy=0 dh=0 dv=0
PairPos2: "'kern' Horizontal Kerning in Latin lookup 1 subtable" seven dx=0 dy=0 dh=-57 dv=0 dx=0 dy=0 dh=0 dv=0
PairPos2: "'kern' Horizontal Kerning in Latin lookup 1 subtable" seven dx=0 dy=0 dh=-57 dv=0 dx=0 dy=0 dh=0 dv=0
PairPos2: "'kern' Horizontal Kerning in Latin lookup 1 subtable" seven dx=0 dy=0 dh=-57 dv=0 dx=0 dy=0 dh=0 dv=0
PairPos2: "'kern' Horizontal Kerning in Latin lookup 1 subtable" seven dx=0 dy=0 dh=-57 dv=0 dx=0 dy=0 dh=0 dv=0
PairPos2: "'kern' Horizontal Kerning in Latin lookup 1 subtable" seven dx=0 dy=0 dh=-57 dv=0 dx=0 dy=0 dh=0 dv=0
PairPos2: "'kern' Horizontal Kerning in Latin lookup 1 subtable" six dx=0 dy=0 dh=-35 dv=0 dx=0 dy=0 dh=0 dv=0
PairPos2: "'kern' Horizontal Kerning in Latin lookup 1 subtable" six dx=0 dy=0 dh=-35 dv=0 dx=0 dy=0 dh=0 dv=0
PairPos2: "'kern' Horizontal Kerning in Latin lookup 1 subtable" six dx=0 dy=0 dh=-35 dv=0 dx=0 dy=0 dh=0 dv=0
PairPos2: "'kern' Horizontal Kerning in Latin lookup 1 subtable" six dx=0 dy=0 dh=-35 dv=0 dx=0 dy=0 dh=0 dv=0
PairPos2: "'kern' Horizontal Kerning in Latin lookup 1 subtable" six dx=0 dy=0 dh=-35 dv=0 dx=0 dy=0 dh=0 dv=0
PairPos2: "'kern' Horizontal Kerning in Latin lookup 1 subtable" four dx=0 dy=0 dh=-33 dv=0 dx=0 dy=0 dh=0 dv=0
PairPos2: "'kern' Horizontal Kerning in Latin lookup 1 subtable" four dx=0 dy=0 dh=-33 dv=0 dx=0 dy=0 dh=0 dv=0
PairPos2: "'kern' Horizontal Kerning in Latin lookup 1 subtable" four dx=0 dy=0 dh=-33 dv=0 dx=0 dy=0 dh=0 dv=0
PairPos2: "'kern' Horizontal Kerning in Latin lookup 1 subtable" four dx=0 dy=0 dh=-33 dv=0 dx=0 dy=0 dh=0 dv=0
PairPos2: "'kern' Horizontal Kerning in Latin lookup 1 subtable" four dx=0 dy=0 dh=-33 dv=0 dx=0 dy=0 dh=0 dv=0
PairPos2: "'kern' Horizontal Kerning in Latin lookup 1 subtable" zero dx=0 dy=0 dh=-41 dv=0 dx=0 dy=0 dh=0 dv=0
PairPos2: "'kern' Horizontal Kerning in Latin lookup 1 subtable" zero dx=0 dy=0 dh=-41 dv=0 dx=0 dy=0 dh=0 dv=0
PairPos2: "'kern' Horizontal Kerning in Latin lookup 1 subtable" zero dx=0 dy=0 dh=-41 dv=0 dx=0 dy=0 dh=0 dv=0
PairPos2: "'kern' Horizontal Kerning in Latin lookup 1 subtable" zero dx=0 dy=0 dh=-41 dv=0 dx=0 dy=0 dh=0 dv=0
PairPos2: "'kern' Horizontal Kerning in Latin lookup 1 subtable" zero dx=0 dy=0 dh=-41 dv=0 dx=0 dy=0 dh=0 dv=0
PairPos2: "'kern' Horizontal Kerning in Latin lookup 1 subtable" quotedbl dx=0 dy=0 dh=-76 dv=0 dx=0 dy=0 dh=0 dv=0
PairPos2: "'kern' Horizontal Kerning in Latin lookup 1 subtable" quotedbl dx=0 dy=0 dh=-76 dv=0 dx=0 dy=0 dh=0 dv=0
PairPos2: "'kern' Horizontal Kerning in Latin lookup 1 subtable" quotedbl dx=0 dy=0 dh=-76 dv=0 dx=0 dy=0 dh=0 dv=0
PairPos2: "'kern' Horizontal Kerning in Latin lookup 1 subtable" quotedbl dx=0 dy=0 dh=-76 dv=0 dx=0 dy=0 dh=0 dv=0
PairPos2: "'kern' Horizontal Kerning in Latin lookup 1 subtable" quotedbl dx=0 dy=0 dh=-76 dv=0 dx=0 dy=0 dh=0 dv=0
EndChar

StartChar: bracketright
Encoding: 93 93 64
Width: 443
GlyphClass: 2
Flags: W
LayerCount: 2
Fore
SplineSet
-24 -376 m 1,0,-1
 -19 -280 l 1,1,-1
 127 -260 l 1,2,-1
 348 1148 l 1,3,-1
 211 1168 l 1,4,-1
 237 1257 l 1,5,-1
 509 1257 l 1,6,-1
 251 -377 l 1,7,-1
 -24 -376 l 1,0,-1
EndSplineSet
EndChar

StartChar: asciicircum
Encoding: 94 94 65
Width: 751
GlyphClass: 2
Flags: W
LayerCount: 2
Fore
SplineSet
597 1252 m 1,0,-1
 827 825 l 1,1,-1
 764 789 l 1,2,-1
 536 1075 l 1,3,-1
 526 1075 l 1,4,-1
 232 794 l 1,5,-1
 187 827 l 1,6,-1
 541 1239 l 1,7,-1
 597 1252 l 1,0,-1
EndSplineSet
EndChar

StartChar: underscore
Encoding: 95 95 66
Width: 842
GlyphClass: 2
Flags: W
LayerCount: 2
Fore
SplineSet
7 -26 m 1,0,-1
 838 -26 l 1,1,-1
 810 -132 l 1,2,-1
 -21 -132 l 1,3,-1
 7 -26 l 1,0,-1
EndSplineSet
EndChar

StartChar: grave
Encoding: 96 96 67
Width: 634
GlyphClass: 2
Flags: W
LayerCount: 2
Fore
SplineSet
164 1663 m 1,0,-1
 280 1701 l 1,1,-1
 412 1366 l 1,2,-1
 354 1332 l 1,3,-1
 164 1663 l 1,0,-1
EndSplineSet
EndChar

StartChar: a
Encoding: 97 97 68
Width: 855
GlyphClass: 2
Flags: W
LayerCount: 2
Fore
SplineSet
846 84 m 1,0,-1
 826 15 l 1,1,2
 757 -15 757 -15 686 -15 c 0,3,4
 633 -15 633 -15 600 10 c 128,-1,5
 567 35 567 35 567 83 c 2,6,-1
 567 94 l 1,7,-1
 570 132 l 1,8,-1
 558 132 l 1,9,10
 520 64 520 64 456 21 c 128,-1,11
 392 -22 392 -22 322 -22 c 0,12,13
 229 -22 229 -22 174.5 57 c 128,-1,14
 120 136 120 136 120 275 c 0,15,16
 120 387 120 387 151.5 487 c 128,-1,17
 183 587 183 587 237 661 c 0,18,19
 345 808 345 808 493 862 c 0,20,21
 564 887 564 887 631 887 c 0,22,23
 761 887 761 887 816 852 c 1,24,-1
 833 834 l 1,25,-1
 762 379 l 1,26,27
 736 204 736 204 735 162 c 0,28,29
 735 128 735 128 744.5 114 c 128,-1,30
 754 100 754 100 778 96 c 2,31,-1
 846 84 l 1,0,-1
661 748 m 1,32,33
 624 783 624 783 542 782 c 0,34,35
 468 782 468 782 406 713 c 128,-1,36
 344 644 344 644 313 535 c 1,37,38
 282 432 282 432 282 321 c 0,39,40
 282 106 282 106 403 106 c 0,41,42
 453 106 453 106 491.5 129 c 128,-1,43
 530 152 530 152 575 202 c 1,44,-1
 661 748 l 1,32,33
EndSplineSet
EndChar

StartChar: b
Encoding: 98 98 69
Width: 866
GlyphClass: 2
Flags: W
LayerCount: 2
Fore
SplineSet
304 1145 m 1,0,-1
 170 1168 l 1,1,-1
 176 1244 l 1,2,-1
 452 1269 l 1,3,-1
 471 1246 l 1,4,-1
 408 844 l 1,5,-1
 381 723 l 1,6,-1
 393 723 l 1,7,8
 434 793 434 793 508 842.5 c 128,-1,9
 582 892 582 892 649 892 c 0,10,11
 714 892 714 892 768 842 c 128,-1,12
 822 792 822 792 851 710 c 0,13,14
 879 631 879 631 879 536 c 0,15,16
 879 384 879 384 811.5 255.5 c 128,-1,17
 744 127 744 127 625 52 c 0,18,19
 505 -23 505 -23 360 -23 c 0,20,21
 297 -23 297 -23 231 -3 c 128,-1,22
 165 17 165 17 128 50 c 1,23,-1
 304 1145 l 1,0,-1
586 142 m 0,24,25
 661 207 661 207 693 338 c 1,26,27
 710 412 710 412 711 506 c 1,28,29
 711 632 711 632 648 709 c 0,30,31
 615 750 615 750 570 749 c 1,32,33
 514 749 514 749 473.5 730 c 128,-1,34
 433 711 433 711 385 667 c 1,35,-1
 299 154 l 1,36,37
 319 124 319 124 362 106.5 c 128,-1,38
 405 89 405 89 459 89 c 0,39,40
 524 89 524 89 586 142 c 0,24,25
EndSplineSet
EndChar

StartChar: c
Encoding: 99 99 70
Width: 666
GlyphClass: 2
Flags: W
LayerCount: 2
Fore
SplineSet
447 93 m 0,0,1
 500 93 500 93 539.5 107.5 c 128,-1,2
 579 122 579 122 630 156 c 1,3,-1
 653 106 l 1,4,5
 605 46 605 46 531 8 c 128,-1,6
 457 -30 457 -30 385 -30 c 0,7,8
 261 -30 261 -30 191.5 58.5 c 128,-1,9
 122 147 122 147 122 308 c 0,10,11
 122 411 122 411 152 507.5 c 128,-1,12
 182 604 182 604 232 676 c 0,13,14
 280 745 280 745 340 797 c 128,-1,15
 400 849 400 849 460 876 c 0,16,17
 520 902 520 902 572 902 c 0,18,19
 651 902 651 902 696 863 c 128,-1,20
 741 824 741 824 741 758 c 0,21,22
 741 710 741 710 702 679 c 128,-1,23
 663 648 663 648 602 644 c 1,24,25
 597 706 597 706 582 750 c 1,26,27
 564 807 564 807 523 807 c 0,28,29
 486 807 486 807 446.5 773 c 128,-1,30
 407 739 407 739 372 679 c 0,31,32
 337 618 337 618 315.5 525.5 c 128,-1,33
 294 433 294 433 294 331 c 0,34,35
 294 219 294 219 332.5 156 c 128,-1,36
 371 93 371 93 447 93 c 0,0,1
EndSplineSet
EndChar

StartChar: d
Encoding: 100 100 71
Width: 854
GlyphClass: 2
Flags: W
LayerCount: 2
Fore
SplineSet
840 86 m 1,0,-1
 821 15 l 1,1,2
 735 -15 735 -15 682 -15 c 0,3,4
 624 -15 624 -15 594 9 c 128,-1,5
 564 33 564 33 562 74 c 1,6,7
 562 97 562 97 567 132 c 1,8,-1
 554 132 l 1,9,10
 516 64 516 64 452 21 c 128,-1,11
 388 -22 388 -22 318 -22 c 0,12,13
 119 -22 119 -22 119 271 c 0,14,15
 119 374 119 374 149 473 c 128,-1,16
 179 572 179 572 231 646 c 0,17,18
 339 802 339 802 479 859 c 0,19,20
 548 887 548 887 614 887 c 0,21,22
 661 887 661 887 683 880 c 1,23,-1
 690 880 l 1,24,-1
 728 1158 l 1,25,-1
 586 1184 l 1,26,-1
 599 1257 l 1,27,-1
 875 1282 l 1,28,-1
 895 1259 l 1,29,-1
 758 380 l 1,30,31
 732 195 732 195 731 160 c 0,32,33
 731 127 731 127 740 114.5 c 128,-1,34
 749 102 749 102 774 98 c 2,35,-1
 840 86 l 1,0,-1
657 746 m 1,36,37
 614 782 614 782 539 782 c 0,38,39
 465 782 465 782 403.5 714 c 128,-1,40
 342 646 342 646 312 540 c 1,41,42
 281 440 281 440 281 331 c 0,43,44
 281 214 281 214 311.5 160 c 128,-1,45
 342 106 342 106 405 106 c 0,46,47
 455 106 455 106 489.5 127.5 c 128,-1,48
 524 149 524 149 569 202 c 1,49,-1
 657 746 l 1,36,37
EndSplineSet
EndChar

StartChar: e
Encoding: 101 101 72
Width: 733
GlyphClass: 2
Flags: W
LayerCount: 2
Fore
SplineSet
576 534 m 1,0,1
 598 579 598 579 597 653 c 1,2,3
 593 799 593 799 501 799 c 0,4,5
 443 799 443 799 389 729 c 0,6,7
 334 659 334 659 304 513 c 1,8,-1
 576 534 l 1,0,1
701 458 m 1,9,-1
 293 440 l 1,10,11
 286 397 286 397 285 349 c 1,12,13
 285 219 285 219 345 160 c 0,14,15
 402 103 402 103 491 103 c 0,16,17
 527 103 527 103 594 129.5 c 128,-1,18
 661 156 661 156 680 177 c 1,19,-1
 706 132 l 1,20,21
 665 69 665 69 576.5 19.5 c 128,-1,22
 488 -30 488 -30 397 -30 c 0,23,24
 323 -30 323 -30 268 -2 c 128,-1,25
 213 26 213 26 182 76 c 0,26,27
 126 169 126 169 126 306 c 0,28,29
 126 462 126 462 182 596 c 128,-1,30
 238 730 238 730 339 811 c 128,-1,31
 440 892 440 892 561 892 c 0,32,33
 655 892 655 892 702 830.5 c 128,-1,34
 749 769 749 769 749 655 c 0,35,36
 749 548 749 548 701 458 c 1,9,-1
EndSplineSet
EndChar

StartChar: f
Encoding: 102 102 73
Width: 588
GlyphClass: 2
Flags: W
LayerCount: 2
Fore
SplineSet
854 1175 m 0,0,1
 854 1142 854 1142 828 1114 c 128,-1,2
 802 1086 802 1086 752 1072 c 1,3,4
 741 1104 741 1104 699 1132.5 c 128,-1,5
 657 1161 657 1161 615 1161 c 0,6,7
 556 1161 556 1161 526 1093 c 0,8,9
 503 1041 503 1041 489 958 c 2,10,-1
 476 875 l 1,11,-1
 663 875 l 1,12,-1
 638 786 l 1,13,-1
 462 786 l 1,14,-1
 355 109 l 1,15,-1
 563 79 l 1,16,-1
 545 0 l 1,17,-1
 50 0 l 1,18,-1
 67 76 l 1,19,-1
 191 109 l 1,20,-1
 297 786 l 1,21,-1
 178 786 l 1,22,-1
 194 854 l 1,23,-1
 313 890 l 1,24,25
 335 996 335 996 393.5 1088 c 128,-1,26
 452 1180 452 1180 531 1235 c 0,27,28
 610 1289 610 1289 687 1289 c 0,29,30
 768 1289 768 1289 811 1260.5 c 128,-1,31
 854 1232 854 1232 854 1175 c 0,0,1
EndSplineSet
EndChar

StartChar: g
Encoding: 103 103 74
Width: 830
GlyphClass: 2
Flags: W
LayerCount: 2
Fore
SplineSet
347 553 m 0,0,1
 347 479 347 479 378 429.5 c 128,-1,2
 409 380 409 380 455 380 c 0,3,4
 524 380 524 380 569.5 458.5 c 128,-1,5
 615 537 615 537 615 662 c 0,6,7
 615 738 615 738 590.5 781 c 128,-1,8
 566 824 566 824 523 824 c 0,9,10
 449 824 449 824 398 745.5 c 128,-1,11
 347 667 347 667 347 553 c 0,0,1
534 151 m 2,12,13
 780 151 780 151 781 0 c 0,14,15
 781 -65 781 -65 750.5 -126.5 c 128,-1,16
 720 -188 720 -188 666 -235 c 0,17,18
 554 -334 554 -334 418 -369 c 0,19,20
 351 -387 351 -387 289 -387 c 0,21,22
 119 -387 119 -387 39 -308 c 0,23,24
 -5 -264 -5 -264 -5 -202 c 0,25,26
 -5 -68 -5 -68 189 18 c 1,27,-1
 189 26 l 1,28,29
 147 48 147 48 129.5 74.5 c 128,-1,30
 112 101 112 101 111 146 c 0,31,32
 111 187 111 187 176 244.5 c 128,-1,33
 241 302 241 302 308 328 c 1,34,-1
 309 336 l 1,35,36
 264 348 264 348 223 413 c 128,-1,37
 182 478 182 478 182 550 c 0,38,39
 182 638 182 638 238.5 720 c 128,-1,40
 295 802 295 802 385 851 c 0,41,42
 470 898 470 898 556 898 c 0,43,44
 656 898 656 898 713 835 c 1,45,-1
 925 850 l 1,46,-1
 941 827 l 1,47,-1
 887 716 l 1,48,-1
 870 716 l 1,49,-1
 751 756 l 1,50,-1
 749 739 l 1,51,52
 764 689 764 689 764 632 c 0,53,54
 764 548 764 548 709.5 470 c 128,-1,55
 655 392 655 392 572 347 c 0,56,57
 491 303 491 303 417 303 c 0,58,59
 377 303 377 303 347 313 c 1,60,-1
 329 294 l 2,61,62
 312 277 312 277 309 272 c 0,63,64
 303 264 303 264 301 261 c 0,65,66
 295 253 295 253 293 246 c 0,67,68
 293 245 293 245 291 240 c 128,-1,69
 289 235 289 235 287 232 c 0,70,71
 281 217 281 217 281 199 c 0,72,73
 281 168 281 168 316 159 c 0,74,75
 348 151 348 151 447 151 c 2,76,-1
 534 151 l 2,12,13
253 3 m 1,77,78
 251 1 251 1 246 -2 c 0,79,80
 226 -17 226 -17 207 -48 c 0,81,82
 182 -89 182 -89 182 -149 c 0,83,84
 182 -280 182 -280 352 -280 c 0,85,86
 463 -280 463 -280 532.5 -224.5 c 128,-1,87
 602 -169 602 -169 602 -76 c 0,88,89
 602 -33 602 -33 554 -15 c 0,90,91
 507 3 507 3 392 3 c 2,92,-1
 253 3 l 1,77,78
EndSplineSet
EndChar

StartChar: h
Encoding: 104 104 75
Width: 899
GlyphClass: 2
Flags: W
LayerCount: 2
Fore
SplineSet
768 101 m 1,0,-1
 892 73 l 1,1,-1
 871 0 l 1,2,-1
 600 0 l 1,3,-1
 684 526 l 2,4,5
 692 581 692 581 692 619 c 0,6,7
 692 746 692 746 605 746 c 0,8,9
 564 746 564 746 525 733 c 128,-1,10
 486 720 486 720 463 702 c 128,-1,11
 440 684 440 684 418 663 c 1,12,-1
 328 103 l 1,13,-1
 451 71 l 1,14,-1
 433 0 l 1,15,-1
 27 0 l 1,16,-1
 49 74 l 1,17,-1
 170 108 l 1,18,-1
 335 1145 l 1,19,-1
 201 1168 l 1,20,-1
 211 1244 l 1,21,-1
 486 1269 l 1,22,-1
 507 1246 l 1,23,-1
 444 847 l 1,24,-1
 416 723 l 1,25,-1
 428 723 l 1,26,27
 484 797 484 797 559.5 846 c 128,-1,28
 635 895 635 895 712 895 c 0,29,30
 859 895 859 895 859 715 c 0,31,32
 859 660 859 660 851 614 c 2,33,-1
 768 101 l 1,0,-1
EndSplineSet
EndChar

StartChar: i
Encoding: 105 105 76
Width: 497
GlyphClass: 2
Flags: W
LayerCount: 2
Fore
SplineSet
566 1198 m 0,0,1
 566 1148 566 1148 529.5 1111.5 c 128,-1,2
 493 1075 493 1075 443.5 1075 c 128,-1,3
 394 1075 394 1075 359 1111.5 c 128,-1,4
 324 1148 324 1148 324 1199 c 0,5,6
 324 1245 324 1245 359.5 1278 c 128,-1,7
 395 1311 395 1311 443 1311 c 0,8,9
 493 1311 493 1311 529.5 1278 c 128,-1,10
 566 1245 566 1245 566 1198 c 0,0,1
202 106 m 1,11,-1
 303 748 l 1,12,-1
 172 769 l 1,13,-1
 182 845 l 1,14,-1
 457 870 l 1,15,-1
 476 847 l 1,16,-1
 361 103 l 1,17,-1
 486 71 l 1,18,-1
 470 0 l 1,19,-1
 61 0 l 1,20,-1
 79 73 l 1,21,-1
 202 106 l 1,11,-1
EndSplineSet
EndChar

StartChar: j
Encoding: 106 106 77
Width: 441
GlyphClass: 2
Flags: W
LayerCount: 2
Fore
SplineSet
420 1313 m 0,0,1
 472 1313 472 1313 510.5 1277.5 c 128,-1,2
 549 1242 549 1242 549 1193 c 0,3,4
 549 1142 549 1142 510.5 1103.5 c 128,-1,5
 472 1065 472 1065 420 1065 c 0,6,7
 370 1065 370 1065 334 1104.5 c 128,-1,8
 298 1144 298 1144 298 1196 c 0,9,10
 298 1243 298 1243 335 1278 c 128,-1,11
 372 1313 372 1313 420 1313 c 0,0,1
-84 -308 m 1,12,13
 138 -146 138 -146 174 99 c 1,14,-1
 277 749 l 1,15,-1
 144 771 l 1,16,-1
 154 847 l 1,17,-1
 428 872 l 1,18,-1
 450 849 l 1,19,-1
 329 86 l 2,20,21
 317 10 317 10 285 -63 c 128,-1,22
 253 -136 253 -136 213 -189 c 1,23,24
 177 -235 177 -235 129 -277 c 128,-1,25
 81 -319 81 -319 40 -346 c 1,26,27
 0 -371 0 -371 -35 -387 c 1,28,-1
 -84 -308 l 1,12,13
EndSplineSet
EndChar

StartChar: k
Encoding: 107 107 78
Width: 861
GlyphClass: 2
Flags: W
LayerCount: 2
Fore
SplineSet
405 435 m 1,0,-1
 409 452 l 1,1,-1
 672 771 l 1,2,-1
 549 804 l 1,3,-1
 564 875 l 1,4,-1
 945 875 l 1,5,-1
 923 799 l 1,6,-1
 791 766 l 1,7,-1
 551 488 l 1,8,-1
 601 384 l 2,9,10
 608 368 608 368 625 331 c 2,11,-1
 668 238 l 2,12,13
 683 206 683 206 709 165 c 0,14,15
 725 140 725 140 754 112 c 0,16,17
 776 92 776 92 811 81 c 1,18,19
 825 75 825 75 847 73 c 1,20,-1
 882 68 l 1,21,-1
 860 0 l 1,22,23
 841 -6 841 -6 797 -13 c 128,-1,24
 753 -20 753 -20 726 -20 c 0,25,26
 660 -20 660 -20 611 23 c 0,27,28
 570 59 570 59 519 169 c 0,29,30
 498 212 498 212 467 288 c 2,31,-1
 405 435 l 1,0,-1
170 108 m 1,32,-1
 336 1145 l 1,33,-1
 203 1166 l 1,34,-1
 215 1242 l 1,35,-1
 486 1267 l 1,36,-1
 510 1244 l 1,37,-1
 329 104 l 1,38,-1
 455 73 l 1,39,-1
 438 0 l 1,40,-1
 30 0 l 1,41,-1
 46 74 l 1,42,-1
 170 108 l 1,32,-1
EndSplineSet
EndChar

StartChar: l
Encoding: 108 108 79
Width: 466
GlyphClass: 2
Flags: W
LayerCount: 2
Fore
SplineSet
170 108 m 1,0,-1
 335 1145 l 1,1,-1
 203 1166 l 1,2,-1
 214 1242 l 1,3,-1
 486 1267 l 1,4,-1
 507 1244 l 1,5,-1
 328 104 l 1,6,-1
 456 73 l 1,7,-1
 438 0 l 1,8,-1
 29 0 l 1,9,-1
 47 74 l 1,10,-1
 170 108 l 1,0,-1
EndSplineSet
EndChar

StartChar: m
Encoding: 109 109 80
Width: 1367
GlyphClass: 2
Flags: W
LayerCount: 2
Fore
SplineSet
1242 101 m 1,0,-1
 1366 73 l 1,1,-1
 1345 0 l 1,2,-1
 1082 0 l 1,3,-1
 1070 13 l 1,4,-1
 1150 526 l 1,5,6
 1158 584 1158 584 1158 622 c 0,7,8
 1158 748 1158 748 1082 748 c 0,9,10
 974 748 974 748 890 663 c 1,11,12
 878 578 878 578 867 510 c 2,13,-1
 842 352 l 1,14,-1
 802 103 l 1,15,-1
 926 74 l 1,16,-1
 905 0 l 1,17,-1
 642 0 l 1,18,-1
 630 15 l 1,19,-1
 713 526 l 2,20,21
 723 583 723 583 723 630 c 0,22,23
 723 747 723 747 645 748 c 1,24,25
 544 748 544 748 457 663 c 1,26,-1
 369 104 l 1,27,-1
 491 73 l 1,28,-1
 473 0 l 1,29,-1
 63 0 l 1,30,-1
 84 76 l 1,31,-1
 205 109 l 1,32,-1
 301 743 l 1,33,-1
 170 764 l 1,34,-1
 184 847 l 1,35,-1
 465 872 l 1,36,-1
 486 849 l 1,37,-1
 455 723 l 1,38,-1
 467 723 l 1,39,40
 493 768 493 768 566 825 c 1,41,42
 604 856 604 856 653.5 875.5 c 128,-1,43
 703 895 703 895 751 895 c 0,44,45
 817 895 817 895 855 857 c 128,-1,46
 893 819 893 819 893 744 c 2,47,-1
 893 731 l 1,48,-1
 905 731 l 1,49,50
 1029 895 1029 895 1183 895 c 0,51,52
 1257 895 1257 895 1291 851.5 c 128,-1,53
 1325 808 1325 808 1325 718 c 0,54,55
 1325 674 1325 674 1317 614 c 2,56,-1
 1242 101 l 1,0,-1
EndSplineSet
EndChar

StartChar: n
Encoding: 110 110 81
Width: 927
GlyphClass: 2
Flags: W
LayerCount: 2
Fore
SplineSet
799 104 m 1,0,-1
 923 76 l 1,1,-1
 902 3 l 1,2,-1
 635 3 l 1,3,-1
 624 15 l 1,4,-1
 706 526 l 1,5,6
 718 610 718 610 718 639 c 0,7,8
 718 697 718 697 698 720.5 c 128,-1,9
 678 744 678 744 635 744 c 0,10,11
 534 744 534 744 452 665 c 1,12,-1
 362 106 l 1,13,-1
 485 74 l 1,14,-1
 467 0 l 1,15,-1
 63 0 l 1,16,-1
 84 74 l 1,17,-1
 205 108 l 1,18,-1
 301 743 l 1,19,-1
 170 764 l 1,20,-1
 184 847 l 1,21,-1
 462 872 l 1,22,-1
 483 849 l 1,23,-1
 448 723 l 1,24,-1
 460 723 l 1,25,26
 512 792 512 792 594.5 843.5 c 128,-1,27
 677 895 677 895 748 895 c 128,-1,28
 819 895 819 895 853.5 855 c 128,-1,29
 888 815 888 815 888 723 c 0,30,31
 888 678 888 678 878 614 c 2,32,-1
 799 104 l 1,0,-1
EndSplineSet
EndChar

StartChar: o
Encoding: 111 111 82
Width: 842
GlyphClass: 2
Flags: W
LayerCount: 2
Fore
SplineSet
655 310 m 0,0,1
 685 424 685 424 685 550 c 0,2,3
 685 675 685 675 648.5 746 c 128,-1,4
 612 817 612 817 548 817 c 0,5,6
 489 817 489 817 441.5 776 c 128,-1,7
 394 735 394 735 365 663 c 0,8,9
 306 517 306 517 306 323 c 0,10,11
 306 168 306 168 366 89 c 0,12,13
 397 48 397 48 438 48 c 0,14,15
 507 48 507 48 565.5 120.5 c 128,-1,16
 624 193 624 193 655 310 c 0,0,1
728 151 m 0,17,18
 668 70 668 70 583 22 c 128,-1,19
 498 -26 498 -26 405 -26 c 0,20,21
 316 -26 316 -26 251 20.5 c 128,-1,22
 186 67 186 67 154 148 c 0,23,24
 123 228 123 228 122 329 c 1,25,26
 122 432 122 432 157.5 535 c 128,-1,27
 193 638 193 638 255 718 c 0,28,29
 317 799 317 799 405.5 847 c 128,-1,30
 494 895 494 895 591 895 c 0,31,32
 723 895 723 895 788.5 803 c 128,-1,33
 854 711 854 711 854 536 c 0,34,35
 854 433 854 433 820.5 332 c 128,-1,36
 787 231 787 231 728 151 c 0,17,18
EndSplineSet
EndChar

